<ttFont>
<head>
    <!-- Most of this table will be recalculated by the compiler -->
    <tableVersion value="1.0"/>
    <fontRevision value="3.006"/>
    <checkSumAdjustment value="0x1ed3ceeb"/>
    <magicNumber value="0x5f0f3cf5"/>
    <flags value="00000000 00000011"/>
    <unitsPerEm value="1000"/>
    <created value="Mon Jun 17 15:18:38 2019"/>
    <modified value="Tue May 11 16:17:13 2021"/>
    <xMin value="-156"/>
    <yMin value="-221"/>
    <xMax value="1313"/>
    <yMax value="1130"/>
    <macStyle value="00000000 00000000"/>
    <lowestRecPPEM value="6"/>
    <fontDirectionHint value="2"/>
    <indexToLocFormat value="0"/>
    <glyphDataFormat value="0"/>
  </head>
    <TTGlyph name=".notdef" xMin="40" yMin="0" xMax="544" yMax="700">
      <contour>
        <pt x="40" y="665" on="1"/>
        <pt x="40" y="700" on="0"/>
        <pt x="75" y="700" on="1"/>
        <pt x="509" y="700" on="1"/>
        <pt x="544" y="700" on="0"/>
        <pt x="544" y="665" on="1"/>
        <pt x="544" y="35" on="1"/>
        <pt x="544" y="0" on="0"/>
        <pt x="509" y="0" on="1"/>
        <pt x="75" y="0" on="1"/>
        <pt x="40" y="0" on="0"/>
        <pt x="40" y="35" on="1"/>
      </contour>
      <contour>
        <pt x="95" y="670" on="1"/>
        <pt x="88" y="670" on="0"/>
        <pt x="92" y="664" on="1"/>
        <pt x="508" y="65" on="1"/>
        <pt x="510" y="62" on="0"/>
        <pt x="514" y="63" on="0"/>
        <pt x="514" y="67" on="1"/>
        <pt x="514" y="665" on="1"/>
        <pt x="514" y="670" on="0"/>
        <pt x="509" y="670" on="1"/>
      </contour>
      <contour>
        <pt x="70" y="35" on="1"/>
        <pt x="70" y="30" on="0"/>
        <pt x="75" y="30" on="1"/>
        <pt x="488" y="30" on="1"/>
        <pt x="495" y="30" on="0"/>
        <pt x="491" y="36" on="1"/>
        <pt x="76" y="635" on="1"/>
        <pt x="74" y="638" on="0"/>
        <pt x="70" y="637" on="0"/>
        <pt x="70" y="633" on="1"/>
      </contour>
    </TTGlyph>
    <TTGlyph name="A" xMin="34" yMin="0" xMax="614" yMax="702">
      <contour>
        <pt x="327" y="649" on="1"/>
        <pt x="74" y="13" on="1"/>
        <pt x="72" y="7" on="0"/>
        <pt x="62" y="0" on="0"/>
        <pt x="56" y="0" on="1"/>
        <pt x="46" y="0" on="0"/>
        <pt x="36" y="10" on="0"/>
        <pt x="35" y="17" on="1"/>
        <pt x="34" y="21" on="0"/>
        <pt x="36" y="27" on="1"/>
        <pt x="305" y="689" on="1"/>
        <pt x="308" y="697" on="0"/>
        <pt x="317" y="702" on="0"/>
        <pt x="324" y="702" on="1"/>
        <pt x="332" y="702" on="0"/>
        <pt x="342" y="695" on="0"/>
        <pt x="344" y="689" on="1"/>
        <pt x="613" y="27" on="1"/>
        <pt x="614" y="24" on="0"/>
        <pt x="614" y="19" on="1"/>
        <pt x="614" y="10" on="0"/>
        <pt x="602" y="0" on="0"/>
        <pt x="593" y="0" on="1"/>
        <pt x="586" y="0" on="0"/>
        <pt x="575" y="7" on="0"/>
        <pt x="573" y="13" on="1"/>
        <pt x="312" y="657" on="1"/>
      </contour>
      <contour>
        <pt x="142" y="217" on="1"/>
        <pt x="156" y="257" on="1"/>
        <pt x="480" y="257" on="1"/>
        <pt x="490" y="217" on="1"/>
      </contour>
    </TTGlyph>
    <TTGlyph name="AE" xMin="9" yMin="-1" xMax="881" yMax="700">
      <contour>
        <pt x="168" y="217" on="1"/>
        <pt x="491" y="217" on="1"/>
        <pt x="474" y="201" on="1"/>
        <pt x="474" y="662" on="1"/>
        <pt x="487" y="640" on="1"/>
        <pt x="45" y="8" on="1"/>
        <pt x="39" y="-1" on="0"/>
        <pt x="28" y="-1" on="1"/>
        <pt x="21" y="-1" on="0"/>
        <pt x="9" y="11" on="0"/>
        <pt x="9" y="20" on="1"/>
        <pt x="9" y="27" on="0"/>
        <pt x="12" y="31" on="1"/>
        <pt x="474" y="691" on="1"/>
        <pt x="478" y="696" on="0"/>
        <pt x="487" y="700" on="0"/>
        <pt x="492" y="700" on="1"/>
        <pt x="861" y="700" on="1"/>
        <pt x="869" y="700" on="0"/>
        <pt x="881" y="688" on="0"/>
        <pt x="881" y="680" on="1"/>
        <pt x="881" y="671" on="0"/>
        <pt x="869" y="660" on="0"/>
        <pt x="861" y="660" on="1"/>
        <pt x="507" y="660" on="1"/>
        <pt x="514" y="670" on="1"/>
        <pt x="514" y="371" on="1"/>
        <pt x="508" y="381" on="1"/>
        <pt x="816" y="381" on="1"/>
        <pt x="824" y="381" on="0"/>
        <pt x="836" y="369" on="0"/>
        <pt x="836" y="361" on="1"/>
        <pt x="836" y="352" on="0"/>
        <pt x="824" y="341" on="0"/>
        <pt x="816" y="341" on="1"/>
        <pt x="506" y="341" on="1"/>
        <pt x="514" y="350" on="1"/>
        <pt x="514" y="30" on="1"/>
        <pt x="508" y="40" on="1"/>
        <pt x="861" y="40" on="1"/>
        <pt x="869" y="40" on="0"/>
        <pt x="881" y="28" on="0"/>
        <pt x="881" y="20" on="1"/>
        <pt x="881" y="11" on="0"/>
        <pt x="869" y="0" on="0"/>
        <pt x="861" y="0" on="1"/>
        <pt x="494" y="0" on="1"/>
        <pt x="486" y="0" on="0"/>
        <pt x="474" y="12" on="0"/>
        <pt x="474" y="20" on="1"/>
        <pt x="474" y="191" on="1"/>
        <pt x="491" y="177" on="1"/>
        <pt x="129" y="177" on="1"/>
      </contour>
    </TTGlyph>
    <TTGlyph name="AEacute" xMin="9" yMin="-1" xMax="881" yMax="850">
      <component glyphName="AE" x="0" y="0" flags="0x204"/>
      <component glyphName="acutecomb.case" x="562" y="40" flags="0x4"/>
    </TTGlyph>
    <TTGlyph name="Aacute" xMin="34" yMin="0" xMax="614" yMax="850">
      <component glyphName="A" x="0" y="0" flags="0x204"/>
      <component glyphName="acutecomb.case" x="254" y="40" flags="0x4"/>
    </TTGlyph>
    <TTGlyph name="Abreve" xMin="34" yMin="0" xMax="614" yMax="905">
      <component glyphName="A" x="0" y="0" flags="0x204"/>
      <component glyphName="uni0306.case" x="144" y="0" flags="0x4"/>
    </TTGlyph>
    <TTGlyph name="Acircumflex" xMin="34" yMin="0" xMax="614" yMax="890">
      <component glyphName="A" x="0" y="0" flags="0x204"/>
      <component glyphName="uni0302.case" x="168" y="90" flags="0x4"/>
    </TTGlyph>
    <TTGlyph name="Adieresis" xMin="34" yMin="0" xMax="614" yMax="860">
      <component glyphName="A" x="0" y="0" flags="0x204"/>
      <component glyphName="uni0308.case" x="159" y="0" flags="0x4"/>
    </TTGlyph>
    <TTGlyph name="Agrave" xMin="34" yMin="0" xMax="614" yMax="850">
      <component glyphName="A" x="0" y="0" flags="0x204"/>
      <component glyphName="gravecomb.case" x="190" y="40" flags="0x4"/>
    </TTGlyph>
    <TTGlyph name="Amacron" xMin="34" yMin="0" xMax="614" yMax="838">
      <component glyphName="A" x="0" y="0" flags="0x204"/>
      <component glyphName="uni0304.case" x="125" y="49" flags="0x4"/>
    </TTGlyph>
    <TTGlyph name="Aogonek" xMin="34" yMin="-185" xMax="646" yMax="702">
      <contour>
        <pt x="574" y="-185" on="1"/>
        <pt x="541" y="-185" on="0"/>
        <pt x="486" y="-135" on="0"/>
        <pt x="486" y="-93" on="1"/>
        <pt x="486" y="-70" on="0"/>
        <pt x="501" y="-32" on="0"/>
        <pt x="526" y="-2" on="0"/>
        <pt x="556" y="18" on="0"/>
        <pt x="572" y="23" on="1"/>
        <pt x="582" y="20" on="1"/>
        <pt x="573" y="13" on="1"/>
        <pt x="312" y="657" on="1"/>
        <pt x="327" y="649" on="1"/>
        <pt x="74" y="13" on="1"/>
        <pt x="72" y="7" on="0"/>
        <pt x="62" y="0" on="0"/>
        <pt x="56" y="0" on="1"/>
        <pt x="46" y="0" on="0"/>
        <pt x="36" y="10" on="0"/>
        <pt x="35" y="17" on="1"/>
        <pt x="34" y="21" on="0"/>
        <pt x="36" y="27" on="1"/>
        <pt x="305" y="689" on="1"/>
        <pt x="308" y="697" on="0"/>
        <pt x="317" y="702" on="0"/>
        <pt x="324" y="702" on="1"/>
        <pt x="332" y="702" on="0"/>
        <pt x="342" y="695" on="0"/>
        <pt x="344" y="689" on="1"/>
        <pt x="613" y="27" on="1"/>
        <pt x="615" y="21" on="0"/>
        <pt x="615" y="18" on="1"/>
        <pt x="615" y="9" on="0"/>
        <pt x="604" y="2" on="0"/>
        <pt x="595" y="0" on="1"/>
        <pt x="568" y="-5" on="0"/>
        <pt x="524" y="-56" on="0"/>
        <pt x="524" y="-85" on="1"/>
        <pt x="524" y="-115" on="0"/>
        <pt x="558" y="-148" on="0"/>
        <pt x="579" y="-148" on="1"/>
        <pt x="604" y="-148" on="0"/>
        <pt x="611" y="-136" on="1"/>
        <pt x="615" y="-130" on="0"/>
        <pt x="623" y="-122" on="0"/>
        <pt x="630" y="-122" on="1"/>
        <pt x="637" y="-122" on="0"/>
        <pt x="646" y="-131" on="0"/>
        <pt x="646" y="-136" on="1"/>
        <pt x="646" y="-149" on="0"/>
        <pt x="625" y="-172" on="0"/>
        <pt x="592" y="-185" on="0"/>
      </contour>
      <contour>
        <pt x="142" y="217" on="1"/>
        <pt x="156" y="257" on="1"/>
        <pt x="480" y="257" on="1"/>
        <pt x="490" y="217" on="1"/>
      </contour>
    </TTGlyph>
    <TTGlyph name="Aring" xMin="34" yMin="0" xMax="614" yMax="859">
      <contour>
        <pt x="325" y="671" on="1"/>
        <pt x="299" y="671" on="0"/>
        <pt x="254" y="696" on="0"/>
        <pt x="227" y="739" on="0"/>
        <pt x="227" y="765" on="1"/>
        <pt x="227" y="791" on="0"/>
        <pt x="254" y="834" on="0"/>
        <pt x="299" y="859" on="0"/>
        <pt x="325" y="859" on="1"/>
        <pt x="351" y="859" on="0"/>
        <pt x="396" y="834" on="0"/>
        <pt x="423" y="791" on="0"/>
        <pt x="423" y="765" on="1"/>
        <pt x="423" y="739" on="0"/>
        <pt x="396" y="696" on="0"/>
        <pt x="351" y="671" on="0"/>
      </contour>
      <contour>
        <pt x="325" y="703" on="1"/>
        <pt x="351" y="703" on="0"/>
        <pt x="387" y="740" on="0"/>
        <pt x="387" y="765" on="1"/>
        <pt x="387" y="791" on="0"/>
        <pt x="351" y="827" on="0"/>
        <pt x="325" y="827" on="1"/>
        <pt x="300" y="827" on="0"/>
        <pt x="263" y="791" on="0"/>
        <pt x="263" y="765" on="1"/>
        <pt x="263" y="740" on="0"/>
        <pt x="300" y="703" on="0"/>
      </contour>
      <contour>
        <pt x="327" y="649" on="1"/>
        <pt x="74" y="13" on="1"/>
        <pt x="72" y="7" on="0"/>
        <pt x="62" y="0" on="0"/>
        <pt x="56" y="0" on="1"/>
        <pt x="46" y="0" on="0"/>
        <pt x="36" y="10" on="0"/>
        <pt x="35" y="17" on="1"/>
        <pt x="34" y="21" on="0"/>
        <pt x="36" y="27" on="1"/>
        <pt x="305" y="689" on="1"/>
        <pt x="308" y="697" on="0"/>
        <pt x="317" y="702" on="0"/>
        <pt x="324" y="702" on="1"/>
        <pt x="332" y="702" on="0"/>
        <pt x="342" y="695" on="0"/>
        <pt x="344" y="689" on="1"/>
        <pt x="613" y="27" on="1"/>
        <pt x="614" y="24" on="0"/>
        <pt x="614" y="19" on="1"/>
        <pt x="614" y="10" on="0"/>
        <pt x="602" y="0" on="0"/>
        <pt x="593" y="0" on="1"/>
        <pt x="586" y="0" on="0"/>
        <pt x="575" y="7" on="0"/>
        <pt x="573" y="13" on="1"/>
        <pt x="312" y="657" on="1"/>
      </contour>
      <contour>
        <pt x="142" y="217" on="1"/>
        <pt x="156" y="257" on="1"/>
        <pt x="480" y="257" on="1"/>
        <pt x="490" y="217" on="1"/>
      </contour>
    </TTGlyph>
    <TTGlyph name="Aringacute" xMin="34" yMin="0" xMax="614" yMax="1009">
      <component glyphName="Aring" x="0" y="0" flags="0x204"/>
      <component glyphName="acutecomb.case" x="254" y="199" flags="0x4"/>
    </TTGlyph>
    <TTGlyph name="Atilde" xMin="34" yMin="0" xMax="614" yMax="884">
      <component glyphName="A" x="0" y="0" flags="0x204"/>
      <component glyphName="tildecomb.case" x="131" y="0" flags="0x4"/>
    </TTGlyph>
    <TTGlyph name="B" xMin="100" yMin="0" xMax="600" yMax="700">
      <contour>
        <pt x="389" y="700" on="1"/>
        <pt x="469" y="700" on="0"/>
        <pt x="565" y="608" on="0"/>
        <pt x="565" y="530" on="1"/>
        <pt x="565" y="489" on="0"/>
        <pt x="532" y="412" on="0"/>
        <pt x="468" y="362" on="0"/>
        <pt x="421" y="358" on="1"/>
        <pt x="414" y="370" on="1"/>
        <pt x="453" y="370" on="0"/>
        <pt x="521" y="347" on="0"/>
        <pt x="571" y="301" on="0"/>
        <pt x="600" y="234" on="0"/>
        <pt x="600" y="189" on="1"/>
        <pt x="600" y="141" on="0"/>
        <pt x="568" y="70" on="0"/>
        <pt x="512" y="23" on="0"/>
        <pt x="438" y="0" on="0"/>
        <pt x="396" y="0" on="1"/>
        <pt x="120" y="0" on="1"/>
        <pt x="112" y="0" on="0"/>
        <pt x="100" y="12" on="0"/>
        <pt x="100" y="20" on="1"/>
        <pt x="100" y="680" on="1"/>
        <pt x="100" y="688" on="0"/>
        <pt x="112" y="700" on="0"/>
        <pt x="120" y="700" on="1"/>
      </contour>
      <contour>
        <pt x="384" y="660" on="1"/>
        <pt x="131" y="660" on="1"/>
        <pt x="142" y="679" on="1"/>
        <pt x="142" y="362" on="1"/>
        <pt x="132" y="379" on="1"/>
        <pt x="384" y="379" on="1"/>
        <pt x="443" y="380" on="0"/>
        <pt x="523" y="456" on="0"/>
        <pt x="523" y="531" on="1"/>
        <pt x="523" y="589" on="0"/>
        <pt x="451" y="660" on="0"/>
      </contour>
      <contour>
        <pt x="391" y="338" on="1"/>
        <pt x="138" y="338" on="1"/>
        <pt x="142" y="344" on="1"/>
        <pt x="142" y="32" on="1"/>
        <pt x="137" y="40" on="1"/>
        <pt x="391" y="40" on="1"/>
        <pt x="462" y="40" on="0"/>
        <pt x="558" y="111" on="0"/>
        <pt x="558" y="189" on="1"/>
        <pt x="558" y="241" on="0"/>
        <pt x="514" y="307" on="0"/>
        <pt x="438" y="338" on="0"/>
      </contour>
    </TTGlyph>
    <TTGlyph name="C" xMin="50" yMin="-10" xMax="628" yMax="710">
      <contour>
        <pt x="618" y="642" on="1"/>
        <pt x="626" y="636" on="0"/>
        <pt x="628" y="621" on="0"/>
        <pt x="623" y="613" on="1"/>
        <pt x="618" y="606" on="0"/>
        <pt x="603" y="605" on="0"/>
        <pt x="596" y="609" on="1"/>
        <pt x="554" y="638" on="0"/>
        <pt x="455" y="672" on="0"/>
        <pt x="399" y="672" on="1"/>
        <pt x="335" y="672" on="0"/>
        <pt x="224" y="625" on="0"/>
        <pt x="140" y="539" on="0"/>
        <pt x="92" y="421" on="0"/>
        <pt x="92" y="350" on="1"/>
        <pt x="92" y="279" on="0"/>
        <pt x="140" y="161" on="0"/>
        <pt x="224" y="75" on="0"/>
        <pt x="335" y="28" on="0"/>
        <pt x="399" y="28" on="1"/>
        <pt x="455" y="28" on="0"/>
        <pt x="553" y="62" on="0"/>
        <pt x="595" y="90" on="1"/>
        <pt x="602" y="95" on="0"/>
        <pt x="618" y="93" on="0"/>
        <pt x="623" y="86" on="1"/>
        <pt x="628" y="79" on="0"/>
        <pt x="626" y="63" on="0"/>
        <pt x="619" y="58" on="1"/>
        <pt x="595" y="41" on="0"/>
        <pt x="522" y="9" on="0"/>
        <pt x="440" y="-10" on="0"/>
        <pt x="399" y="-10" on="1"/>
        <pt x="327" y="-10" on="0"/>
        <pt x="201" y="44" on="0"/>
        <pt x="105" y="141" on="0"/>
        <pt x="50" y="272" on="0"/>
        <pt x="50" y="350" on="1"/>
        <pt x="50" y="428" on="0"/>
        <pt x="105" y="559" on="0"/>
        <pt x="201" y="656" on="0"/>
        <pt x="327" y="710" on="0"/>
        <pt x="399" y="710" on="1"/>
        <pt x="460" y="710" on="0"/>
        <pt x="573" y="674" on="0"/>
      </contour>
    </TTGlyph>
    <TTGlyph name="Cacute" xMin="50" yMin="-10" xMax="628" yMax="850">
      <component glyphName="C" x="0" y="0" flags="0x204"/>
      <component glyphName="acutecomb.case" x="328" y="40" flags="0x4"/>
    </TTGlyph>
    <TTGlyph name="Ccaron" xMin="50" yMin="-10" xMax="628" yMax="881">
      <component glyphName="C" x="0" y="0" flags="0x204"/>
      <component glyphName="uni030C.case" x="242" y="48" flags="0x4"/>
    </TTGlyph>
    <TTGlyph name="Ccedilla" xMin="50" yMin="-141" xMax="628" yMax="710">
      <component glyphName="C" x="0" y="0" flags="0x204"/>
      <component glyphName="cedilla" x="275" y="0" flags="0x4"/>
    </TTGlyph>
    <TTGlyph name="Ccircumflex" xMin="50" yMin="-10" xMax="628" yMax="890">
      <component glyphName="C" x="0" y="0" flags="0x204"/>
      <component glyphName="uni0302.case" x="242" y="90" flags="0x4"/>
    </TTGlyph>
    <TTGlyph name="Cdotaccent" xMin="50" yMin="-10" xMax="628" yMax="860">
      <component glyphName="C" x="0" y="0" flags="0x204"/>
      <component glyphName="uni0307.case" x="295" y="0" flags="0x4"/>
    </TTGlyph>
    <TTGlyph name="D" xMin="100" yMin="0" xMax="670" yMax="700">
      <contour>
        <pt x="380" y="700" on="1"/>
        <pt x="455" y="700" on="0"/>
        <pt x="565" y="643" on="0"/>
        <pt x="636" y="544" on="0"/>
        <pt x="670" y="418" on="0"/>
        <pt x="670" y="350" on="1"/>
        <pt x="670" y="254" on="0"/>
        <pt x="609" y="95" on="0"/>
        <pt x="481" y="0" on="0"/>
        <pt x="380" y="0" on="1"/>
        <pt x="120" y="0" on="1"/>
        <pt x="112" y="0" on="0"/>
        <pt x="100" y="12" on="0"/>
        <pt x="100" y="20" on="1"/>
        <pt x="100" y="680" on="1"/>
        <pt x="100" y="688" on="0"/>
        <pt x="112" y="700" on="0"/>
        <pt x="120" y="700" on="1"/>
      </contour>
      <contour>
        <pt x="370" y="40" on="1"/>
        <pt x="462" y="40" on="0"/>
        <pt x="575" y="123" on="0"/>
        <pt x="628" y="264" on="0"/>
        <pt x="628" y="350" on="1"/>
        <pt x="628" y="411" on="0"/>
        <pt x="599" y="523" on="0"/>
        <pt x="537" y="610" on="0"/>
        <pt x="439" y="660" on="0"/>
        <pt x="370" y="660" on="1"/>
        <pt x="136" y="660" on="1"/>
        <pt x="142" y="668" on="1"/>
        <pt x="142" y="31" on="1"/>
        <pt x="136" y="40" on="1"/>
      </contour>
    </TTGlyph>
    <TTGlyph name="Dcaron" xMin="100" yMin="0" xMax="670" yMax="881">
      <component glyphName="D" x="0" y="0" flags="0x204"/>
      <component glyphName="uni030C.case" x="156" y="48" flags="0x4"/>
    </TTGlyph>
    <TTGlyph name="Dcroat" xMin="24" yMin="0" xMax="670" yMax="700">
      <component glyphName="D" x="0" y="0" flags="0x204"/>
      <component glyphName="uni0335" x="-26" y="87" flags="0x4"/>
    </TTGlyph>
    <TTGlyph name="E" xMin="100" yMin="0" xMax="517" yMax="700">
      <contour>
        <pt x="120" y="700" on="1"/>
        <pt x="497" y="700" on="1"/>
        <pt x="505" y="700" on="0"/>
        <pt x="517" y="688" on="0"/>
        <pt x="517" y="680" on="1"/>
        <pt x="517" y="671" on="0"/>
        <pt x="505" y="660" on="0"/>
        <pt x="497" y="660" on="1"/>
        <pt x="132" y="660" on="1"/>
        <pt x="142" y="677" on="1"/>
        <pt x="142" y="367" on="1"/>
        <pt x="130" y="381" on="1"/>
        <pt x="452" y="381" on="1"/>
        <pt x="460" y="381" on="0"/>
        <pt x="472" y="369" on="0"/>
        <pt x="472" y="361" on="1"/>
        <pt x="472" y="352" on="0"/>
        <pt x="460" y="341" on="0"/>
        <pt x="452" y="341" on="1"/>
        <pt x="132" y="341" on="1"/>
        <pt x="142" y="352" on="1"/>
        <pt x="142" y="35" on="1"/>
        <pt x="138" y="40" on="1"/>
        <pt x="497" y="40" on="1"/>
        <pt x="505" y="40" on="0"/>
        <pt x="517" y="28" on="0"/>
        <pt x="517" y="20" on="1"/>
        <pt x="517" y="11" on="0"/>
        <pt x="505" y="0" on="0"/>
        <pt x="497" y="0" on="1"/>
        <pt x="120" y="0" on="1"/>
        <pt x="112" y="0" on="0"/>
        <pt x="100" y="12" on="0"/>
        <pt x="100" y="20" on="1"/>
        <pt x="100" y="680" on="1"/>
        <pt x="100" y="688" on="0"/>
        <pt x="112" y="700" on="0"/>
      </contour>
    </TTGlyph>
    <TTGlyph name="Eacute" xMin="100" yMin="0" xMax="517" yMax="850">
      <component glyphName="E" x="0" y="0" flags="0x204"/>
      <component glyphName="acutecomb.case" x="251" y="40" flags="0x4"/>
    </TTGlyph>
    <TTGlyph name="Ebreve" xMin="100" yMin="0" xMax="517" yMax="905">
      <component glyphName="E" x="0" y="0" flags="0x204"/>
      <component glyphName="uni0306.case" x="141" y="0" flags="0x4"/>
    </TTGlyph>
    <TTGlyph name="Ecaron" xMin="100" yMin="0" xMax="517" yMax="881">
      <component glyphName="E" x="0" y="0" flags="0x204"/>
      <component glyphName="uni030C.case" x="165" y="48" flags="0x4"/>
    </TTGlyph>
    <TTGlyph name="Ecircumflex" xMin="100" yMin="0" xMax="517" yMax="890">
      <component glyphName="E" x="0" y="0" flags="0x204"/>
      <component glyphName="uni0302.case" x="165" y="90" flags="0x4"/>
    </TTGlyph>
    <TTGlyph name="Edieresis" xMin="100" yMin="0" xMax="517" yMax="860">
      <component glyphName="E" x="0" y="0" flags="0x204"/>
      <component glyphName="uni0308.case" x="156" y="0" flags="0x4"/>
    </TTGlyph>
    <TTGlyph name="Edotaccent" xMin="100" yMin="0" xMax="517" yMax="860">
      <component glyphName="E" x="0" y="0" flags="0x204"/>
      <component glyphName="uni0307.case" x="237" y="0" flags="0x4"/>
    </TTGlyph>
    <TTGlyph name="Egrave" xMin="100" yMin="0" xMax="517" yMax="850">
      <component glyphName="E" x="0" y="0" flags="0x204"/>
      <component glyphName="gravecomb.case" x="187" y="40" flags="0x4"/>
    </TTGlyph>
    <TTGlyph name="Emacron" xMin="100" yMin="0" xMax="517" yMax="838">
      <component glyphName="E" x="0" y="0" flags="0x204"/>
      <component glyphName="uni0304.case" x="122" y="49" flags="0x4"/>
    </TTGlyph>
    <TTGlyph name="Eng" xMin="100" yMin="-200" xMax="645" yMax="700">
      <contour>
        <pt x="470" y="-200" on="1"/>
        <pt x="460" y="-200" on="0"/>
        <pt x="448" y="-189" on="0"/>
        <pt x="448" y="-180" on="1"/>
        <pt x="448" y="-171" on="0"/>
        <pt x="460" y="-160" on="0"/>
        <pt x="469" y="-160" on="1"/>
        <pt x="527" y="-160" on="0"/>
        <pt x="585" y="-130" on="0"/>
        <pt x="605" y="-77" on="0"/>
        <pt x="605" y="-44" on="1"/>
        <pt x="606" y="37" on="1"/>
        <pt x="612" y="4" on="1"/>
        <pt x="139" y="623" on="1"/>
        <pt x="140" y="626" on="1"/>
        <pt x="140" y="20" on="1"/>
        <pt x="140" y="12" on="0"/>
        <pt x="128" y="0" on="0"/>
        <pt x="120" y="0" on="1"/>
        <pt x="111" y="0" on="0"/>
        <pt x="100" y="12" on="0"/>
        <pt x="100" y="20" on="1"/>
        <pt x="100" y="680" on="1"/>
        <pt x="100" y="690" on="0"/>
        <pt x="113" y="700" on="0"/>
        <pt x="121" y="700" on="1"/>
        <pt x="126" y="700" on="0"/>
        <pt x="136" y="693" on="0"/>
        <pt x="137" y="691" on="1"/>
        <pt x="611" y="71" on="1"/>
        <pt x="605" y="63" on="1"/>
        <pt x="605" y="676" on="1"/>
        <pt x="605" y="684" on="0"/>
        <pt x="617" y="696" on="0"/>
        <pt x="625" y="696" on="1"/>
        <pt x="634" y="696" on="0"/>
        <pt x="645" y="684" on="0"/>
        <pt x="645" y="676" on="1"/>
        <pt x="645" y="42" on="1"/>
        <pt x="645" y="-44" on="1"/>
        <pt x="645" y="-83" on="0"/>
        <pt x="616" y="-155" on="0"/>
        <pt x="541" y="-200" on="0"/>
      </contour>
    </TTGlyph>
    <TTGlyph name="Eogonek" xMin="100" yMin="-185" xMax="531" yMax="700">
      <contour>
        <pt x="459" y="-185" on="1"/>
        <pt x="426" y="-185" on="0"/>
        <pt x="371" y="-135" on="0"/>
        <pt x="371" y="-93" on="1"/>
        <pt x="371" y="-70" on="0"/>
        <pt x="386" y="-33" on="0"/>
        <pt x="411" y="-7" on="0"/>
        <pt x="441" y="12" on="0"/>
        <pt x="457" y="17" on="1"/>
        <pt x="465" y="0" on="1"/>
        <pt x="120" y="0" on="1"/>
        <pt x="112" y="0" on="0"/>
        <pt x="100" y="12" on="0"/>
        <pt x="100" y="20" on="1"/>
        <pt x="100" y="680" on="1"/>
        <pt x="100" y="688" on="0"/>
        <pt x="112" y="700" on="0"/>
        <pt x="120" y="700" on="1"/>
        <pt x="497" y="700" on="1"/>
        <pt x="505" y="700" on="0"/>
        <pt x="517" y="688" on="0"/>
        <pt x="517" y="680" on="1"/>
        <pt x="517" y="671" on="0"/>
        <pt x="505" y="660" on="0"/>
        <pt x="497" y="660" on="1"/>
        <pt x="132" y="660" on="1"/>
        <pt x="142" y="677" on="1"/>
        <pt x="142" y="367" on="1"/>
        <pt x="130" y="381" on="1"/>
        <pt x="452" y="381" on="1"/>
        <pt x="460" y="381" on="0"/>
        <pt x="472" y="369" on="0"/>
        <pt x="472" y="361" on="1"/>
        <pt x="472" y="352" on="0"/>
        <pt x="460" y="341" on="0"/>
        <pt x="452" y="341" on="1"/>
        <pt x="132" y="341" on="1"/>
        <pt x="142" y="352" on="1"/>
        <pt x="142" y="35" on="1"/>
        <pt x="138" y="40" on="1"/>
        <pt x="497" y="40" on="1"/>
        <pt x="505" y="40" on="0"/>
        <pt x="517" y="28" on="0"/>
        <pt x="517" y="20" on="1"/>
        <pt x="517" y="11" on="0"/>
        <pt x="504" y="0" on="0"/>
        <pt x="492" y="-1" on="1"/>
        <pt x="474" y="-2" on="0"/>
        <pt x="436" y="-25" on="0"/>
        <pt x="409" y="-62" on="0"/>
        <pt x="409" y="-85" on="1"/>
        <pt x="409" y="-115" on="0"/>
        <pt x="443" y="-148" on="0"/>
        <pt x="464" y="-148" on="1"/>
        <pt x="491" y="-148" on="0"/>
        <pt x="496" y="-137" on="1"/>
        <pt x="500" y="-130" on="0"/>
        <pt x="510" y="-122" on="0"/>
        <pt x="517" y="-122" on="1"/>
        <pt x="524" y="-122" on="0"/>
        <pt x="531" y="-131" on="0"/>
        <pt x="531" y="-136" on="1"/>
        <pt x="531" y="-149" on="0"/>
        <pt x="512" y="-172" on="0"/>
        <pt x="480" y="-185" on="0"/>
      </contour>
    </TTGlyph>
    <TTGlyph name="Eth" xMin="24" yMin="0" xMax="670" yMax="700">
      <component glyphName="D" x="0" y="0" flags="0x204"/>
      <component glyphName="uni0335" x="-26" y="87" flags="0x4"/>
    </TTGlyph>
    <TTGlyph name="Euro" xMin="25" yMin="-10" xMax="651" yMax="710">
      <contour>
        <pt x="46" y="246" on="1"/>
        <pt x="37" y="246" on="0"/>
        <pt x="25" y="257" on="0"/>
        <pt x="25" y="265" on="1"/>
        <pt x="25" y="274" on="0"/>
        <pt x="37" y="285" on="0"/>
        <pt x="46" y="285" on="1"/>
        <pt x="381" y="281" on="1"/>
        <pt x="390" y="281" on="0"/>
        <pt x="402" y="270" on="0"/>
        <pt x="402" y="261" on="1"/>
        <pt x="402" y="253" on="0"/>
        <pt x="390" y="242" on="0"/>
        <pt x="381" y="242" on="1"/>
      </contour>
      <contour>
        <pt x="46" y="376" on="1"/>
        <pt x="37" y="376" on="0"/>
        <pt x="25" y="387" on="0"/>
        <pt x="25" y="395" on="1"/>
        <pt x="25" y="404" on="0"/>
        <pt x="37" y="415" on="0"/>
        <pt x="46" y="415" on="1"/>
        <pt x="381" y="411" on="1"/>
        <pt x="390" y="411" on="0"/>
        <pt x="402" y="400" on="0"/>
        <pt x="402" y="391" on="1"/>
        <pt x="402" y="383" on="0"/>
        <pt x="390" y="372" on="0"/>
        <pt x="381" y="372" on="1"/>
      </contour>
      <contour>
        <pt x="442" y="-10" on="1"/>
        <pt x="374" y="-10" on="0"/>
        <pt x="254" y="44" on="0"/>
        <pt x="164" y="141" on="0"/>
        <pt x="113" y="272" on="0"/>
        <pt x="113" y="350" on="1"/>
        <pt x="113" y="428" on="0"/>
        <pt x="164" y="559" on="0"/>
        <pt x="254" y="656" on="0"/>
        <pt x="374" y="710" on="0"/>
        <pt x="442" y="710" on="1"/>
        <pt x="497" y="710" on="0"/>
        <pt x="601" y="674" on="0"/>
        <pt x="641" y="642" on="1"/>
        <pt x="649" y="636" on="0"/>
        <pt x="651" y="621" on="0"/>
        <pt x="646" y="613" on="1"/>
        <pt x="641" y="606" on="0"/>
        <pt x="626" y="605" on="0"/>
        <pt x="619" y="609" on="1"/>
        <pt x="582" y="638" on="0"/>
        <pt x="492" y="672" on="0"/>
        <pt x="442" y="672" on="1"/>
        <pt x="362" y="672" on="0"/>
        <pt x="231" y="590" on="0"/>
        <pt x="153" y="445" on="0"/>
        <pt x="153" y="350" on="1"/>
        <pt x="153" y="256" on="0"/>
        <pt x="231" y="110" on="0"/>
        <pt x="362" y="28" on="0"/>
        <pt x="442" y="28" on="1"/>
        <pt x="492" y="28" on="0"/>
        <pt x="581" y="62" on="0"/>
        <pt x="618" y="90" on="1"/>
        <pt x="625" y="95" on="0"/>
        <pt x="641" y="93" on="0"/>
        <pt x="646" y="86" on="1"/>
        <pt x="651" y="79" on="0"/>
        <pt x="649" y="63" on="0"/>
        <pt x="642" y="58" on="1"/>
        <pt x="620" y="41" on="0"/>
        <pt x="554" y="9" on="0"/>
        <pt x="479" y="-10" on="0"/>
      </contour>
    </TTGlyph>
    <TTGlyph name="F" xMin="100" yMin="0" xMax="517" yMax="700">
      <contour>
        <pt x="120" y="0" on="1"/>
        <pt x="111" y="0" on="0"/>
        <pt x="100" y="12" on="0"/>
        <pt x="100" y="20" on="1"/>
        <pt x="100" y="680" on="1"/>
        <pt x="100" y="688" on="0"/>
        <pt x="112" y="700" on="0"/>
        <pt x="120" y="700" on="1"/>
        <pt x="497" y="700" on="1"/>
        <pt x="505" y="700" on="0"/>
        <pt x="517" y="688" on="0"/>
        <pt x="517" y="680" on="1"/>
        <pt x="517" y="671" on="0"/>
        <pt x="505" y="660" on="0"/>
        <pt x="497" y="660" on="1"/>
        <pt x="137" y="660" on="1"/>
        <pt x="140" y="664" on="1"/>
        <pt x="140" y="376" on="1"/>
        <pt x="136" y="384" on="1"/>
        <pt x="452" y="384" on="1"/>
        <pt x="460" y="384" on="0"/>
        <pt x="472" y="372" on="0"/>
        <pt x="472" y="364" on="1"/>
        <pt x="472" y="355" on="0"/>
        <pt x="460" y="344" on="0"/>
        <pt x="452" y="344" on="1"/>
        <pt x="134" y="344" on="1"/>
        <pt x="140" y="352" on="1"/>
        <pt x="140" y="20" on="1"/>
        <pt x="140" y="12" on="0"/>
        <pt x="129" y="0" on="0"/>
      </contour>
    </TTGlyph>
    <TTGlyph name="G" xMin="50" yMin="-10" xMax="629" yMax="710">
      <contour>
        <pt x="409" y="-10" on="1"/>
        <pt x="331" y="-10" on="0"/>
        <pt x="200" y="43" on="0"/>
        <pt x="103" y="140" on="0"/>
        <pt x="50" y="272" on="0"/>
        <pt x="50" y="350" on="1"/>
        <pt x="50" y="428" on="0"/>
        <pt x="103" y="560" on="0"/>
        <pt x="200" y="657" on="0"/>
        <pt x="331" y="710" on="0"/>
        <pt x="409" y="710" on="1"/>
        <pt x="464" y="710" on="0"/>
        <pt x="566" y="683" on="0"/>
        <pt x="606" y="656" on="1"/>
        <pt x="611" y="653" on="0"/>
        <pt x="615" y="644" on="0"/>
        <pt x="615" y="639" on="1"/>
        <pt x="615" y="629" on="0"/>
        <pt x="601" y="619" on="0"/>
        <pt x="596" y="619" on="1"/>
        <pt x="592" y="619" on="0"/>
        <pt x="586" y="622" on="0"/>
        <pt x="583" y="623" on="1"/>
        <pt x="546" y="644" on="0"/>
        <pt x="458" y="670" on="0"/>
        <pt x="409" y="670" on="1"/>
        <pt x="316" y="670" on="0"/>
        <pt x="173" y="587" on="0"/>
        <pt x="92" y="443" on="0"/>
        <pt x="92" y="350" on="1"/>
        <pt x="92" y="257" on="0"/>
        <pt x="173" y="112" on="0"/>
        <pt x="316" y="30" on="0"/>
        <pt x="409" y="30" on="1"/>
        <pt x="459" y="30" on="0"/>
        <pt x="556" y="61" on="0"/>
        <pt x="593" y="86" on="1"/>
        <pt x="589" y="68" on="1"/>
        <pt x="589" y="318" on="1"/>
        <pt x="603" y="305" on="1"/>
        <pt x="409" y="305" on="1"/>
        <pt x="401" y="305" on="0"/>
        <pt x="389" y="317" on="0"/>
        <pt x="389" y="325" on="1"/>
        <pt x="389" y="334" on="0"/>
        <pt x="401" y="345" on="0"/>
        <pt x="409" y="345" on="1"/>
        <pt x="609" y="345" on="1"/>
        <pt x="618" y="345" on="0"/>
        <pt x="629" y="333" on="0"/>
        <pt x="629" y="325" on="1"/>
        <pt x="629" y="74" on="1"/>
        <pt x="629" y="70" on="0"/>
        <pt x="625" y="60" on="0"/>
        <pt x="620" y="56" on="1"/>
        <pt x="576" y="26" on="0"/>
        <pt x="467" y="-10" on="0"/>
      </contour>
    </TTGlyph>
    <TTGlyph name="Gbreve" xMin="50" yMin="-10" xMax="629" yMax="905">
      <component glyphName="G" x="0" y="0" flags="0x204"/>
      <component glyphName="uni0306.case" x="196" y="0" flags="0x4"/>
    </TTGlyph>
    <TTGlyph name="Gcaron" xMin="50" yMin="-10" xMax="629" yMax="881">
      <component glyphName="G" x="0" y="0" flags="0x204"/>
      <component glyphName="uni030C.case" x="220" y="48" flags="0x4"/>
    </TTGlyph>
    <TTGlyph name="Gcircumflex" xMin="50" yMin="-10" xMax="629" yMax="890">
      <component glyphName="G" x="0" y="0" flags="0x204"/>
      <component glyphName="uni0302.case" x="220" y="90" flags="0x4"/>
    </TTGlyph>
    <TTGlyph name="Gdotaccent" xMin="50" yMin="-10" xMax="629" yMax="860">
      <component glyphName="G" x="0" y="0" flags="0x204"/>
      <component glyphName="uni0307.case" x="292" y="0" flags="0x4"/>
    </TTGlyph>
    <TTGlyph name="H" xMin="100" yMin="0" xMax="620" yMax="700">
      <contour>
        <pt x="121" y="700" on="1"/>
        <pt x="130" y="700" on="0"/>
        <pt x="142" y="688" on="0"/>
        <pt x="142" y="679" on="1"/>
        <pt x="142" y="21" on="1"/>
        <pt x="141" y="12" on="0"/>
        <pt x="129" y="0" on="0"/>
        <pt x="121" y="0" on="1"/>
        <pt x="111" y="0" on="0"/>
        <pt x="100" y="12" on="0"/>
        <pt x="100" y="21" on="1"/>
        <pt x="100" y="679" on="1"/>
        <pt x="100" y="688" on="0"/>
        <pt x="112" y="700" on="0"/>
      </contour>
      <contour>
        <pt x="599" y="700" on="1"/>
        <pt x="608" y="700" on="0"/>
        <pt x="620" y="688" on="0"/>
        <pt x="620" y="679" on="1"/>
        <pt x="620" y="21" on="1"/>
        <pt x="619" y="12" on="0"/>
        <pt x="607" y="0" on="0"/>
        <pt x="599" y="0" on="1"/>
        <pt x="589" y="0" on="0"/>
        <pt x="578" y="12" on="0"/>
        <pt x="578" y="21" on="1"/>
        <pt x="578" y="679" on="1"/>
        <pt x="578" y="688" on="0"/>
        <pt x="590" y="700" on="0"/>
      </contour>
      <contour>
        <pt x="116" y="380" on="1"/>
        <pt x="601" y="380" on="1"/>
        <pt x="599" y="340" on="1"/>
        <pt x="110" y="340" on="1"/>
      </contour>
    </TTGlyph>
    <TTGlyph name="Hbar" xMin="100" yMin="0" xMax="741" yMax="700">
      <contour>
        <pt x="120" y="489" on="1"/>
        <pt x="112" y="489" on="0"/>
        <pt x="100" y="501" on="0"/>
        <pt x="100" y="509" on="1"/>
        <pt x="100" y="518" on="0"/>
        <pt x="112" y="529" on="0"/>
        <pt x="120" y="529" on="1"/>
        <pt x="721" y="529" on="1"/>
        <pt x="729" y="529" on="0"/>
        <pt x="741" y="517" on="0"/>
        <pt x="741" y="509" on="1"/>
        <pt x="741" y="500" on="0"/>
        <pt x="729" y="489" on="0"/>
        <pt x="721" y="489" on="1"/>
      </contour>
      <contour>
        <pt x="181" y="700" on="1"/>
        <pt x="190" y="700" on="0"/>
        <pt x="202" y="688" on="0"/>
        <pt x="202" y="679" on="1"/>
        <pt x="202" y="21" on="1"/>
        <pt x="201" y="12" on="0"/>
        <pt x="189" y="0" on="0"/>
        <pt x="181" y="0" on="1"/>
        <pt x="171" y="0" on="0"/>
        <pt x="160" y="12" on="0"/>
        <pt x="160" y="21" on="1"/>
        <pt x="160" y="679" on="1"/>
        <pt x="160" y="688" on="0"/>
        <pt x="172" y="700" on="0"/>
      </contour>
      <contour>
        <pt x="659" y="700" on="1"/>
        <pt x="668" y="700" on="0"/>
        <pt x="680" y="688" on="0"/>
        <pt x="680" y="679" on="1"/>
        <pt x="680" y="21" on="1"/>
        <pt x="679" y="12" on="0"/>
        <pt x="667" y="0" on="0"/>
        <pt x="659" y="0" on="1"/>
        <pt x="649" y="0" on="0"/>
        <pt x="638" y="12" on="0"/>
        <pt x="638" y="21" on="1"/>
        <pt x="638" y="679" on="1"/>
        <pt x="638" y="688" on="0"/>
        <pt x="650" y="700" on="0"/>
      </contour>
      <contour>
        <pt x="176" y="380" on="1"/>
        <pt x="661" y="380" on="1"/>
        <pt x="659" y="340" on="1"/>
        <pt x="170" y="340" on="1"/>
      </contour>
    </TTGlyph>
    <TTGlyph name="Hcircumflex" xMin="100" yMin="0" xMax="620" yMax="890">
      <component glyphName="H" x="0" y="0" flags="0x204"/>
      <component glyphName="uni0302.case" x="203" y="90" flags="0x4"/>
    </TTGlyph>
    <TTGlyph name="I" xMin="100" yMin="0" xMax="142" yMax="700">
      <contour>
        <pt x="142" y="21" on="1"/>
        <pt x="141" y="12" on="0"/>
        <pt x="129" y="0" on="0"/>
        <pt x="121" y="0" on="1"/>
        <pt x="111" y="0" on="0"/>
        <pt x="100" y="12" on="0"/>
        <pt x="100" y="21" on="1"/>
        <pt x="100" y="679" on="1"/>
        <pt x="100" y="688" on="0"/>
        <pt x="112" y="700" on="0"/>
        <pt x="121" y="700" on="1"/>
        <pt x="130" y="700" on="0"/>
        <pt x="142" y="688" on="0"/>
        <pt x="142" y="679" on="1"/>
      </contour>
    </TTGlyph>
    <TTGlyph name="IJ" xMin="100" yMin="-10" xMax="503" yMax="700">
      <contour>
        <pt x="158" y="251" on="1"/>
        <pt x="157" y="242" on="0"/>
        <pt x="145" y="230" on="0"/>
        <pt x="137" y="230" on="1"/>
        <pt x="127" y="230" on="0"/>
        <pt x="116" y="242" on="0"/>
        <pt x="116" y="251" on="1"/>
        <pt x="116" y="679" on="1"/>
        <pt x="116" y="688" on="0"/>
        <pt x="128" y="700" on="0"/>
        <pt x="137" y="700" on="1"/>
        <pt x="146" y="700" on="0"/>
        <pt x="158" y="688" on="0"/>
        <pt x="158" y="679" on="1"/>
      </contour>
      <contour>
        <pt x="292" y="-10" on="1"/>
        <pt x="227" y="-10" on="0"/>
        <pt x="127" y="68" on="0"/>
        <pt x="102" y="129" on="1"/>
        <pt x="100" y="135" on="0"/>
        <pt x="100" y="139" on="1"/>
        <pt x="100" y="148" on="0"/>
        <pt x="113" y="157" on="0"/>
        <pt x="120" y="157" on="1"/>
        <pt x="128" y="157" on="0"/>
        <pt x="136" y="150" on="0"/>
        <pt x="139" y="144" on="1"/>
        <pt x="158" y="94" on="0"/>
        <pt x="240" y="30" on="0"/>
        <pt x="292" y="30" on="1"/>
        <pt x="344" y="30" on="0"/>
        <pt x="419" y="72" on="0"/>
        <pt x="461" y="148" on="0"/>
        <pt x="461" y="199" on="1"/>
        <pt x="461" y="680" on="1"/>
        <pt x="461" y="688" on="0"/>
        <pt x="473" y="700" on="0"/>
        <pt x="483" y="700" on="1"/>
        <pt x="492" y="700" on="0"/>
        <pt x="503" y="688" on="0"/>
        <pt x="503" y="680" on="1"/>
        <pt x="503" y="199" on="1"/>
        <pt x="503" y="137" on="0"/>
        <pt x="450" y="42" on="0"/>
        <pt x="355" y="-10" on="0"/>
      </contour>
    </TTGlyph>
    <TTGlyph name="Iacute" xMin="100" yMin="0" xMax="257" yMax="850">
      <component glyphName="I" x="0" y="0" flags="0x204"/>
      <component glyphName="acutecomb.case" x="50" y="40" flags="0x4"/>
    </TTGlyph>
    <TTGlyph name="Ibreve" xMin="-11" yMin="0" xMax="253" yMax="905">
      <component glyphName="I" x="0" y="0" flags="0x204"/>
      <component glyphName="uni0306.case" x="-60" y="0" flags="0x4"/>
    </TTGlyph>
    <TTGlyph name="Icircumflex" xMin="4" yMin="0" xMax="236" yMax="890">
      <component glyphName="I" x="0" y="0" flags="0x204"/>
      <component glyphName="uni0302.case" x="-36" y="90" flags="0x4"/>
    </TTGlyph>
    <TTGlyph name="Idieresis" xMin="5" yMin="0" xMax="237" yMax="860">
      <component glyphName="I" x="0" y="0" flags="0x204"/>
      <component glyphName="uni0308.case" x="-45" y="0" flags="0x4"/>
    </TTGlyph>
    <TTGlyph name="Idotaccent" xMin="86" yMin="0" xMax="155" yMax="860">
      <component glyphName="I" x="0" y="0" flags="0x204"/>
      <component glyphName="uni0307.case" x="36" y="0" flags="0x4"/>
    </TTGlyph>
    <TTGlyph name="Igrave" xMin="-11" yMin="0" xMax="142" yMax="850">
      <component glyphName="I" x="0" y="0" flags="0x204"/>
      <component glyphName="gravecomb.case" x="-14" y="40" flags="0x4"/>
    </TTGlyph>
    <TTGlyph name="Imacron" xMin="-27" yMin="0" xMax="277" yMax="838">
      <component glyphName="I" x="0" y="0" flags="0x204"/>
      <component glyphName="uni0304.case" x="-79" y="49" flags="0x4"/>
    </TTGlyph>
    <TTGlyph name="Iogonek" xMin="15" yMin="-185" xMax="175" yMax="700">
      <contour>
        <pt x="103" y="-185" on="1"/>
        <pt x="70" y="-185" on="0"/>
        <pt x="15" y="-135" on="0"/>
        <pt x="15" y="-93" on="1"/>
        <pt x="15" y="-70" on="0"/>
        <pt x="29" y="-32" on="0"/>
        <pt x="53" y="-2" on="0"/>
        <pt x="83" y="18" on="0"/>
        <pt x="99" y="23" on="1"/>
        <pt x="104" y="19" on="1"/>
        <pt x="98" y="21" on="1"/>
        <pt x="98" y="679" on="1"/>
        <pt x="98" y="688" on="0"/>
        <pt x="110" y="700" on="0"/>
        <pt x="119" y="700" on="1"/>
        <pt x="128" y="700" on="0"/>
        <pt x="140" y="688" on="0"/>
        <pt x="140" y="679" on="1"/>
        <pt x="140" y="30" on="1"/>
        <pt x="140" y="20" on="0"/>
        <pt x="131" y="11" on="0"/>
        <pt x="120" y="6" on="1"/>
        <pt x="98" y="-3" on="0"/>
        <pt x="53" y="-50" on="0"/>
        <pt x="53" y="-85" on="1"/>
        <pt x="53" y="-115" on="0"/>
        <pt x="87" y="-148" on="0"/>
        <pt x="108" y="-148" on="1"/>
        <pt x="127" y="-148" on="0"/>
        <pt x="143" y="-135" on="0"/>
        <pt x="153" y="-122" on="0"/>
        <pt x="161" y="-122" on="1"/>
        <pt x="168" y="-122" on="0"/>
        <pt x="175" y="-131" on="0"/>
        <pt x="175" y="-136" on="1"/>
        <pt x="175" y="-149" on="0"/>
        <pt x="156" y="-172" on="0"/>
        <pt x="124" y="-185" on="0"/>
      </contour>
    </TTGlyph>
    <TTGlyph name="Itilde" xMin="-22" yMin="0" xMax="265" yMax="884">
      <component glyphName="I" x="0" y="0" flags="0x204"/>
      <component glyphName="tildecomb.case" x="-73" y="0" flags="0x4"/>
    </TTGlyph>
    <TTGlyph name="J" xMin="75" yMin="-10" xMax="478" yMax="700">
      <contour>
        <pt x="267" y="-10" on="1"/>
        <pt x="202" y="-10" on="0"/>
        <pt x="102" y="68" on="0"/>
        <pt x="77" y="129" on="1"/>
        <pt x="75" y="135" on="0"/>
        <pt x="75" y="139" on="1"/>
        <pt x="75" y="148" on="0"/>
        <pt x="88" y="157" on="0"/>
        <pt x="95" y="157" on="1"/>
        <pt x="103" y="157" on="0"/>
        <pt x="111" y="150" on="0"/>
        <pt x="114" y="144" on="1"/>
        <pt x="133" y="94" on="0"/>
        <pt x="215" y="30" on="0"/>
        <pt x="267" y="30" on="1"/>
        <pt x="319" y="30" on="0"/>
        <pt x="394" y="72" on="0"/>
        <pt x="436" y="148" on="0"/>
        <pt x="436" y="199" on="1"/>
        <pt x="436" y="680" on="1"/>
        <pt x="436" y="688" on="0"/>
        <pt x="448" y="700" on="0"/>
        <pt x="458" y="700" on="1"/>
        <pt x="467" y="700" on="0"/>
        <pt x="478" y="688" on="0"/>
        <pt x="478" y="680" on="1"/>
        <pt x="478" y="199" on="1"/>
        <pt x="478" y="137" on="0"/>
        <pt x="425" y="42" on="0"/>
        <pt x="330" y="-10" on="0"/>
      </contour>
    </TTGlyph>
    <TTGlyph name="Jcircumflex" xMin="75" yMin="-10" xMax="573" yMax="890">
      <component glyphName="J" x="0" y="0" flags="0x204"/>
      <component glyphName="uni0302.case" x="301" y="90" flags="0x4"/>
    </TTGlyph>
    <TTGlyph name="K" xMin="100" yMin="-5" xMax="629" yMax="700">
      <contour>
        <pt x="606" y="-5" on="1"/>
        <pt x="598" y="-5" on="0"/>
        <pt x="592" y="2" on="1"/>
        <pt x="290" y="376" on="1"/>
        <pt x="322" y="408" on="1"/>
        <pt x="624" y="30" on="1"/>
        <pt x="629" y="23" on="0"/>
        <pt x="629" y="16" on="1"/>
        <pt x="629" y="4" on="0"/>
        <pt x="612" y="-5" on="0"/>
      </contour>
      <contour>
        <pt x="588" y="696" on="1"/>
        <pt x="596" y="696" on="0"/>
        <pt x="608" y="684" on="0"/>
        <pt x="608" y="676" on="1"/>
        <pt x="608" y="668" on="0"/>
        <pt x="602" y="662" on="1"/>
        <pt x="136" y="228" on="1"/>
        <pt x="127" y="271" on="1"/>
        <pt x="574" y="690" on="1"/>
        <pt x="580" y="696" on="0"/>
      </contour>
      <contour>
        <pt x="121" y="0" on="1"/>
        <pt x="111" y="0" on="0"/>
        <pt x="100" y="12" on="0"/>
        <pt x="100" y="21" on="1"/>
        <pt x="100" y="679" on="1"/>
        <pt x="100" y="688" on="0"/>
        <pt x="112" y="700" on="0"/>
        <pt x="121" y="700" on="1"/>
        <pt x="130" y="700" on="0"/>
        <pt x="142" y="688" on="0"/>
        <pt x="142" y="679" on="1"/>
        <pt x="142" y="21" on="1"/>
        <pt x="141" y="12" on="0"/>
        <pt x="129" y="0" on="0"/>
      </contour>
    </TTGlyph>
    <TTGlyph name="L" xMin="100" yMin="0" xMax="507" yMax="700">
      <contour>
        <pt x="487" y="40" on="1"/>
        <pt x="495" y="40" on="0"/>
        <pt x="507" y="28" on="0"/>
        <pt x="507" y="20" on="1"/>
        <pt x="507" y="11" on="0"/>
        <pt x="495" y="0" on="0"/>
        <pt x="487" y="0" on="1"/>
        <pt x="120" y="0" on="1"/>
        <pt x="111" y="0" on="0"/>
        <pt x="100" y="12" on="0"/>
        <pt x="100" y="20" on="1"/>
        <pt x="100" y="680" on="1"/>
        <pt x="100" y="688" on="0"/>
        <pt x="112" y="700" on="0"/>
        <pt x="121" y="700" on="1"/>
        <pt x="130" y="700" on="0"/>
        <pt x="142" y="688" on="0"/>
        <pt x="142" y="680" on="1"/>
        <pt x="142" y="22" on="1"/>
        <pt x="124" y="40" on="1"/>
      </contour>
    </TTGlyph>
    <TTGlyph name="Lacute" xMin="100" yMin="0" xMax="507" yMax="850">
      <component glyphName="L" x="0" y="0" flags="0x204"/>
      <component glyphName="acutecomb.case" x="40" y="40" flags="0x4"/>
    </TTGlyph>
    <TTGlyph name="Lcaron" xMin="100" yMin="0" xMax="507" yMax="746">
      <component glyphName="L" x="0" y="0" flags="0x204"/>
      <component glyphName="uni030C.alt" x="249" y="0" flags="0x4"/>
    </TTGlyph>
    <TTGlyph name="Ldot" xMin="100" yMin="0" xMax="507" yMax="700">
      <component glyphName="L" x="0" y="0" flags="0x4"/>
      <component glyphName="periodcentered" x="301" y="80" flags="0x4"/>
    </TTGlyph>
    <TTGlyph name="Lslash" xMin="50" yMin="0" xMax="546" yMax="700">
      <contour>
        <pt x="68" y="348" on="1"/>
        <pt x="59" y="348" on="0"/>
        <pt x="50" y="359" on="0"/>
        <pt x="50" y="367" on="1"/>
        <pt x="50" y="380" on="0"/>
        <pt x="62" y="386" on="1"/>
        <pt x="262" y="474" on="1"/>
        <pt x="268" y="477" on="0"/>
        <pt x="273" y="477" on="1"/>
        <pt x="284" y="477" on="0"/>
        <pt x="291" y="462" on="0"/>
        <pt x="291" y="457" on="1"/>
        <pt x="291" y="444" on="0"/>
        <pt x="278" y="438" on="1"/>
        <pt x="78" y="350" on="1"/>
        <pt x="76" y="349" on="0"/>
        <pt x="70" y="348" on="0"/>
      </contour>
      <contour>
        <pt x="179" y="32" on="1"/>
        <pt x="172" y="40" on="1"/>
        <pt x="526" y="40" on="1"/>
        <pt x="534" y="40" on="0"/>
        <pt x="546" y="28" on="0"/>
        <pt x="546" y="20" on="1"/>
        <pt x="546" y="11" on="0"/>
        <pt x="534" y="0" on="0"/>
        <pt x="526" y="0" on="1"/>
        <pt x="159" y="0" on="1"/>
        <pt x="150" y="0" on="0"/>
        <pt x="139" y="12" on="0"/>
        <pt x="139" y="20" on="1"/>
        <pt x="139" y="680" on="1"/>
        <pt x="139" y="688" on="0"/>
        <pt x="151" y="700" on="0"/>
        <pt x="159" y="700" on="1"/>
        <pt x="168" y="700" on="0"/>
        <pt x="179" y="688" on="0"/>
        <pt x="179" y="680" on="1"/>
      </contour>
    </TTGlyph>
    <TTGlyph name="M" xMin="100" yMin="0" xMax="729" yMax="702">
      <contour>
        <pt x="119" y="700" on="1"/>
        <pt x="124" y="700" on="0"/>
        <pt x="134" y="696" on="0"/>
        <pt x="138" y="691" on="1"/>
        <pt x="425" y="264" on="1"/>
        <pt x="405" y="264" on="1"/>
        <pt x="692" y="691" on="1"/>
        <pt x="700" y="702" on="0"/>
        <pt x="711" y="700" on="1"/>
        <pt x="719" y="699" on="0"/>
        <pt x="729" y="688" on="0"/>
        <pt x="729" y="680" on="1"/>
        <pt x="729" y="20" on="1"/>
        <pt x="729" y="12" on="0"/>
        <pt x="716" y="0" on="0"/>
        <pt x="708" y="0" on="1"/>
        <pt x="699" y="0" on="0"/>
        <pt x="687" y="12" on="0"/>
        <pt x="687" y="20" on="1"/>
        <pt x="687" y="635" on="1"/>
        <pt x="698" y="635" on="1"/>
        <pt x="429" y="228" on="1"/>
        <pt x="427" y="224" on="0"/>
        <pt x="420" y="220" on="0"/>
        <pt x="415" y="220" on="1"/>
        <pt x="410" y="220" on="0"/>
        <pt x="401" y="224" on="0"/>
        <pt x="399" y="228" on="1"/>
        <pt x="124" y="643" on="1"/>
        <pt x="140" y="643" on="1"/>
        <pt x="140" y="20" on="1"/>
        <pt x="140" y="12" on="0"/>
        <pt x="128" y="0" on="0"/>
        <pt x="120" y="0" on="1"/>
        <pt x="111" y="0" on="0"/>
        <pt x="100" y="12" on="0"/>
        <pt x="100" y="20" on="1"/>
        <pt x="100" y="680" on="1"/>
        <pt x="100" y="687" on="0"/>
        <pt x="110" y="700" on="0"/>
      </contour>
    </TTGlyph>
    <TTGlyph name="N" xMin="100" yMin="0" xMax="625" yMax="700">
      <contour>
        <pt x="606" y="700" on="1"/>
        <pt x="615" y="700" on="0"/>
        <pt x="625" y="689" on="0"/>
        <pt x="625" y="681" on="1"/>
        <pt x="625" y="22" on="1"/>
        <pt x="625" y="11" on="0"/>
        <pt x="612" y="0" on="0"/>
        <pt x="604" y="0" on="1"/>
        <pt x="600" y="0" on="0"/>
        <pt x="591" y="4" on="0"/>
        <pt x="588" y="8" on="1"/>
        <pt x="124" y="642" on="1"/>
        <pt x="138" y="649" on="1"/>
        <pt x="138" y="17" on="1"/>
        <pt x="138" y="10" on="0"/>
        <pt x="127" y="0" on="0"/>
        <pt x="119" y="0" on="1"/>
        <pt x="110" y="0" on="0"/>
        <pt x="100" y="10" on="0"/>
        <pt x="100" y="17" on="1"/>
        <pt x="100" y="680" on="1"/>
        <pt x="100" y="691" on="0"/>
        <pt x="112" y="700" on="0"/>
        <pt x="118" y="700" on="1"/>
        <pt x="122" y="700" on="0"/>
        <pt x="130" y="697" on="0"/>
        <pt x="133" y="693" on="1"/>
        <pt x="595" y="63" on="1"/>
        <pt x="587" y="43" on="1"/>
        <pt x="587" y="681" on="1"/>
        <pt x="587" y="689" on="0"/>
        <pt x="599" y="700" on="0"/>
      </contour>
    </TTGlyph>
    <TTGlyph name="Nacute" xMin="100" yMin="0" xMax="625" yMax="850">
      <component glyphName="N" x="0" y="0" flags="0x204"/>
      <component glyphName="acutecomb.case" x="292" y="40" flags="0x4"/>
    </TTGlyph>
    <TTGlyph name="Ncaron" xMin="100" yMin="0" xMax="625" yMax="881">
      <component glyphName="N" x="0" y="0" flags="0x204"/>
      <component glyphName="uni030C.case" x="206" y="48" flags="0x4"/>
    </TTGlyph>
    <TTGlyph name="Ntilde" xMin="100" yMin="0" xMax="625" yMax="884">
      <component glyphName="N" x="0" y="0" flags="0x204"/>
      <component glyphName="tildecomb.case" x="169" y="0" flags="0x4"/>
    </TTGlyph>
    <TTGlyph name="O" xMin="50" yMin="-10" xMax="718" yMax="710">
      <contour>
        <pt x="718" y="350" on="1"/>
        <pt x="718" y="270" on="0"/>
        <pt x="669" y="138" on="0"/>
        <pt x="579" y="42" on="0"/>
        <pt x="457" y="-10" on="0"/>
        <pt x="384" y="-10" on="1"/>
        <pt x="311" y="-10" on="0"/>
        <pt x="189" y="42" on="0"/>
        <pt x="99" y="138" on="0"/>
        <pt x="50" y="270" on="0"/>
        <pt x="50" y="350" on="1"/>
        <pt x="50" y="430" on="0"/>
        <pt x="99" y="562" on="0"/>
        <pt x="189" y="658" on="0"/>
        <pt x="311" y="710" on="0"/>
        <pt x="384" y="710" on="1"/>
        <pt x="457" y="710" on="0"/>
        <pt x="579" y="658" on="0"/>
        <pt x="669" y="562" on="0"/>
        <pt x="718" y="430" on="0"/>
      </contour>
      <contour>
        <pt x="676" y="350" on="1"/>
        <pt x="676" y="446" on="0"/>
        <pt x="601" y="590" on="0"/>
        <pt x="470" y="670" on="0"/>
        <pt x="384" y="670" on="1"/>
        <pt x="299" y="670" on="0"/>
        <pt x="167" y="590" on="0"/>
        <pt x="92" y="446" on="0"/>
        <pt x="92" y="350" on="1"/>
        <pt x="92" y="254" on="0"/>
        <pt x="167" y="110" on="0"/>
        <pt x="299" y="30" on="0"/>
        <pt x="384" y="30" on="1"/>
        <pt x="470" y="30" on="0"/>
        <pt x="601" y="110" on="0"/>
        <pt x="676" y="254" on="0"/>
      </contour>
    </TTGlyph>
    <TTGlyph name="OE" xMin="50" yMin="0" xMax="948" yMax="700">
      <contour>
        <pt x="928" y="40" on="1"/>
        <pt x="936" y="40" on="0"/>
        <pt x="948" y="28" on="0"/>
        <pt x="948" y="20" on="1"/>
        <pt x="948" y="11" on="0"/>
        <pt x="936" y="0" on="0"/>
        <pt x="928" y="0" on="1"/>
        <pt x="340" y="0" on="1"/>
        <pt x="240" y="0" on="0"/>
        <pt x="111" y="95" on="0"/>
        <pt x="50" y="254" on="0"/>
        <pt x="50" y="350" on="1"/>
        <pt x="50" y="418" on="0"/>
        <pt x="84" y="544" on="0"/>
        <pt x="155" y="643" on="0"/>
        <pt x="265" y="700" on="0"/>
        <pt x="340" y="700" on="1"/>
        <pt x="928" y="700" on="1"/>
        <pt x="936" y="700" on="0"/>
        <pt x="948" y="688" on="0"/>
        <pt x="948" y="680" on="1"/>
        <pt x="948" y="671" on="0"/>
        <pt x="936" y="660" on="0"/>
        <pt x="928" y="660" on="1"/>
        <pt x="576" y="660" on="1"/>
        <pt x="581" y="664" on="1"/>
        <pt x="581" y="375" on="1"/>
        <pt x="575" y="386" on="1"/>
        <pt x="883" y="386" on="1"/>
        <pt x="891" y="386" on="0"/>
        <pt x="903" y="374" on="0"/>
        <pt x="903" y="366" on="1"/>
        <pt x="903" y="357" on="0"/>
        <pt x="891" y="346" on="0"/>
        <pt x="883" y="346" on="1"/>
        <pt x="575" y="346" on="1"/>
        <pt x="581" y="352" on="1"/>
        <pt x="581" y="33" on="1"/>
        <pt x="575" y="40" on="1"/>
      </contour>
      <contour>
        <pt x="547" y="40" on="1"/>
        <pt x="540" y="30" on="1"/>
        <pt x="540" y="666" on="1"/>
        <pt x="544" y="660" on="1"/>
        <pt x="350" y="660" on="1"/>
        <pt x="281" y="660" on="0"/>
        <pt x="183" y="610" on="0"/>
        <pt x="120" y="523" on="0"/>
        <pt x="90" y="411" on="0"/>
        <pt x="90" y="350" on="1"/>
        <pt x="90" y="264" on="0"/>
        <pt x="144" y="123" on="0"/>
        <pt x="259" y="40" on="0"/>
        <pt x="350" y="40" on="1"/>
      </contour>
    </TTGlyph>
    <TTGlyph name="Oacute" xMin="50" yMin="-10" xMax="718" yMax="850">
      <component glyphName="O" x="0" y="0" flags="0x204"/>
      <component glyphName="acutecomb.case" x="313" y="40" flags="0x4"/>
    </TTGlyph>
    <TTGlyph name="Obreve" xMin="50" yMin="-10" xMax="718" yMax="905">
      <component glyphName="O" x="0" y="0" flags="0x204"/>
      <component glyphName="uni0306.case" x="203" y="0" flags="0x4"/>
    </TTGlyph>
    <TTGlyph name="Ocircumflex" xMin="50" yMin="-10" xMax="718" yMax="890">
      <component glyphName="O" x="0" y="0" flags="0x204"/>
      <component glyphName="uni0302.case" x="227" y="90" flags="0x4"/>
    </TTGlyph>
    <TTGlyph name="Odieresis" xMin="50" yMin="-10" xMax="718" yMax="860">
      <component glyphName="O" x="0" y="0" flags="0x204"/>
      <component glyphName="uni0308.case" x="218" y="0" flags="0x4"/>
    </TTGlyph>
    <TTGlyph name="Ograve" xMin="50" yMin="-10" xMax="718" yMax="850">
      <component glyphName="O" x="0" y="0" flags="0x204"/>
      <component glyphName="gravecomb.case" x="249" y="40" flags="0x4"/>
    </TTGlyph>
    <TTGlyph name="Ohorn" xMin="50" yMin="-10" xMax="718" yMax="812">
      <component glyphName="O" x="0" y="0" flags="0x204"/>
      <component glyphName="uni031B.case" x="391" y="198" flags="0x4"/>
    </TTGlyph>
    <TTGlyph name="Ohungarumlaut" xMin="50" yMin="-10" xMax="718" yMax="867">
      <component glyphName="O" x="0" y="0" flags="0x204"/>
      <component glyphName="uni030B.case" x="196" y="70" flags="0x4"/>
    </TTGlyph>
    <TTGlyph name="Omacron" xMin="50" yMin="-10" xMax="718" yMax="838">
      <component glyphName="O" x="0" y="0" flags="0x204"/>
      <component glyphName="uni0304.case" x="184" y="49" flags="0x4"/>
    </TTGlyph>
    <TTGlyph name="Oslash" xMin="50" yMin="-20" xMax="718" yMax="718">
      <contour>
        <pt x="89" y="-20" on="1"/>
        <pt x="82" y="-20" on="0"/>
        <pt x="72" y="-10" on="0"/>
        <pt x="72" y="-3" on="1"/>
        <pt x="72" y="3" on="0"/>
        <pt x="77" y="10" on="1"/>
        <pt x="657" y="707" on="1"/>
        <pt x="663" y="715" on="0"/>
        <pt x="672" y="718" on="0"/>
        <pt x="679" y="718" on="1"/>
        <pt x="685" y="718" on="0"/>
        <pt x="696" y="710" on="0"/>
        <pt x="696" y="702" on="1"/>
        <pt x="696" y="694" on="0"/>
        <pt x="690" y="687" on="1"/>
        <pt x="114" y="-4" on="1"/>
        <pt x="110" y="-10" on="0"/>
        <pt x="99" y="-20" on="0"/>
      </contour>
      <contour>
        <pt x="718" y="350" on="1"/>
        <pt x="718" y="270" on="0"/>
        <pt x="669" y="138" on="0"/>
        <pt x="579" y="42" on="0"/>
        <pt x="457" y="-10" on="0"/>
        <pt x="384" y="-10" on="1"/>
        <pt x="311" y="-10" on="0"/>
        <pt x="189" y="42" on="0"/>
        <pt x="99" y="138" on="0"/>
        <pt x="50" y="270" on="0"/>
        <pt x="50" y="350" on="1"/>
        <pt x="50" y="430" on="0"/>
        <pt x="99" y="562" on="0"/>
        <pt x="189" y="658" on="0"/>
        <pt x="311" y="710" on="0"/>
        <pt x="384" y="710" on="1"/>
        <pt x="457" y="710" on="0"/>
        <pt x="579" y="658" on="0"/>
        <pt x="669" y="562" on="0"/>
        <pt x="718" y="430" on="0"/>
      </contour>
      <contour>
        <pt x="676" y="350" on="1"/>
        <pt x="676" y="446" on="0"/>
        <pt x="601" y="590" on="0"/>
        <pt x="470" y="670" on="0"/>
        <pt x="384" y="670" on="1"/>
        <pt x="299" y="670" on="0"/>
        <pt x="167" y="590" on="0"/>
        <pt x="92" y="446" on="0"/>
        <pt x="92" y="350" on="1"/>
        <pt x="92" y="254" on="0"/>
        <pt x="167" y="110" on="0"/>
        <pt x="299" y="30" on="0"/>
        <pt x="384" y="30" on="1"/>
        <pt x="470" y="30" on="0"/>
        <pt x="601" y="110" on="0"/>
        <pt x="676" y="254" on="0"/>
      </contour>
    </TTGlyph>
    <TTGlyph name="Oslashacute" xMin="50" yMin="-20" xMax="718" yMax="850">
      <component glyphName="Oslash" x="0" y="0" flags="0x204"/>
      <component glyphName="acutecomb.case" x="290" y="40" flags="0x4"/>
    </TTGlyph>
    <TTGlyph name="Otilde" xMin="50" yMin="-10" xMax="718" yMax="884">
      <component glyphName="O" x="0" y="0" flags="0x204"/>
      <component glyphName="tildecomb.case" x="190" y="0" flags="0x4"/>
    </TTGlyph>
    <TTGlyph name="P" xMin="100" yMin="0" xMax="549" yMax="700">
      <contour>
        <pt x="360" y="700" on="1"/>
        <pt x="417" y="700" on="0"/>
        <pt x="502" y="652" on="0"/>
        <pt x="549" y="566" on="0"/>
        <pt x="549" y="509" on="1"/>
        <pt x="549" y="453" on="0"/>
        <pt x="502" y="363" on="0"/>
        <pt x="417" y="311" on="0"/>
        <pt x="360" y="311" on="1"/>
        <pt x="138" y="311" on="1"/>
        <pt x="142" y="318" on="1"/>
        <pt x="142" y="20" on="1"/>
        <pt x="142" y="12" on="0"/>
        <pt x="129" y="0" on="0"/>
        <pt x="121" y="0" on="1"/>
        <pt x="111" y="0" on="0"/>
        <pt x="100" y="12" on="0"/>
        <pt x="100" y="20" on="1"/>
        <pt x="100" y="680" on="1"/>
        <pt x="100" y="688" on="0"/>
        <pt x="112" y="700" on="0"/>
        <pt x="120" y="700" on="1"/>
      </contour>
      <contour>
        <pt x="360" y="351" on="1"/>
        <pt x="406" y="351" on="0"/>
        <pt x="471" y="392" on="0"/>
        <pt x="507" y="464" on="0"/>
        <pt x="507" y="509" on="1"/>
        <pt x="507" y="555" on="0"/>
        <pt x="471" y="622" on="0"/>
        <pt x="406" y="660" on="0"/>
        <pt x="360" y="660" on="1"/>
        <pt x="139" y="660" on="1"/>
        <pt x="142" y="665" on="1"/>
        <pt x="142" y="348" on="1"/>
        <pt x="138" y="351" on="1"/>
      </contour>
    </TTGlyph>
    <TTGlyph name="Q" xMin="50" yMin="-165" xMax="797" yMax="710">
      <contour>
        <pt x="780" y="-65" on="1"/>
        <pt x="788" y="-65" on="0"/>
        <pt x="797" y="-74" on="0"/>
        <pt x="797" y="-82" on="1"/>
        <pt x="797" y="-97" on="0"/>
        <pt x="764" y="-126" on="0"/>
        <pt x="710" y="-151" on="0"/>
        <pt x="649" y="-165" on="0"/>
        <pt x="621" y="-165" on="1"/>
        <pt x="562" y="-165" on="0"/>
        <pt x="481" y="-138" on="0"/>
        <pt x="416" y="-103" on="0"/>
        <pt x="348" y="-76" on="0"/>
        <pt x="301" y="-76" on="1"/>
        <pt x="283" y="-76" on="0"/>
        <pt x="254" y="-87" on="0"/>
        <pt x="233" y="-98" on="0"/>
        <pt x="224" y="-98" on="1"/>
        <pt x="216" y="-98" on="0"/>
        <pt x="204" y="-86" on="0"/>
        <pt x="204" y="-77" on="1"/>
        <pt x="204" y="-65" on="0"/>
        <pt x="215" y="-60" on="1"/>
        <pt x="376" y="-4" on="1"/>
        <pt x="468" y="0" on="1"/>
        <pt x="321" y="-48" on="1"/>
        <pt x="320" y="-40" on="1"/>
        <pt x="364" y="-40" on="0"/>
        <pt x="434" y="-66" on="0"/>
        <pt x="499" y="-101" on="0"/>
        <pt x="573" y="-127" on="0"/>
        <pt x="621" y="-127" on="1"/>
        <pt x="664" y="-127" on="0"/>
        <pt x="720" y="-103" on="0"/>
        <pt x="736" y="-94" on="1"/>
        <pt x="750" y="-86" on="0"/>
        <pt x="769" y="-65" on="0"/>
      </contour>
      <contour>
        <pt x="718" y="350" on="1"/>
        <pt x="718" y="270" on="0"/>
        <pt x="669" y="138" on="0"/>
        <pt x="579" y="42" on="0"/>
        <pt x="457" y="-10" on="0"/>
        <pt x="384" y="-10" on="1"/>
        <pt x="311" y="-10" on="0"/>
        <pt x="189" y="42" on="0"/>
        <pt x="99" y="138" on="0"/>
        <pt x="50" y="270" on="0"/>
        <pt x="50" y="350" on="1"/>
        <pt x="50" y="430" on="0"/>
        <pt x="99" y="562" on="0"/>
        <pt x="189" y="658" on="0"/>
        <pt x="311" y="710" on="0"/>
        <pt x="384" y="710" on="1"/>
        <pt x="457" y="710" on="0"/>
        <pt x="579" y="658" on="0"/>
        <pt x="669" y="562" on="0"/>
        <pt x="718" y="430" on="0"/>
      </contour>
      <contour>
        <pt x="676" y="350" on="1"/>
        <pt x="676" y="446" on="0"/>
        <pt x="601" y="590" on="0"/>
        <pt x="470" y="670" on="0"/>
        <pt x="384" y="670" on="1"/>
        <pt x="299" y="670" on="0"/>
        <pt x="167" y="590" on="0"/>
        <pt x="92" y="446" on="0"/>
        <pt x="92" y="350" on="1"/>
        <pt x="92" y="254" on="0"/>
        <pt x="167" y="110" on="0"/>
        <pt x="299" y="30" on="0"/>
        <pt x="384" y="30" on="1"/>
        <pt x="470" y="30" on="0"/>
        <pt x="601" y="110" on="0"/>
        <pt x="676" y="254" on="0"/>
      </contour>
    </TTGlyph>
    <TTGlyph name="R" xMin="100" yMin="0" xMax="610" yMax="700">
      <contour>
        <pt x="121" y="0" on="1"/>
        <pt x="111" y="0" on="0"/>
        <pt x="100" y="12" on="0"/>
        <pt x="100" y="20" on="1"/>
        <pt x="100" y="680" on="1"/>
        <pt x="100" y="688" on="0"/>
        <pt x="112" y="700" on="0"/>
        <pt x="120" y="700" on="1"/>
        <pt x="384" y="700" on="1"/>
        <pt x="443" y="700" on="0"/>
        <pt x="532" y="653" on="0"/>
        <pt x="582" y="571" on="0"/>
        <pt x="582" y="519" on="1"/>
        <pt x="582" y="473" on="0"/>
        <pt x="549" y="399" on="0"/>
        <pt x="490" y="350" on="0"/>
        <pt x="452" y="339" on="1"/>
        <pt x="406" y="347" on="1"/>
        <pt x="446" y="347" on="0"/>
        <pt x="518" y="306" on="0"/>
        <pt x="564" y="227" on="0"/>
        <pt x="564" y="170" on="1"/>
        <pt x="564" y="121" on="0"/>
        <pt x="573" y="70" on="0"/>
        <pt x="588" y="46" on="0"/>
        <pt x="598" y="39" on="1"/>
        <pt x="604" y="35" on="0"/>
        <pt x="610" y="23" on="0"/>
        <pt x="608" y="15" on="1"/>
        <pt x="606" y="9" on="0"/>
        <pt x="597" y="2" on="0"/>
        <pt x="587" y="0" on="0"/>
        <pt x="581" y="3" on="1"/>
        <pt x="567" y="11" on="0"/>
        <pt x="540" y="43" on="0"/>
        <pt x="522" y="109" on="0"/>
        <pt x="522" y="170" on="1"/>
        <pt x="522" y="217" on="0"/>
        <pt x="493" y="273" on="0"/>
        <pt x="448" y="303" on="0"/>
        <pt x="397" y="313" on="0"/>
        <pt x="376" y="313" on="1"/>
        <pt x="133" y="313" on="1"/>
        <pt x="142" y="325" on="1"/>
        <pt x="142" y="20" on="1"/>
        <pt x="142" y="12" on="0"/>
        <pt x="130" y="0" on="0"/>
      </contour>
      <contour>
        <pt x="132" y="353" on="1"/>
        <pt x="389" y="353" on="1"/>
        <pt x="429" y="357" on="0"/>
        <pt x="497" y="397" on="0"/>
        <pt x="540" y="469" on="0"/>
        <pt x="540" y="518" on="1"/>
        <pt x="540" y="579" on="0"/>
        <pt x="453" y="660" on="0"/>
        <pt x="379" y="660" on="1"/>
        <pt x="137" y="660" on="1"/>
        <pt x="142" y="667" on="1"/>
        <pt x="142" y="342" on="1"/>
      </contour>
    </TTGlyph>
    <TTGlyph name="Racute" xMin="100" yMin="0" xMax="610" yMax="850">
      <component glyphName="R" x="0" y="0" flags="0x204"/>
      <component glyphName="acutecomb.case" x="256" y="40" flags="0x4"/>
    </TTGlyph>
    <TTGlyph name="Rcaron" xMin="100" yMin="0" xMax="610" yMax="881">
      <component glyphName="R" x="0" y="0" flags="0x204"/>
      <component glyphName="uni030C.case" x="170" y="48" flags="0x4"/>
    </TTGlyph>
    <TTGlyph name="S" xMin="35" yMin="-11" xMax="499" yMax="710">
      <contour>
        <pt x="283" y="-10" on="1"/>
        <pt x="205" y="-11" on="0"/>
        <pt x="93" y="43" on="0"/>
        <pt x="41" y="95" on="1"/>
        <pt x="39" y="97" on="0"/>
        <pt x="35" y="104" on="0"/>
        <pt x="35" y="110" on="1"/>
        <pt x="35" y="118" on="0"/>
        <pt x="49" y="133" on="0"/>
        <pt x="57" y="133" on="1"/>
        <pt x="66" y="133" on="0"/>
        <pt x="74" y="124" on="1"/>
        <pt x="114" y="78" on="0"/>
        <pt x="221" y="30" on="0"/>
        <pt x="279" y="30" on="1"/>
        <pt x="330" y="30" on="0"/>
        <pt x="410" y="63" on="0"/>
        <pt x="456" y="124" on="0"/>
        <pt x="456" y="165" on="1"/>
        <pt x="455" y="216" on="0"/>
        <pt x="401" y="278" on="0"/>
        <pt x="316" y="318" on="0"/>
        <pt x="269" y="335" on="1"/>
        <pt x="232" y="349" on="0"/>
        <pt x="160" y="379" on="0"/>
        <pt x="102" y="422" on="0"/>
        <pt x="68" y="487" on="0"/>
        <pt x="68" y="535" on="1"/>
        <pt x="68" y="584" on="0"/>
        <pt x="121" y="663" on="0"/>
        <pt x="220" y="710" on="0"/>
        <pt x="288" y="710" on="1"/>
        <pt x="345" y="710" on="0"/>
        <pt x="453" y="669" on="0"/>
        <pt x="484" y="628" on="1"/>
        <pt x="494" y="614" on="0"/>
        <pt x="494" y="607" on="1"/>
        <pt x="494" y="600" on="0"/>
        <pt x="479" y="586" on="0"/>
        <pt x="470" y="586" on="1"/>
        <pt x="462" y="586" on="0"/>
        <pt x="457" y="592" on="1"/>
        <pt x="439" y="616" on="0"/>
        <pt x="388" y="651" on="0"/>
        <pt x="324" y="670" on="0"/>
        <pt x="288" y="670" on="1"/>
        <pt x="239" y="670" on="0"/>
        <pt x="159" y="638" on="0"/>
        <pt x="111" y="579" on="0"/>
        <pt x="111" y="536" on="1"/>
        <pt x="111" y="490" on="0"/>
        <pt x="164" y="431" on="0"/>
        <pt x="246" y="392" on="0"/>
        <pt x="289" y="376" on="1"/>
        <pt x="327" y="363" on="0"/>
        <pt x="402" y="332" on="0"/>
        <pt x="463" y="286" on="0"/>
        <pt x="499" y="216" on="0"/>
        <pt x="499" y="163" on="1"/>
        <pt x="499" y="117" on="0"/>
        <pt x="446" y="39" on="0"/>
        <pt x="350" y="-9" on="0"/>
      </contour>
    </TTGlyph>
    <TTGlyph name="Sacute" xMin="35" yMin="-11" xMax="499" yMax="850">
      <component glyphName="S" x="0" y="0" flags="0x204"/>
      <component glyphName="acutecomb.case" x="204" y="40" flags="0x4"/>
    </TTGlyph>
    <TTGlyph name="Scaron" xMin="35" yMin="-11" xMax="499" yMax="881">
      <component glyphName="S" x="0" y="0" flags="0x204"/>
      <component glyphName="uni030C.case" x="118" y="48" flags="0x4"/>
    </TTGlyph>
    <TTGlyph name="Scedilla" xMin="35" yMin="-141" xMax="499" yMax="710">
      <component glyphName="S" x="0" y="0" flags="0x204"/>
      <component glyphName="cedilla" x="139" y="0" flags="0x4"/>
    </TTGlyph>
    <TTGlyph name="Scircumflex" xMin="35" yMin="-11" xMax="499" yMax="890">
      <component glyphName="S" x="0" y="0" flags="0x204"/>
      <component glyphName="uni0302.case" x="118" y="90" flags="0x4"/>
    </TTGlyph>
    <TTGlyph name="T" xMin="35" yMin="0" xMax="561" yMax="700">
      <contour>
        <pt x="298" y="0" on="1"/>
        <pt x="289" y="0" on="0"/>
        <pt x="278" y="12" on="0"/>
        <pt x="278" y="20" on="1"/>
        <pt x="278" y="676" on="1"/>
        <pt x="318" y="676" on="1"/>
        <pt x="318" y="20" on="1"/>
        <pt x="318" y="12" on="0"/>
        <pt x="306" y="0" on="0"/>
      </contour>
      <contour>
        <pt x="55" y="662" on="1"/>
        <pt x="47" y="662" on="0"/>
        <pt x="35" y="673" on="0"/>
        <pt x="35" y="681" on="1"/>
        <pt x="35" y="689" on="0"/>
        <pt x="47" y="700" on="0"/>
        <pt x="55" y="700" on="1"/>
        <pt x="541" y="700" on="1"/>
        <pt x="549" y="700" on="0"/>
        <pt x="561" y="689" on="0"/>
        <pt x="561" y="681" on="1"/>
        <pt x="561" y="672" on="0"/>
        <pt x="549" y="662" on="0"/>
        <pt x="541" y="662" on="1"/>
      </contour>
    </TTGlyph>
    <TTGlyph name="Tbar" xMin="35" yMin="0" xMax="561" yMax="700">
      <component glyphName="uni0335" x="149" y="59" flags="0x4"/>
      <component glyphName="T" x="0" y="0" flags="0x204"/>
    </TTGlyph>
    <TTGlyph name="Tcaron" xMin="35" yMin="0" xMax="561" yMax="881">
      <component glyphName="T" x="0" y="0" flags="0x204"/>
      <component glyphName="uni030C.case" x="141" y="48" flags="0x4"/>
    </TTGlyph>
    <TTGlyph name="Thorn" xMin="100" yMin="0" xMax="538" yMax="740">
      <contour>
        <pt x="140" y="20" on="1"/>
        <pt x="140" y="12" on="0"/>
        <pt x="128" y="0" on="0"/>
        <pt x="120" y="0" on="1"/>
        <pt x="111" y="0" on="0"/>
        <pt x="100" y="12" on="0"/>
        <pt x="100" y="20" on="1"/>
        <pt x="100" y="720" on="1"/>
        <pt x="100" y="728" on="0"/>
        <pt x="112" y="740" on="0"/>
        <pt x="120" y="740" on="1"/>
        <pt x="129" y="740" on="0"/>
        <pt x="140" y="728" on="0"/>
        <pt x="140" y="720" on="1"/>
      </contour>
      <contour>
        <pt x="127" y="238" on="1"/>
        <pt x="349" y="238" on="1"/>
        <pt x="395" y="238" on="0"/>
        <pt x="460" y="279" on="0"/>
        <pt x="496" y="351" on="0"/>
        <pt x="496" y="396" on="1"/>
        <pt x="496" y="442" on="0"/>
        <pt x="460" y="509" on="0"/>
        <pt x="395" y="547" on="0"/>
        <pt x="349" y="547" on="1"/>
        <pt x="128" y="547" on="1"/>
        <pt x="109" y="587" on="1"/>
        <pt x="349" y="587" on="1"/>
        <pt x="406" y="587" on="0"/>
        <pt x="491" y="539" on="0"/>
        <pt x="538" y="453" on="0"/>
        <pt x="538" y="396" on="1"/>
        <pt x="538" y="340" on="0"/>
        <pt x="491" y="250" on="0"/>
        <pt x="406" y="198" on="0"/>
        <pt x="349" y="198" on="1"/>
        <pt x="127" y="198" on="1"/>
      </contour>
    </TTGlyph>
    <TTGlyph name="U" xMin="100" yMin="-10" xMax="615" yMax="700">
      <contour>
        <pt x="595" y="700" on="1"/>
        <pt x="604" y="700" on="0"/>
        <pt x="615" y="688" on="0"/>
        <pt x="615" y="680" on="1"/>
        <pt x="615" y="248" on="1"/>
        <pt x="615" y="177" on="0"/>
        <pt x="545" y="60" on="0"/>
        <pt x="429" y="-10" on="0"/>
        <pt x="358" y="-10" on="1"/>
        <pt x="287" y="-10" on="0"/>
        <pt x="170" y="60" on="0"/>
        <pt x="100" y="177" on="0"/>
        <pt x="100" y="248" on="1"/>
        <pt x="100" y="680" on="1"/>
        <pt x="100" y="688" on="0"/>
        <pt x="111" y="700" on="0"/>
        <pt x="121" y="700" on="1"/>
        <pt x="130" y="700" on="0"/>
        <pt x="142" y="688" on="0"/>
        <pt x="142" y="680" on="1"/>
        <pt x="142" y="248" on="1"/>
        <pt x="142" y="188" on="0"/>
        <pt x="200" y="89" on="0"/>
        <pt x="299" y="30" on="0"/>
        <pt x="358" y="30" on="1"/>
        <pt x="418" y="30" on="0"/>
        <pt x="516" y="89" on="0"/>
        <pt x="575" y="188" on="0"/>
        <pt x="575" y="248" on="1"/>
        <pt x="575" y="680" on="1"/>
        <pt x="575" y="688" on="0"/>
        <pt x="586" y="700" on="0"/>
      </contour>
    </TTGlyph>
    <TTGlyph name="Uacute" xMin="100" yMin="-10" xMax="615" yMax="850">
      <component glyphName="U" x="0" y="0" flags="0x204"/>
      <component glyphName="acutecomb.case" x="287" y="40" flags="0x4"/>
    </TTGlyph>
    <TTGlyph name="Ubreve" xMin="100" yMin="-10" xMax="615" yMax="905">
      <component glyphName="U" x="0" y="0" flags="0x204"/>
      <component glyphName="uni0306.case" x="177" y="0" flags="0x4"/>
    </TTGlyph>
    <TTGlyph name="Ucircumflex" xMin="100" yMin="-10" xMax="615" yMax="890">
      <component glyphName="U" x="0" y="0" flags="0x204"/>
      <component glyphName="uni0302.case" x="201" y="90" flags="0x4"/>
    </TTGlyph>
    <TTGlyph name="Udieresis" xMin="100" yMin="-10" xMax="615" yMax="860">
      <component glyphName="U" x="0" y="0" flags="0x204"/>
      <component glyphName="uni0308.case" x="192" y="0" flags="0x4"/>
    </TTGlyph>
    <TTGlyph name="Ugrave" xMin="100" yMin="-10" xMax="615" yMax="850">
      <component glyphName="U" x="0" y="0" flags="0x204"/>
      <component glyphName="gravecomb.case" x="223" y="40" flags="0x4"/>
    </TTGlyph>
    <TTGlyph name="Uhorn" xMin="100" yMin="-10" xMax="728" yMax="812">
      <component glyphName="U" x="0" y="0" flags="0x204"/>
      <component glyphName="uni031B.case" x="521" y="198" flags="0x4"/>
    </TTGlyph>
    <TTGlyph name="Uhungarumlaut" xMin="100" yMin="-10" xMax="615" yMax="867">
      <component glyphName="U" x="0" y="0" flags="0x204"/>
      <component glyphName="uni030B.case" x="170" y="70" flags="0x4"/>
    </TTGlyph>
    <TTGlyph name="Umacron" xMin="100" yMin="-10" xMax="615" yMax="838">
      <component glyphName="U" x="0" y="0" flags="0x204"/>
      <component glyphName="uni0304.case" x="158" y="49" flags="0x4"/>
    </TTGlyph>
    <TTGlyph name="Uogonek" xMin="100" yMin="-185" xMax="615" yMax="700">
      <contour>
        <pt x="429" y="-185" on="1"/>
        <pt x="396" y="-185" on="0"/>
        <pt x="341" y="-135" on="0"/>
        <pt x="341" y="-93" on="1"/>
        <pt x="341" y="-70" on="0"/>
        <pt x="357" y="-33" on="0"/>
        <pt x="383" y="-5" on="0"/>
        <pt x="415" y="14" on="0"/>
        <pt x="431" y="19" on="1"/>
        <pt x="396" y="-7" on="1"/>
        <pt x="387" y="-8" on="0"/>
        <pt x="368" y="-10" on="0"/>
        <pt x="358" y="-10" on="1"/>
        <pt x="287" y="-10" on="0"/>
        <pt x="170" y="60" on="0"/>
        <pt x="100" y="177" on="0"/>
        <pt x="100" y="248" on="1"/>
        <pt x="100" y="680" on="1"/>
        <pt x="100" y="688" on="0"/>
        <pt x="111" y="700" on="0"/>
        <pt x="121" y="700" on="1"/>
        <pt x="130" y="700" on="0"/>
        <pt x="142" y="688" on="0"/>
        <pt x="142" y="680" on="1"/>
        <pt x="142" y="248" on="1"/>
        <pt x="142" y="188" on="0"/>
        <pt x="200" y="89" on="0"/>
        <pt x="299" y="30" on="0"/>
        <pt x="358" y="30" on="1"/>
        <pt x="420" y="30" on="0"/>
        <pt x="518" y="89" on="0"/>
        <pt x="575" y="188" on="0"/>
        <pt x="575" y="248" on="1"/>
        <pt x="575" y="680" on="1"/>
        <pt x="575" y="688" on="0"/>
        <pt x="586" y="700" on="0"/>
        <pt x="595" y="700" on="1"/>
        <pt x="604" y="700" on="0"/>
        <pt x="615" y="688" on="0"/>
        <pt x="615" y="680" on="1"/>
        <pt x="615" y="248" on="1"/>
        <pt x="615" y="199" on="0"/>
        <pt x="582" y="110" on="0"/>
        <pt x="521" y="40" on="0"/>
        <pt x="479" y="21" on="1"/>
        <pt x="463" y="14" on="0"/>
        <pt x="415" y="-10" on="0"/>
        <pt x="379" y="-51" on="0"/>
        <pt x="379" y="-85" on="1"/>
        <pt x="379" y="-115" on="0"/>
        <pt x="413" y="-148" on="0"/>
        <pt x="434" y="-148" on="1"/>
        <pt x="459" y="-148" on="0"/>
        <pt x="465" y="-138" on="1"/>
        <pt x="470" y="-130" on="0"/>
        <pt x="479" y="-122" on="0"/>
        <pt x="486" y="-122" on="1"/>
        <pt x="493" y="-122" on="0"/>
        <pt x="501" y="-131" on="0"/>
        <pt x="501" y="-136" on="1"/>
        <pt x="501" y="-149" on="0"/>
        <pt x="482" y="-172" on="0"/>
        <pt x="450" y="-185" on="0"/>
      </contour>
    </TTGlyph>
    <TTGlyph name="Uring" xMin="100" yMin="-10" xMax="615" yMax="928">
      <component glyphName="U" x="0" y="0" flags="0x204"/>
      <component glyphName="uni030A.case" x="210" y="0" flags="0x4"/>
    </TTGlyph>
    <TTGlyph name="Utilde" xMin="100" yMin="-10" xMax="615" yMax="884">
      <component glyphName="U" x="0" y="0" flags="0x204"/>
      <component glyphName="tildecomb.case" x="164" y="0" flags="0x4"/>
    </TTGlyph>
    <TTGlyph name="V" xMin="36" yMin="0" xMax="625" yMax="700">
      <contour>
        <pt x="605" y="700" on="1"/>
        <pt x="615" y="700" on="0"/>
        <pt x="625" y="690" on="0"/>
        <pt x="625" y="682" on="1"/>
        <pt x="625" y="678" on="0"/>
        <pt x="623" y="672" on="1"/>
        <pt x="349" y="13" on="1"/>
        <pt x="346" y="7" on="0"/>
        <pt x="336" y="0" on="0"/>
        <pt x="330" y="0" on="1"/>
        <pt x="324" y="0" on="0"/>
        <pt x="313" y="7" on="0"/>
        <pt x="311" y="13" on="1"/>
        <pt x="39" y="669" on="1"/>
        <pt x="38" y="671" on="0"/>
        <pt x="36" y="677" on="0"/>
        <pt x="36" y="681" on="1"/>
        <pt x="36" y="689" on="0"/>
        <pt x="48" y="700" on="0"/>
        <pt x="55" y="700" on="1"/>
        <pt x="70" y="700" on="0"/>
        <pt x="77" y="684" on="1"/>
        <pt x="337" y="58" on="1"/>
        <pt x="325" y="59" on="1"/>
        <pt x="586" y="687" on="1"/>
        <pt x="593" y="700" on="0"/>
      </contour>
    </TTGlyph>
    <TTGlyph name="W" xMin="35" yMin="0" xMax="939" yMax="702">
      <contour>
        <pt x="918" y="702" on="1"/>
        <pt x="927" y="702" on="0"/>
        <pt x="939" y="693" on="0"/>
        <pt x="939" y="683" on="1"/>
        <pt x="939" y="679" on="0"/>
        <pt x="937" y="673" on="1"/>
        <pt x="708" y="13" on="1"/>
        <pt x="706" y="7" on="0"/>
        <pt x="695" y="0" on="0"/>
        <pt x="690" y="0" on="1"/>
        <pt x="683" y="0" on="0"/>
        <pt x="672" y="5" on="0"/>
        <pt x="670" y="12" on="1"/>
        <pt x="483" y="484" on="1"/>
        <pt x="491" y="484" on="1"/>
        <pt x="304" y="12" on="1"/>
        <pt x="301" y="5" on="0"/>
        <pt x="290" y="0" on="0"/>
        <pt x="283" y="0" on="1"/>
        <pt x="278" y="0" on="0"/>
        <pt x="268" y="7" on="0"/>
        <pt x="266" y="13" on="1"/>
        <pt x="37" y="673" on="1"/>
        <pt x="35" y="679" on="0"/>
        <pt x="35" y="682" on="1"/>
        <pt x="35" y="692" on="0"/>
        <pt x="50" y="702" on="0"/>
        <pt x="57" y="702" on="1"/>
        <pt x="63" y="702" on="0"/>
        <pt x="74" y="695" on="0"/>
        <pt x="76" y="689" on="1"/>
        <pt x="291" y="68" on="1"/>
        <pt x="284" y="67" on="1"/>
        <pt x="468" y="532" on="1"/>
        <pt x="470" y="538" on="0"/>
        <pt x="480" y="545" on="0"/>
        <pt x="487" y="545" on="1"/>
        <pt x="493" y="545" on="0"/>
        <pt x="504" y="538" on="0"/>
        <pt x="506" y="532" on="1"/>
        <pt x="692" y="64" on="1"/>
        <pt x="683" y="63" on="1"/>
        <pt x="898" y="689" on="1"/>
        <pt x="900" y="695" on="0"/>
        <pt x="910" y="702" on="0"/>
      </contour>
    </TTGlyph>
    <TTGlyph name="Wacute" xMin="35" yMin="0" xMax="939" yMax="850">
      <component glyphName="W" x="0" y="0" flags="0x204"/>
      <component glyphName="acutecomb.case" x="416" y="40" flags="0x4"/>
    </TTGlyph>
    <TTGlyph name="Wcircumflex" xMin="35" yMin="0" xMax="939" yMax="890">
      <component glyphName="W" x="0" y="0" flags="0x204"/>
      <component glyphName="uni0302.case" x="330" y="90" flags="0x4"/>
    </TTGlyph>
    <TTGlyph name="Wdieresis" xMin="35" yMin="0" xMax="939" yMax="860">
      <component glyphName="W" x="0" y="0" flags="0x204"/>
      <component glyphName="uni0308.case" x="321" y="0" flags="0x4"/>
    </TTGlyph>
    <TTGlyph name="Wgrave" xMin="35" yMin="0" xMax="939" yMax="850">
      <component glyphName="W" x="0" y="0" flags="0x204"/>
      <component glyphName="gravecomb.case" x="352" y="40" flags="0x4"/>
    </TTGlyph>
    <TTGlyph name="X" xMin="30" yMin="-3" xMax="559" yMax="704">
      <contour>
        <pt x="539" y="704" on="1"/>
        <pt x="547" y="704" on="0"/>
        <pt x="559" y="696" on="0"/>
        <pt x="559" y="688" on="1"/>
        <pt x="559" y="681" on="0"/>
        <pt x="554" y="674" on="1"/>
        <pt x="315" y="345" on="1"/>
        <pt x="293" y="379" on="1"/>
        <pt x="524" y="696" on="1"/>
        <pt x="530" y="704" on="0"/>
      </contour>
      <contour>
        <pt x="50" y="703" on="1"/>
        <pt x="62" y="703" on="0"/>
        <pt x="67" y="695" on="1"/>
        <pt x="554" y="29" on="1"/>
        <pt x="559" y="22" on="0"/>
        <pt x="559" y="17" on="1"/>
        <pt x="559" y="8" on="0"/>
        <pt x="546" y="-3" on="0"/>
        <pt x="538" y="-3" on="1"/>
        <pt x="527" y="-3" on="0"/>
        <pt x="522" y="5" on="1"/>
        <pt x="34" y="671" on="1"/>
        <pt x="30" y="676" on="0"/>
        <pt x="30" y="683" on="1"/>
        <pt x="30" y="692" on="0"/>
        <pt x="42" y="703" on="0"/>
      </contour>
      <contour>
        <pt x="50" y="-3" on="1"/>
        <pt x="40" y="-3" on="0"/>
        <pt x="31" y="9" on="0"/>
        <pt x="31" y="14" on="1"/>
        <pt x="31" y="19" on="0"/>
        <pt x="36" y="27" on="1"/>
        <pt x="275" y="353" on="1"/>
        <pt x="295" y="319" on="1"/>
        <pt x="65" y="5" on="1"/>
        <pt x="60" y="-3" on="0"/>
      </contour>
    </TTGlyph>
    <TTGlyph name="Y" xMin="20" yMin="0" xMax="527" yMax="704">
      <contour>
        <pt x="507" y="704" on="1"/>
        <pt x="517" y="704" on="0"/>
        <pt x="527" y="690" on="0"/>
        <pt x="527" y="685" on="1"/>
        <pt x="527" y="681" on="0"/>
        <pt x="525" y="675" on="0"/>
        <pt x="523" y="672" on="1"/>
        <pt x="286" y="350" on="1"/>
        <pt x="295" y="379" on="1"/>
        <pt x="295" y="20" on="1"/>
        <pt x="295" y="12" on="0"/>
        <pt x="283" y="0" on="0"/>
        <pt x="274" y="0" on="1"/>
        <pt x="264" y="0" on="0"/>
        <pt x="253" y="12" on="0"/>
        <pt x="253" y="20" on="1"/>
        <pt x="253" y="372" on="1"/>
        <pt x="258" y="351" on="1"/>
        <pt x="24" y="672" on="1"/>
        <pt x="22" y="675" on="0"/>
        <pt x="20" y="681" on="0"/>
        <pt x="20" y="685" on="1"/>
        <pt x="20" y="693" on="0"/>
        <pt x="34" y="704" on="0"/>
        <pt x="41" y="704" on="1"/>
        <pt x="52" y="704" on="0"/>
        <pt x="58" y="695" on="1"/>
        <pt x="280" y="392" on="1"/>
        <pt x="270" y="394" on="1"/>
        <pt x="490" y="695" on="1"/>
        <pt x="496" y="704" on="0"/>
      </contour>
    </TTGlyph>
    <TTGlyph name="Yacute" xMin="20" yMin="0" xMax="527" yMax="850">
      <component glyphName="Y" x="0" y="0" flags="0x204"/>
      <component glyphName="acutecomb.case" x="203" y="40" flags="0x4"/>
    </TTGlyph>
    <TTGlyph name="Ycircumflex" xMin="20" yMin="0" xMax="527" yMax="890">
      <component glyphName="Y" x="0" y="0" flags="0x204"/>
      <component glyphName="uni0302.case" x="117" y="90" flags="0x4"/>
    </TTGlyph>
    <TTGlyph name="Ydieresis" xMin="20" yMin="0" xMax="527" yMax="860">
      <component glyphName="Y" x="0" y="0" flags="0x204"/>
      <component glyphName="uni0308.case" x="108" y="0" flags="0x4"/>
    </TTGlyph>
    <TTGlyph name="Ygrave" xMin="20" yMin="0" xMax="527" yMax="850">
      <component glyphName="Y" x="0" y="0" flags="0x204"/>
      <component glyphName="gravecomb.case" x="139" y="40" flags="0x4"/>
    </TTGlyph>
    <TTGlyph name="Z" xMin="60" yMin="0" xMax="593" yMax="700">
      <contour>
        <pt x="570" y="700" on="1"/>
        <pt x="583" y="700" on="0"/>
        <pt x="593" y="687" on="0"/>
        <pt x="593" y="680" on="1"/>
        <pt x="593" y="673" on="0"/>
        <pt x="589" y="668" on="1"/>
        <pt x="111" y="28" on="1"/>
        <pt x="112" y="38" on="1"/>
        <pt x="572" y="38" on="1"/>
        <pt x="580" y="38" on="0"/>
        <pt x="592" y="26" on="0"/>
        <pt x="592" y="19" on="1"/>
        <pt x="592" y="11" on="0"/>
        <pt x="580" y="0" on="0"/>
        <pt x="572" y="0" on="1"/>
        <pt x="80" y="0" on="1"/>
        <pt x="70" y="0" on="0"/>
        <pt x="60" y="14" on="0"/>
        <pt x="60" y="21" on="1"/>
        <pt x="60" y="28" on="0"/>
        <pt x="64" y="33" on="1"/>
        <pt x="539" y="666" on="1"/>
        <pt x="545" y="662" on="1"/>
        <pt x="100" y="662" on="1"/>
        <pt x="92" y="662" on="0"/>
        <pt x="80" y="674" on="0"/>
        <pt x="80" y="681" on="1"/>
        <pt x="80" y="689" on="0"/>
        <pt x="92" y="700" on="0"/>
        <pt x="100" y="700" on="1"/>
      </contour>
    </TTGlyph>
    <TTGlyph name="Zacute" xMin="60" yMin="0" xMax="593" yMax="850">
      <component glyphName="Z" x="0" y="0" flags="0x204"/>
      <component glyphName="acutecomb.case" x="251" y="40" flags="0x4"/>
    </TTGlyph>
    <TTGlyph name="Zcaron" xMin="60" yMin="0" xMax="593" yMax="881">
      <component glyphName="Z" x="0" y="0" flags="0x204"/>
      <component glyphName="uni030C.case" x="165" y="48" flags="0x4"/>
    </TTGlyph>
    <TTGlyph name="Zdotaccent" xMin="60" yMin="0" xMax="593" yMax="860">
      <component glyphName="Z" x="0" y="0" flags="0x204"/>
      <component glyphName="uni0307.case" x="237" y="0" flags="0x4"/>
    </TTGlyph>
    <TTGlyph name="a" xMin="52" yMin="-10" xMax="516" yMax="515">
      <contour>
        <pt x="496" y="499" on="1"/>
        <pt x="505" y="499" on="0"/>
        <pt x="516" y="487" on="0"/>
        <pt x="516" y="479" on="1"/>
        <pt x="516" y="20" on="1"/>
        <pt x="516" y="12" on="0"/>
        <pt x="504" y="0" on="0"/>
        <pt x="496" y="0" on="1"/>
        <pt x="487" y="0" on="0"/>
        <pt x="476" y="12" on="0"/>
        <pt x="476" y="20" on="1"/>
        <pt x="476" y="162" on="1"/>
        <pt x="492" y="175" on="1"/>
        <pt x="492" y="143" on="0"/>
        <pt x="460" y="77" on="0"/>
        <pt x="404" y="23" on="0"/>
        <pt x="328" y="-10" on="0"/>
        <pt x="284" y="-10" on="1"/>
        <pt x="217" y="-10" on="0"/>
        <pt x="112" y="60" on="0"/>
        <pt x="52" y="180" on="0"/>
        <pt x="52" y="255" on="1"/>
        <pt x="52" y="331" on="0"/>
        <pt x="113" y="448" on="0"/>
        <pt x="218" y="515" on="0"/>
        <pt x="284" y="515" on="1"/>
        <pt x="327" y="515" on="0"/>
        <pt x="403" y="484" on="0"/>
        <pt x="460" y="428" on="0"/>
        <pt x="492" y="353" on="0"/>
        <pt x="492" y="309" on="1"/>
        <pt x="476" y="334" on="1"/>
        <pt x="476" y="479" on="1"/>
        <pt x="476" y="487" on="0"/>
        <pt x="487" y="499" on="0"/>
      </contour>
      <contour>
        <pt x="286" y="28" on="1"/>
        <pt x="342" y="28" on="0"/>
        <pt x="430" y="87" on="0"/>
        <pt x="480" y="190" on="0"/>
        <pt x="480" y="255" on="1"/>
        <pt x="480" y="317" on="0"/>
        <pt x="430" y="418" on="0"/>
        <pt x="342" y="477" on="0"/>
        <pt x="286" y="477" on="1"/>
        <pt x="231" y="477" on="0"/>
        <pt x="143" y="420" on="0"/>
        <pt x="92" y="320" on="0"/>
        <pt x="92" y="255" on="1"/>
        <pt x="92" y="190" on="0"/>
        <pt x="142" y="87" on="0"/>
        <pt x="230" y="28" on="0"/>
      </contour>
    </TTGlyph>
    <TTGlyph name="a.ss01" xMin="52" yMin="-10" xMax="524" yMax="515">
      <contour>
        <pt x="242" y="28" on="1"/>
        <pt x="308" y="28" on="0"/>
        <pt x="391" y="93" on="0"/>
        <pt x="391" y="148" on="1"/>
        <pt x="391" y="204" on="0"/>
        <pt x="307" y="266" on="0"/>
        <pt x="241" y="266" on="1"/>
        <pt x="178" y="266" on="0"/>
        <pt x="92" y="204" on="0"/>
        <pt x="92" y="148" on="1"/>
        <pt x="92" y="92" on="0"/>
        <pt x="178" y="28" on="0"/>
      </contour>
      <contour>
        <pt x="221" y="-10" on="1"/>
        <pt x="169" y="-10" on="0"/>
        <pt x="93" y="33" on="0"/>
        <pt x="52" y="105" on="0"/>
        <pt x="52" y="146" on="1"/>
        <pt x="52" y="196" on="0"/>
        <pt x="108" y="266" on="0"/>
        <pt x="194" y="304" on="0"/>
        <pt x="239" y="304" on="1"/>
        <pt x="271" y="304" on="0"/>
        <pt x="333" y="285" on="0"/>
        <pt x="384" y="251" on="0"/>
        <pt x="397" y="228" on="1"/>
        <pt x="388" y="215" on="1"/>
        <pt x="388" y="362" on="1"/>
        <pt x="388" y="421" on="0"/>
        <pt x="305" y="477" on="0"/>
        <pt x="246" y="477" on="1"/>
        <pt x="200" y="477" on="0"/>
        <pt x="111" y="432" on="0"/>
        <pt x="88" y="398" on="1"/>
        <pt x="81" y="389" on="0"/>
        <pt x="71" y="389" on="1"/>
        <pt x="64" y="389" on="0"/>
        <pt x="54" y="400" on="0"/>
        <pt x="54" y="407" on="1"/>
        <pt x="54" y="410" on="0"/>
        <pt x="56" y="416" on="0"/>
        <pt x="58" y="419" on="1"/>
        <pt x="78" y="449" on="0"/>
        <pt x="138" y="492" on="0"/>
        <pt x="211" y="515" on="0"/>
        <pt x="249" y="515" on="1"/>
        <pt x="300" y="515" on="0"/>
        <pt x="381" y="487" on="0"/>
        <pt x="428" y="422" on="0"/>
        <pt x="428" y="365" on="1"/>
        <pt x="428" y="85" on="1"/>
        <pt x="428" y="60" on="0"/>
        <pt x="451" y="36" on="0"/>
        <pt x="463" y="36" on="1"/>
        <pt x="476" y="36" on="0"/>
        <pt x="494" y="50" on="0"/>
        <pt x="507" y="50" on="1"/>
        <pt x="515" y="50" on="0"/>
        <pt x="524" y="39" on="0"/>
        <pt x="524" y="32" on="1"/>
        <pt x="524" y="19" on="0"/>
        <pt x="477" y="0" on="0"/>
        <pt x="454" y="0" on="1"/>
        <pt x="429" y="0" on="0"/>
        <pt x="396" y="36" on="0"/>
        <pt x="388" y="60" on="1"/>
        <pt x="406" y="85" on="1"/>
        <pt x="389" y="53" on="0"/>
        <pt x="336" y="10" on="0"/>
        <pt x="265" y="-10" on="0"/>
      </contour>
    </TTGlyph>
    <TTGlyph name="aacute" xMin="52" yMin="-10" xMax="516" yMax="680">
      <component glyphName="a" x="0" y="0" flags="0x204"/>
      <component glyphName="acutecomb" x="178" y="0" flags="0x4"/>
    </TTGlyph>
    <TTGlyph name="aacute.ss01" xMin="52" yMin="-10" xMax="524" yMax="696">
      <component glyphName="a.ss01" x="0" y="0" flags="0x204"/>
      <component glyphName="acutecomb" x="151" y="16" flags="0x4"/>
    </TTGlyph>
    <TTGlyph name="abreve" xMin="52" yMin="-10" xMax="516" yMax="721">
      <component glyphName="a" x="0" y="0" flags="0x204"/>
      <component glyphName="uni0306" x="111" y="43" flags="0x4"/>
    </TTGlyph>
    <TTGlyph name="abreve.ss01" xMin="52" yMin="-10" xMax="524" yMax="737">
      <component glyphName="a.ss01" x="0" y="0" flags="0x204"/>
      <component glyphName="uni0306" x="84" y="59" flags="0x4"/>
    </TTGlyph>
    <TTGlyph name="acircumflex" xMin="52" yMin="-10" xMax="516" yMax="689">
      <component glyphName="a" x="0" y="0" flags="0x204"/>
      <component glyphName="uni0302" x="128" y="-11" flags="0x4"/>
    </TTGlyph>
    <TTGlyph name="acircumflex.ss01" xMin="52" yMin="-10" xMax="524" yMax="705">
      <component glyphName="a.ss01" x="0" y="0" flags="0x204"/>
      <component glyphName="uni0302" x="101" y="5" flags="0x4"/>
    </TTGlyph>
    <TTGlyph name="acute" xMin="85" yMin="546" xMax="204" yMax="680">
      <component glyphName="acutecomb" x="0" y="0" flags="0x4"/>
    </TTGlyph>
    <TTGlyph name="acutecomb" xMin="85" yMin="546" xMax="204" yMax="680">
      <contour>
        <pt x="96" y="546" on="1"/>
        <pt x="91" y="546" on="0"/>
        <pt x="85" y="554" on="0"/>
        <pt x="85" y="558" on="1"/>
        <pt x="85" y="563" on="0"/>
        <pt x="90" y="571" on="1"/>
        <pt x="152" y="664" on="1"/>
        <pt x="155" y="669" on="0"/>
        <pt x="168" y="680" on="0"/>
        <pt x="178" y="680" on="1"/>
        <pt x="189" y="680" on="0"/>
        <pt x="204" y="668" on="0"/>
        <pt x="204" y="655" on="1"/>
        <pt x="204" y="649" on="0"/>
        <pt x="200" y="642" on="0"/>
        <pt x="197" y="638" on="1"/>
        <pt x="122" y="561" on="1"/>
        <pt x="117" y="556" on="0"/>
        <pt x="104" y="546" on="0"/>
      </contour>
    </TTGlyph>
    <TTGlyph name="acutecomb.case" xMin="63" yMin="708" xMax="207" yMax="810">
      <contour>
        <pt x="75" y="708" on="1"/>
        <pt x="68" y="708" on="0"/>
        <pt x="63" y="716" on="0"/>
        <pt x="63" y="720" on="1"/>
        <pt x="63" y="725" on="0"/>
        <pt x="68" y="732" on="0"/>
        <pt x="72" y="735" on="1"/>
        <pt x="162" y="802" on="1"/>
        <pt x="166" y="805" on="0"/>
        <pt x="177" y="810" on="0"/>
        <pt x="184" y="810" on="1"/>
        <pt x="196" y="810" on="0"/>
        <pt x="207" y="795" on="0"/>
        <pt x="207" y="786" on="1"/>
        <pt x="207" y="777" on="0"/>
        <pt x="200" y="766" on="0"/>
        <pt x="193" y="762" on="1"/>
        <pt x="96" y="715" on="1"/>
        <pt x="92" y="713" on="0"/>
        <pt x="81" y="708" on="0"/>
      </contour>
    </TTGlyph>
    <TTGlyph name="adieresis" xMin="52" yMin="-10" xMax="516" yMax="679">
      <component glyphName="a" x="0" y="0" flags="0x204"/>
      <component glyphName="uni0308" x="96" y="-1" flags="0x4"/>
    </TTGlyph>
    <TTGlyph name="adieresis.ss01" xMin="52" yMin="-10" xMax="524" yMax="695">
      <component glyphName="a.ss01" x="0" y="0" flags="0x204"/>
      <component glyphName="uni0308" x="69" y="15" flags="0x4"/>
    </TTGlyph>
    <TTGlyph name="ae" xMin="52" yMin="-10" xMax="843" yMax="515">
      <contour>
        <pt x="270" y="515" on="1"/>
        <pt x="302" y="515" on="0"/>
        <pt x="359" y="502" on="0"/>
        <pt x="404" y="473" on="0"/>
        <pt x="430" y="424" on="0"/>
        <pt x="430" y="388" on="1"/>
        <pt x="430" y="252" on="1"/>
        <pt x="394" y="251" on="1"/>
        <pt x="394" y="370" on="1"/>
        <pt x="394" y="414" on="0"/>
        <pt x="356" y="460" on="0"/>
        <pt x="299" y="477" on="0"/>
        <pt x="270" y="477" on="1"/>
        <pt x="237" y="477" on="0"/>
        <pt x="170" y="449" on="0"/>
        <pt x="115" y="407" on="0"/>
        <pt x="100" y="384" on="1"/>
        <pt x="93" y="375" on="0"/>
        <pt x="83" y="375" on="1"/>
        <pt x="76" y="375" on="0"/>
        <pt x="66" y="386" on="0"/>
        <pt x="66" y="393" on="1"/>
        <pt x="66" y="396" on="0"/>
        <pt x="68" y="402" on="0"/>
        <pt x="70" y="405" on="1"/>
        <pt x="91" y="432" on="0"/>
        <pt x="154" y="483" on="0"/>
        <pt x="231" y="515" on="0"/>
      </contour>
      <contour>
        <pt x="202" y="-10" on="1"/>
        <pt x="167" y="-10" on="0"/>
        <pt x="98" y="23" on="0"/>
        <pt x="52" y="88" on="0"/>
        <pt x="52" y="136" on="1"/>
        <pt x="52" y="193" on="0"/>
        <pt x="127" y="267" on="0"/>
        <pt x="259" y="304" on="0"/>
        <pt x="344" y="304" on="1"/>
        <pt x="812" y="304" on="1"/>
        <pt x="802" y="295" on="1"/>
        <pt x="802" y="313" on="1"/>
        <pt x="797" y="366" on="0"/>
        <pt x="740" y="438" on="0"/>
        <pt x="660" y="475" on="0"/>
        <pt x="617" y="475" on="1"/>
        <pt x="587" y="475" on="0"/>
        <pt x="521" y="448" on="0"/>
        <pt x="465" y="393" on="0"/>
        <pt x="430" y="309" on="0"/>
        <pt x="430" y="253" on="1"/>
        <pt x="430" y="192" on="0"/>
        <pt x="479" y="90" on="0"/>
        <pt x="576" y="28" on="0"/>
        <pt x="647" y="28" on="1"/>
        <pt x="681" y="28" on="0"/>
        <pt x="741" y="51" on="0"/>
        <pt x="789" y="89" on="0"/>
        <pt x="804" y="111" on="1"/>
        <pt x="812" y="120" on="0"/>
        <pt x="821" y="120" on="1"/>
        <pt x="828" y="120" on="0"/>
        <pt x="838" y="109" on="0"/>
        <pt x="838" y="102" on="1"/>
        <pt x="838" y="95" on="0"/>
        <pt x="834" y="90" on="1"/>
        <pt x="803" y="50" on="0"/>
        <pt x="706" y="-10" on="0"/>
        <pt x="647" y="-10" on="1"/>
        <pt x="572" y="-10" on="0"/>
        <pt x="456" y="54" on="0"/>
        <pt x="391" y="171" on="0"/>
        <pt x="391" y="250" on="1"/>
        <pt x="391" y="334" on="0"/>
        <pt x="456" y="452" on="0"/>
        <pt x="559" y="515" on="0"/>
        <pt x="617" y="515" on="1"/>
        <pt x="659" y="515" on="0"/>
        <pt x="739" y="488" on="0"/>
        <pt x="802" y="431" on="0"/>
        <pt x="841" y="346" on="0"/>
        <pt x="843" y="287" on="1"/>
        <pt x="843" y="279" on="0"/>
        <pt x="831" y="266" on="0"/>
        <pt x="823" y="266" on="1"/>
        <pt x="346" y="266" on="1"/>
        <pt x="272" y="266" on="0"/>
        <pt x="157" y="238" on="0"/>
        <pt x="92" y="180" on="0"/>
        <pt x="92" y="136" on="1"/>
        <pt x="92" y="100" on="0"/>
        <pt x="128" y="52" on="0"/>
        <pt x="181" y="28" on="0"/>
        <pt x="206" y="28" on="1"/>
        <pt x="250" y="28" on="0"/>
        <pt x="333" y="71" on="0"/>
        <pt x="396" y="132" on="0"/>
        <pt x="408" y="157" on="1"/>
        <pt x="430" y="125" on="1"/>
        <pt x="412" y="98" on="0"/>
        <pt x="351" y="35" on="0"/>
        <pt x="263" y="-10" on="0"/>
      </contour>
    </TTGlyph>
    <TTGlyph name="aeacute" xMin="52" yMin="-10" xMax="843" yMax="696">
      <component glyphName="ae" x="0" y="0" flags="0x204"/>
      <component glyphName="acutecomb" x="347" y="16" flags="0x4"/>
    </TTGlyph>
    <TTGlyph name="agrave" xMin="52" yMin="-10" xMax="516" yMax="688">
      <component glyphName="a" x="0" y="0" flags="0x204"/>
      <component glyphName="gravecomb" x="139" y="0" flags="0x4"/>
    </TTGlyph>
    <TTGlyph name="agrave.ss01" xMin="52" yMin="-10" xMax="524" yMax="704">
      <component glyphName="a.ss01" x="0" y="0" flags="0x204"/>
      <component glyphName="gravecomb" x="112" y="16" flags="0x4"/>
    </TTGlyph>
    <TTGlyph name="amacron" xMin="52" yMin="-10" xMax="516" yMax="646">
      <component glyphName="a" x="0" y="0" flags="0x204"/>
      <component glyphName="uni0304" x="99" y="39" flags="0x4"/>
    </TTGlyph>
    <TTGlyph name="amacron.ss01" xMin="52" yMin="-10" xMax="524" yMax="662">
      <component glyphName="a.ss01" x="0" y="0" flags="0x204"/>
      <component glyphName="uni0304" x="72" y="55" flags="0x4"/>
    </TTGlyph>
    <TTGlyph name="ampersand" xMin="30" yMin="-10" xMax="644" yMax="710">
      <contour>
        <pt x="269" y="-10" on="1"/>
        <pt x="198" y="-10" on="0"/>
        <pt x="90" y="57" on="0"/>
        <pt x="30" y="163" on="0"/>
        <pt x="30" y="221" on="1"/>
        <pt x="30" y="263" on="0"/>
        <pt x="65" y="344" on="0"/>
        <pt x="136" y="410" on="0"/>
        <pt x="191" y="428" on="1"/>
        <pt x="222" y="397" on="1"/>
        <pt x="142" y="379" on="0"/>
        <pt x="72" y="282" on="0"/>
        <pt x="72" y="226" on="1"/>
        <pt x="72" y="176" on="0"/>
        <pt x="118" y="86" on="0"/>
        <pt x="207" y="30" on="0"/>
        <pt x="269" y="30" on="1"/>
        <pt x="340" y="30" on="0"/>
        <pt x="440" y="72" on="0"/>
        <pt x="506" y="144" on="0"/>
        <pt x="546" y="233" on="0"/>
        <pt x="555" y="279" on="1"/>
        <pt x="557" y="287" on="0"/>
        <pt x="568" y="296" on="0"/>
        <pt x="576" y="296" on="1"/>
        <pt x="585" y="296" on="0"/>
        <pt x="597" y="283" on="0"/>
        <pt x="595" y="273" on="1"/>
        <pt x="587" y="221" on="0"/>
        <pt x="539" y="120" on="0"/>
        <pt x="459" y="38" on="0"/>
        <pt x="344" y="-10" on="0"/>
      </contour>
      <contour>
        <pt x="624" y="4" on="1"/>
        <pt x="621" y="4" on="0"/>
        <pt x="615" y="7" on="0"/>
        <pt x="612" y="8" on="1"/>
        <pt x="554" y="51" on="0"/>
        <pt x="443" y="135" on="0"/>
        <pt x="328" y="241" on="0"/>
        <pt x="262" y="316" on="1"/>
        <pt x="227" y="356" on="0"/>
        <pt x="171" y="437" on="0"/>
        <pt x="138" y="516" on="0"/>
        <pt x="138" y="553" on="1"/>
        <pt x="138" y="599" on="0"/>
        <pt x="181" y="670" on="0"/>
        <pt x="261" y="710" on="0"/>
        <pt x="316" y="710" on="1"/>
        <pt x="389" y="710" on="0"/>
        <pt x="477" y="653" on="0"/>
        <pt x="496" y="616" on="1"/>
        <pt x="497" y="615" on="0"/>
        <pt x="500" y="608" on="0"/>
        <pt x="500" y="604" on="1"/>
        <pt x="500" y="599" on="0"/>
        <pt x="489" y="586" on="0"/>
        <pt x="480" y="586" on="1"/>
        <pt x="475" y="586" on="0"/>
        <pt x="466" y="591" on="0"/>
        <pt x="463" y="595" on="1"/>
        <pt x="444" y="625" on="0"/>
        <pt x="377" y="670" on="0"/>
        <pt x="316" y="670" on="1"/>
        <pt x="249" y="670" on="0"/>
        <pt x="180" y="605" on="0"/>
        <pt x="180" y="551" on="1"/>
        <pt x="180" y="521" on="0"/>
        <pt x="210" y="449" on="0"/>
        <pt x="262" y="373" on="0"/>
        <pt x="295" y="336" on="1"/>
        <pt x="338" y="287" on="0"/>
        <pt x="430" y="199" on="0"/>
        <pt x="520" y="124" on="0"/>
        <pt x="602" y="64" on="0"/>
        <pt x="635" y="41" on="1"/>
        <pt x="640" y="38" on="0"/>
        <pt x="644" y="30" on="0"/>
        <pt x="644" y="25" on="1"/>
        <pt x="644" y="18" on="0"/>
        <pt x="633" y="4" on="0"/>
      </contour>
    </TTGlyph>
    <TTGlyph name="aogonek" xMin="52" yMin="-185" xMax="552" yMax="515">
      <contour>
        <pt x="286" y="28" on="1"/>
        <pt x="342" y="28" on="0"/>
        <pt x="430" y="87" on="0"/>
        <pt x="480" y="190" on="0"/>
        <pt x="480" y="255" on="1"/>
        <pt x="480" y="317" on="0"/>
        <pt x="430" y="418" on="0"/>
        <pt x="342" y="477" on="0"/>
        <pt x="286" y="477" on="1"/>
        <pt x="231" y="477" on="0"/>
        <pt x="143" y="420" on="0"/>
        <pt x="92" y="320" on="0"/>
        <pt x="92" y="255" on="1"/>
        <pt x="92" y="190" on="0"/>
        <pt x="142" y="87" on="0"/>
        <pt x="230" y="28" on="0"/>
      </contour>
      <contour>
        <pt x="480" y="-185" on="1"/>
        <pt x="447" y="-185" on="0"/>
        <pt x="392" y="-135" on="0"/>
        <pt x="392" y="-93" on="1"/>
        <pt x="392" y="-70" on="0"/>
        <pt x="407" y="-33" on="0"/>
        <pt x="432" y="-7" on="0"/>
        <pt x="462" y="12" on="0"/>
        <pt x="478" y="17" on="1"/>
        <pt x="476" y="9" on="1"/>
        <pt x="476" y="162" on="1"/>
        <pt x="492" y="175" on="1"/>
        <pt x="492" y="143" on="0"/>
        <pt x="460" y="77" on="0"/>
        <pt x="404" y="23" on="0"/>
        <pt x="328" y="-10" on="0"/>
        <pt x="284" y="-10" on="1"/>
        <pt x="217" y="-10" on="0"/>
        <pt x="112" y="60" on="0"/>
        <pt x="52" y="180" on="0"/>
        <pt x="52" y="255" on="1"/>
        <pt x="52" y="331" on="0"/>
        <pt x="113" y="448" on="0"/>
        <pt x="218" y="515" on="0"/>
        <pt x="284" y="515" on="1"/>
        <pt x="327" y="515" on="0"/>
        <pt x="403" y="484" on="0"/>
        <pt x="460" y="428" on="0"/>
        <pt x="492" y="353" on="0"/>
        <pt x="492" y="309" on="1"/>
        <pt x="476" y="334" on="1"/>
        <pt x="476" y="479" on="1"/>
        <pt x="476" y="487" on="0"/>
        <pt x="487" y="499" on="0"/>
        <pt x="496" y="499" on="1"/>
        <pt x="505" y="499" on="0"/>
        <pt x="516" y="487" on="0"/>
        <pt x="516" y="479" on="1"/>
        <pt x="516" y="20" on="1"/>
        <pt x="516" y="13" on="0"/>
        <pt x="505" y="-2" on="0"/>
        <pt x="488" y="-8" on="1"/>
        <pt x="464" y="-16" on="0"/>
        <pt x="430" y="-59" on="0"/>
        <pt x="430" y="-85" on="1"/>
        <pt x="430" y="-115" on="0"/>
        <pt x="464" y="-148" on="0"/>
        <pt x="485" y="-148" on="1"/>
        <pt x="496" y="-148" on="0"/>
        <pt x="512" y="-143" on="0"/>
        <pt x="517" y="-136" on="1"/>
        <pt x="522" y="-131" on="0"/>
        <pt x="531" y="-122" on="0"/>
        <pt x="538" y="-122" on="1"/>
        <pt x="545" y="-122" on="0"/>
        <pt x="552" y="-131" on="0"/>
        <pt x="552" y="-136" on="1"/>
        <pt x="552" y="-149" on="0"/>
        <pt x="533" y="-172" on="0"/>
        <pt x="501" y="-185" on="0"/>
      </contour>
    </TTGlyph>
    <TTGlyph name="aogonek.ss01" xMin="62" yMin="-195" xMax="505" yMax="515">
      <contour>
        <pt x="250" y="28" on="1"/>
        <pt x="312" y="28" on="0"/>
        <pt x="389" y="93" on="0"/>
        <pt x="389" y="148" on="1"/>
        <pt x="389" y="204" on="0"/>
        <pt x="317" y="266" on="0"/>
        <pt x="255" y="266" on="1"/>
        <pt x="189" y="266" on="0"/>
        <pt x="110" y="204" on="0"/>
        <pt x="110" y="148" on="1"/>
        <pt x="110" y="93" on="0"/>
        <pt x="184" y="28" on="0"/>
      </contour>
      <contour>
        <pt x="433" y="-195" on="1"/>
        <pt x="400" y="-195" on="0"/>
        <pt x="345" y="-145" on="0"/>
        <pt x="345" y="-103" on="1"/>
        <pt x="345" y="-80" on="0"/>
        <pt x="360" y="-43" on="0"/>
        <pt x="385" y="-17" on="0"/>
        <pt x="415" y="2" on="0"/>
        <pt x="431" y="7" on="1"/>
        <pt x="452" y="0" on="1"/>
        <pt x="417" y="0" on="0"/>
        <pt x="386" y="35" on="0"/>
        <pt x="386" y="66" on="1"/>
        <pt x="404" y="91" on="1"/>
        <pt x="395" y="57" on="0"/>
        <pt x="346" y="12" on="0"/>
        <pt x="278" y="-10" on="0"/>
        <pt x="239" y="-10" on="1"/>
        <pt x="184" y="-10" on="0"/>
        <pt x="105" y="30" on="0"/>
        <pt x="63" y="100" on="0"/>
        <pt x="63" y="145" on="1"/>
        <pt x="63" y="195" on="0"/>
        <pt x="118" y="266" on="0"/>
        <pt x="205" y="304" on="0"/>
        <pt x="253" y="304" on="1"/>
        <pt x="283" y="304" on="0"/>
        <pt x="340" y="287" on="0"/>
        <pt x="386" y="255" on="0"/>
        <pt x="398" y="232" on="1"/>
        <pt x="386" y="215" on="1"/>
        <pt x="386" y="362" on="1"/>
        <pt x="386" y="412" on="0"/>
        <pt x="346" y="461" on="0"/>
        <pt x="283" y="477" on="0"/>
        <pt x="246" y="477" on="1"/>
        <pt x="200" y="477" on="0"/>
        <pt x="119" y="432" on="0"/>
        <pt x="96" y="398" on="1"/>
        <pt x="89" y="389" on="0"/>
        <pt x="79" y="389" on="1"/>
        <pt x="72" y="389" on="0"/>
        <pt x="62" y="400" on="0"/>
        <pt x="62" y="407" on="1"/>
        <pt x="62" y="410" on="0"/>
        <pt x="64" y="416" on="0"/>
        <pt x="66" y="419" on="1"/>
        <pt x="86" y="449" on="0"/>
        <pt x="142" y="492" on="0"/>
        <pt x="211" y="515" on="0"/>
        <pt x="249" y="515" on="1"/>
        <pt x="297" y="515" on="0"/>
        <pt x="378" y="491" on="0"/>
        <pt x="426" y="427" on="0"/>
        <pt x="426" y="365" on="1"/>
        <pt x="426" y="69" on="1"/>
        <pt x="426" y="47" on="0"/>
        <pt x="449" y="36" on="0"/>
        <pt x="461" y="36" on="1"/>
        <pt x="468" y="36" on="0"/>
        <pt x="478" y="40" on="0"/>
        <pt x="485" y="40" on="1"/>
        <pt x="493" y="40" on="0"/>
        <pt x="502" y="29" on="0"/>
        <pt x="502" y="22" on="1"/>
        <pt x="502" y="12" on="0"/>
        <pt x="481" y="4" on="0"/>
        <pt x="470" y="-1" on="1"/>
        <pt x="452" y="-10" on="0"/>
        <pt x="412" y="-36" on="0"/>
        <pt x="383" y="-72" on="0"/>
        <pt x="383" y="-95" on="1"/>
        <pt x="383" y="-125" on="0"/>
        <pt x="417" y="-158" on="0"/>
        <pt x="438" y="-158" on="1"/>
        <pt x="462" y="-158" on="0"/>
        <pt x="470" y="-147" on="1"/>
        <pt x="475" y="-140" on="0"/>
        <pt x="484" y="-132" on="0"/>
        <pt x="491" y="-132" on="1"/>
        <pt x="498" y="-132" on="0"/>
        <pt x="505" y="-141" on="0"/>
        <pt x="505" y="-146" on="1"/>
        <pt x="505" y="-159" on="0"/>
        <pt x="486" y="-182" on="0"/>
        <pt x="454" y="-195" on="0"/>
      </contour>
    </TTGlyph>
    <TTGlyph name="approxequal" xMin="50" yMin="208" xMax="457" yMax="469">
      <contour>
        <pt x="377" y="370" on="1"/>
        <pt x="349" y="370" on="0"/>
        <pt x="285" y="386" on="0"/>
        <pt x="218" y="407" on="0"/>
        <pt x="155" y="423" on="0"/>
        <pt x="129" y="423" on="1"/>
        <pt x="114" y="423" on="0"/>
        <pt x="92" y="404" on="0"/>
        <pt x="85" y="381" on="1"/>
        <pt x="83" y="374" on="0"/>
        <pt x="72" y="367" on="0"/>
        <pt x="66" y="367" on="1"/>
        <pt x="59" y="367" on="0"/>
        <pt x="50" y="373" on="0"/>
        <pt x="50" y="381" on="1"/>
        <pt x="50" y="396" on="0"/>
        <pt x="67" y="434" on="0"/>
        <pt x="104" y="463" on="0"/>
        <pt x="133" y="463" on="1"/>
        <pt x="162" y="463" on="0"/>
        <pt x="228" y="446" on="0"/>
        <pt x="296" y="425" on="0"/>
        <pt x="359" y="408" on="0"/>
        <pt x="385" y="408" on="1"/>
        <pt x="400" y="408" on="0"/>
        <pt x="418" y="431" on="0"/>
        <pt x="421" y="451" on="1"/>
        <pt x="422" y="459" on="0"/>
        <pt x="432" y="469" on="0"/>
        <pt x="440" y="469" on="1"/>
        <pt x="446" y="469" on="0"/>
        <pt x="457" y="462" on="0"/>
        <pt x="457" y="456" on="1"/>
        <pt x="457" y="431" on="0"/>
        <pt x="438" y="392" on="0"/>
        <pt x="402" y="370" on="0"/>
      </contour>
      <contour>
        <pt x="377" y="211" on="1"/>
        <pt x="349" y="211" on="0"/>
        <pt x="285" y="227" on="0"/>
        <pt x="218" y="248" on="0"/>
        <pt x="155" y="264" on="0"/>
        <pt x="129" y="264" on="1"/>
        <pt x="114" y="264" on="0"/>
        <pt x="92" y="245" on="0"/>
        <pt x="85" y="222" on="1"/>
        <pt x="83" y="215" on="0"/>
        <pt x="72" y="208" on="0"/>
        <pt x="66" y="208" on="1"/>
        <pt x="59" y="208" on="0"/>
        <pt x="50" y="214" on="0"/>
        <pt x="50" y="222" on="1"/>
        <pt x="50" y="237" on="0"/>
        <pt x="67" y="275" on="0"/>
        <pt x="104" y="304" on="0"/>
        <pt x="133" y="304" on="1"/>
        <pt x="162" y="304" on="0"/>
        <pt x="228" y="287" on="0"/>
        <pt x="296" y="266" on="0"/>
        <pt x="359" y="249" on="0"/>
        <pt x="385" y="249" on="1"/>
        <pt x="415" y="249" on="0"/>
        <pt x="421" y="292" on="1"/>
        <pt x="422" y="300" on="0"/>
        <pt x="432" y="310" on="0"/>
        <pt x="440" y="310" on="1"/>
        <pt x="446" y="310" on="0"/>
        <pt x="457" y="303" on="0"/>
        <pt x="457" y="297" on="1"/>
        <pt x="457" y="260" on="0"/>
        <pt x="415" y="211" on="0"/>
      </contour>
    </TTGlyph>
    <TTGlyph name="aring" xMin="52" yMin="-10" xMax="516" yMax="738">
      <component glyphName="a" x="0" y="0" flags="0x204"/>
      <component glyphName="uni030A" x="144" y="0" flags="0x4"/>
    </TTGlyph>
    <TTGlyph name="aring.ss01" xMin="52" yMin="-10" xMax="524" yMax="754">
      <component glyphName="a.ss01" x="0" y="0" flags="0x204"/>
      <component glyphName="uni030A" x="117" y="16" flags="0x4"/>
    </TTGlyph>
    <TTGlyph name="aringacute" xMin="52" yMin="-10" xMax="516" yMax="877">
      <component glyphName="a" x="0" y="0" flags="0x204"/>
      <component glyphName="uni030A" x="161" y="0" flags="0x4"/>
      <component glyphName="acutecomb.case" x="238" y="67" flags="0x4"/>
    </TTGlyph>
    <TTGlyph name="aringacute.ss01" xMin="52" yMin="-10" xMax="524" yMax="924">
      <component glyphName="a.ss01" x="0" y="0" flags="0x204"/>
      <component glyphName="uni030A" x="117" y="16" flags="0x4"/>
      <component glyphName="acutecomb" x="151" y="244" flags="0x4"/>
    </TTGlyph>
    <TTGlyph name="asciicircum" xMin="59" yMin="422" xMax="424" yMax="760">
      <contour>
        <pt x="77" y="422" on="1"/>
        <pt x="69" y="422" on="0"/>
        <pt x="59" y="433" on="0"/>
        <pt x="59" y="440" on="1"/>
        <pt x="59" y="443" on="0"/>
        <pt x="61" y="450" on="0"/>
        <pt x="63" y="454" on="1"/>
        <pt x="216" y="738" on="1"/>
        <pt x="222" y="750" on="0"/>
        <pt x="233" y="760" on="0"/>
        <pt x="242" y="760" on="1"/>
        <pt x="252" y="760" on="0"/>
        <pt x="262" y="749" on="0"/>
        <pt x="268" y="738" on="1"/>
        <pt x="421" y="453" on="1"/>
        <pt x="423" y="450" on="0"/>
        <pt x="424" y="444" on="0"/>
        <pt x="424" y="441" on="1"/>
        <pt x="424" y="434" on="0"/>
        <pt x="415" y="422" on="0"/>
        <pt x="405" y="422" on="1"/>
        <pt x="395" y="422" on="0"/>
        <pt x="383" y="433" on="0"/>
        <pt x="378" y="443" on="1"/>
        <pt x="236" y="718" on="1"/>
        <pt x="248" y="718" on="1"/>
        <pt x="104" y="443" on="1"/>
        <pt x="99" y="433" on="0"/>
        <pt x="88" y="422" on="0"/>
      </contour>
    </TTGlyph>
    <TTGlyph name="asciitilde" xMin="50" yMin="280" xMax="387" yMax="382">
      <contour>
        <pt x="307" y="283" on="1"/>
        <pt x="287" y="283" on="0"/>
        <pt x="241" y="299" on="0"/>
        <pt x="192" y="320" on="0"/>
        <pt x="147" y="336" on="0"/>
        <pt x="129" y="336" on="1"/>
        <pt x="114" y="336" on="0"/>
        <pt x="92" y="317" on="0"/>
        <pt x="85" y="294" on="1"/>
        <pt x="83" y="287" on="0"/>
        <pt x="72" y="280" on="0"/>
        <pt x="66" y="280" on="1"/>
        <pt x="59" y="280" on="0"/>
        <pt x="50" y="286" on="0"/>
        <pt x="50" y="294" on="1"/>
        <pt x="50" y="309" on="0"/>
        <pt x="67" y="347" on="0"/>
        <pt x="104" y="376" on="0"/>
        <pt x="133" y="376" on="1"/>
        <pt x="154" y="376" on="0"/>
        <pt x="203" y="359" on="0"/>
        <pt x="251" y="338" on="0"/>
        <pt x="297" y="321" on="0"/>
        <pt x="315" y="321" on="1"/>
        <pt x="330" y="321" on="0"/>
        <pt x="348" y="344" on="0"/>
        <pt x="351" y="364" on="1"/>
        <pt x="352" y="372" on="0"/>
        <pt x="362" y="382" on="0"/>
        <pt x="370" y="382" on="1"/>
        <pt x="376" y="382" on="0"/>
        <pt x="387" y="375" on="0"/>
        <pt x="387" y="369" on="1"/>
        <pt x="387" y="332" on="0"/>
        <pt x="345" y="283" on="0"/>
      </contour>
    </TTGlyph>
    <TTGlyph name="asterisk" xMin="13" yMin="406" xMax="280" yMax="702">
      <contour>
        <pt x="145" y="406" on="1"/>
        <pt x="137" y="406" on="0"/>
        <pt x="126" y="419" on="0"/>
        <pt x="127" y="428" on="1"/>
        <pt x="133" y="525" on="1"/>
        <pt x="134" y="528" on="0"/>
        <pt x="130" y="531" on="0"/>
        <pt x="128" y="529" on="1"/>
        <pt x="46" y="473" on="1"/>
        <pt x="39" y="468" on="0"/>
        <pt x="22" y="472" on="0"/>
        <pt x="17" y="480" on="1"/>
        <pt x="13" y="488" on="0"/>
        <pt x="18" y="504" on="0"/>
        <pt x="27" y="508" on="1"/>
        <pt x="117" y="551" on="1"/>
        <pt x="120" y="552" on="0"/>
        <pt x="120" y="556" on="0"/>
        <pt x="117" y="557" on="1"/>
        <pt x="27" y="600" on="1"/>
        <pt x="18" y="605" on="0"/>
        <pt x="13" y="622" on="0"/>
        <pt x="18" y="630" on="1"/>
        <pt x="23" y="638" on="0"/>
        <pt x="39" y="640" on="0"/>
        <pt x="46" y="635" on="1"/>
        <pt x="128" y="579" on="1"/>
        <pt x="130" y="578" on="0"/>
        <pt x="134" y="580" on="0"/>
        <pt x="133" y="583" on="1"/>
        <pt x="127" y="680" on="1"/>
        <pt x="126" y="689" on="0"/>
        <pt x="138" y="702" on="0"/>
        <pt x="147" y="702" on="1"/>
        <pt x="155" y="702" on="0"/>
        <pt x="166" y="689" on="0"/>
        <pt x="165" y="680" on="1"/>
        <pt x="159" y="583" on="1"/>
        <pt x="158" y="580" on="0"/>
        <pt x="162" y="578" on="0"/>
        <pt x="164" y="579" on="1"/>
        <pt x="246" y="635" on="1"/>
        <pt x="254" y="640" on="0"/>
        <pt x="271" y="636" on="0"/>
        <pt x="275" y="628" on="1"/>
        <pt x="280" y="621" on="0"/>
        <pt x="274" y="605" on="0"/>
        <pt x="265" y="600" on="1"/>
        <pt x="175" y="557" on="1"/>
        <pt x="172" y="556" on="0"/>
        <pt x="172" y="552" on="0"/>
        <pt x="175" y="551" on="1"/>
        <pt x="265" y="508" on="1"/>
        <pt x="274" y="504" on="0"/>
        <pt x="280" y="488" on="0"/>
        <pt x="275" y="480" on="1"/>
        <pt x="271" y="472" on="0"/>
        <pt x="254" y="468" on="0"/>
        <pt x="246" y="473" on="1"/>
        <pt x="164" y="529" on="1"/>
        <pt x="162" y="531" on="0"/>
        <pt x="158" y="528" on="0"/>
        <pt x="159" y="525" on="1"/>
        <pt x="165" y="428" on="1"/>
        <pt x="166" y="419" on="0"/>
        <pt x="154" y="406" on="0"/>
      </contour>
    </TTGlyph>
    <TTGlyph name="at" xMin="40" yMin="-162" xMax="925" yMax="710">
      <contour>
        <pt x="700" y="55" on="1"/>
        <pt x="670" y="55" on="0"/>
        <pt x="628" y="77" on="0"/>
        <pt x="608" y="118" on="0"/>
        <pt x="611" y="145" on="1"/>
        <pt x="620" y="222" on="1"/>
        <pt x="634" y="230" on="1"/>
        <pt x="612" y="176" on="0"/>
        <pt x="540" y="97" on="0"/>
        <pt x="455" y="55" on="0"/>
        <pt x="412" y="55" on="1"/>
        <pt x="367" y="55" on="0"/>
        <pt x="302" y="101" on="0"/>
        <pt x="266" y="176" on="0"/>
        <pt x="266" y="220" on="1"/>
        <pt x="266" y="267" on="0"/>
        <pt x="302" y="368" on="0"/>
        <pt x="367" y="456" on="0"/>
        <pt x="455" y="510" on="0"/>
        <pt x="507" y="510" on="1"/>
        <pt x="573" y="510" on="0"/>
        <pt x="649" y="430" on="0"/>
        <pt x="658" y="376" on="1"/>
        <pt x="641" y="331" on="1"/>
        <pt x="664" y="477" on="1"/>
        <pt x="666" y="488" on="0"/>
        <pt x="676" y="500" on="0"/>
        <pt x="687" y="500" on="1"/>
        <pt x="698" y="500" on="0"/>
        <pt x="706" y="487" on="0"/>
        <pt x="704" y="472" on="1"/>
        <pt x="654" y="156" on="1"/>
        <pt x="649" y="122" on="0"/>
        <pt x="681" y="92" on="0"/>
        <pt x="700" y="92" on="1"/>
        <pt x="738" y="92" on="0"/>
        <pt x="804" y="145" on="0"/>
        <pt x="856" y="232" on="0"/>
        <pt x="885" y="341" on="0"/>
        <pt x="885" y="396" on="1"/>
        <pt x="885" y="478" on="0"/>
        <pt x="809" y="602" on="0"/>
        <pt x="670" y="672" on="0"/>
        <pt x="576" y="672" on="1"/>
        <pt x="471" y="672" on="0"/>
        <pt x="291" y="609" on="0"/>
        <pt x="156" y="488" on="0"/>
        <pt x="80" y="316" on="0"/>
        <pt x="80" y="206" on="1"/>
        <pt x="80" y="145" on="0"/>
        <pt x="118" y="27" on="0"/>
        <pt x="198" y="-68" on="0"/>
        <pt x="325" y="-124" on="0"/>
        <pt x="414" y="-124" on="1"/>
        <pt x="469" y="-124" on="0"/>
        <pt x="546" y="-107" on="0"/>
        <pt x="607" y="-79" on="0"/>
        <pt x="639" y="-65" on="1"/>
        <pt x="644" y="-63" on="0"/>
        <pt x="658" y="-63" on="0"/>
        <pt x="662" y="-73" on="1"/>
        <pt x="669" y="-90" on="0"/>
        <pt x="653" y="-98" on="1"/>
        <pt x="610" y="-119" on="0"/>
        <pt x="498" y="-162" on="0"/>
        <pt x="414" y="-162" on="1"/>
        <pt x="313" y="-162" on="0"/>
        <pt x="171" y="-99" on="0"/>
        <pt x="82" y="7" on="0"/>
        <pt x="40" y="138" on="0"/>
        <pt x="40" y="206" on="1"/>
        <pt x="40" y="323" on="0"/>
        <pt x="123" y="509" on="0"/>
        <pt x="270" y="641" on="0"/>
        <pt x="464" y="710" on="0"/>
        <pt x="576" y="710" on="1"/>
        <pt x="690" y="710" on="0"/>
        <pt x="846" y="625" on="0"/>
        <pt x="925" y="482" on="0"/>
        <pt x="925" y="396" on="1"/>
        <pt x="925" y="335" on="0"/>
        <pt x="890" y="214" on="0"/>
        <pt x="829" y="115" on="0"/>
        <pt x="747" y="55" on="0"/>
      </contour>
      <contour>
        <pt x="414" y="93" on="1"/>
        <pt x="452" y="93" on="0"/>
        <pt x="531" y="134" on="0"/>
        <pt x="598" y="205" on="0"/>
        <pt x="639" y="294" on="0"/>
        <pt x="639" y="343" on="1"/>
        <pt x="639" y="377" on="0"/>
        <pt x="608" y="436" on="0"/>
        <pt x="549" y="472" on="0"/>
        <pt x="508" y="472" on="1"/>
        <pt x="461" y="472" on="0"/>
        <pt x="387" y="424" on="0"/>
        <pt x="335" y="347" on="0"/>
        <pt x="308" y="260" on="0"/>
        <pt x="308" y="222" on="1"/>
        <pt x="308" y="161" on="0"/>
        <pt x="372" y="93" on="0"/>
      </contour>
    </TTGlyph>
    <TTGlyph name="at.case" xMin="40" yMin="-62" xMax="925" yMax="810">
      <component glyphName="at" x="0" y="100" flags="0x204"/>
    </TTGlyph>
    <TTGlyph name="atilde" xMin="52" yMin="-10" xMax="516" yMax="680">
      <component glyphName="a" x="0" y="0" flags="0x204"/>
      <component glyphName="tildecomb" x="99" y="-10" flags="0x4"/>
    </TTGlyph>
    <TTGlyph name="atilde.ss01" xMin="52" yMin="-10" xMax="524" yMax="696">
      <component glyphName="a.ss01" x="0" y="0" flags="0x204"/>
      <component glyphName="tildecomb" x="72" y="6" flags="0x4"/>
    </TTGlyph>
    <TTGlyph name="b" xMin="83" yMin="-10" xMax="547" yMax="739">
      <contour>
        <pt x="315" y="515" on="1"/>
        <pt x="382" y="515" on="0"/>
        <pt x="486" y="448" on="0"/>
        <pt x="547" y="331" on="0"/>
        <pt x="547" y="255" on="1"/>
        <pt x="547" y="180" on="0"/>
        <pt x="486" y="60" on="0"/>
        <pt x="381" y="-10" on="0"/>
        <pt x="315" y="-10" on="1"/>
        <pt x="282" y="-10" on="0"/>
        <pt x="221" y="10" on="0"/>
        <pt x="169" y="47" on="0"/>
        <pt x="126" y="100" on="0"/>
        <pt x="110" y="133" on="1"/>
        <pt x="123" y="147" on="1"/>
        <pt x="123" y="20" on="1"/>
        <pt x="123" y="12" on="0"/>
        <pt x="112" y="0" on="0"/>
        <pt x="103" y="0" on="1"/>
        <pt x="95" y="0" on="0"/>
        <pt x="83" y="12" on="0"/>
        <pt x="83" y="20" on="1"/>
        <pt x="83" y="719" on="1"/>
        <pt x="83" y="727" on="0"/>
        <pt x="94" y="739" on="0"/>
        <pt x="103" y="739" on="1"/>
        <pt x="112" y="739" on="0"/>
        <pt x="123" y="727" on="0"/>
        <pt x="123" y="719" on="1"/>
        <pt x="123" y="357" on="1"/>
        <pt x="110" y="364" on="1"/>
        <pt x="124" y="401" on="0"/>
        <pt x="166" y="457" on="0"/>
        <pt x="220" y="495" on="0"/>
        <pt x="282" y="515" on="0"/>
      </contour>
      <contour>
        <pt x="313" y="477" on="1"/>
        <pt x="256" y="477" on="0"/>
        <pt x="169" y="420" on="0"/>
        <pt x="119" y="320" on="0"/>
        <pt x="119" y="255" on="1"/>
        <pt x="119" y="190" on="0"/>
        <pt x="169" y="87" on="0"/>
        <pt x="256" y="28" on="0"/>
        <pt x="313" y="28" on="1"/>
        <pt x="369" y="28" on="0"/>
        <pt x="456" y="88" on="0"/>
        <pt x="507" y="191" on="0"/>
        <pt x="507" y="255" on="1"/>
        <pt x="507" y="320" on="0"/>
        <pt x="456" y="420" on="0"/>
        <pt x="369" y="477" on="0"/>
      </contour>
    </TTGlyph>
    <TTGlyph name="backslash" xMin="5" yMin="-133" xMax="508" yMax="803">
      <contour>
        <pt x="488" y="-133" on="1"/>
        <pt x="475" y="-133" on="0"/>
        <pt x="465" y="-121" on="0"/>
        <pt x="461" y="-114" on="1"/>
        <pt x="8" y="774" on="1"/>
        <pt x="6" y="778" on="0"/>
        <pt x="5" y="784" on="0"/>
        <pt x="5" y="787" on="1"/>
        <pt x="5" y="794" on="0"/>
        <pt x="15" y="803" on="0"/>
        <pt x="24" y="803" on="1"/>
        <pt x="40" y="803" on="0"/>
        <pt x="48" y="792" on="0"/>
        <pt x="52" y="784" on="1"/>
        <pt x="505" y="-104" on="1"/>
        <pt x="508" y="-110" on="0"/>
        <pt x="508" y="-116" on="1"/>
        <pt x="508" y="-123" on="0"/>
        <pt x="496" y="-133" on="0"/>
      </contour>
    </TTGlyph>
    <TTGlyph name="backslash.case" xMin="5" yMin="-133" xMax="508" yMax="803">
      <component glyphName="backslash" x="0" y="0" flags="0x4"/>
    </TTGlyph>
    <TTGlyph name="bar" xMin="75" yMin="-200" xMax="115" yMax="780">
      <contour>
        <pt x="115" y="-180" on="1"/>
        <pt x="115" y="-188" on="0"/>
        <pt x="104" y="-200" on="0"/>
        <pt x="95" y="-200" on="1"/>
        <pt x="86" y="-200" on="0"/>
        <pt x="75" y="-188" on="0"/>
        <pt x="75" y="-180" on="1"/>
        <pt x="75" y="760" on="1"/>
        <pt x="75" y="768" on="0"/>
        <pt x="86" y="780" on="0"/>
        <pt x="95" y="780" on="1"/>
        <pt x="104" y="780" on="0"/>
        <pt x="115" y="768" on="0"/>
        <pt x="115" y="760" on="1"/>
      </contour>
    </TTGlyph>
    <TTGlyph name="braceleft" xMin="25" yMin="-200" xMax="388" yMax="713">
      <contour>
        <pt x="369" y="-200" on="1"/>
        <pt x="367" y="-200" on="0"/>
        <pt x="364" y="-199" on="0"/>
        <pt x="362" y="-199" on="1"/>
        <pt x="282" y="-181" on="0"/>
        <pt x="199" y="-127" on="0"/>
        <pt x="171" y="-50" on="0"/>
        <pt x="171" y="0" on="1"/>
        <pt x="171" y="79" on="1"/>
        <pt x="171" y="118" on="0"/>
        <pt x="150" y="190" on="0"/>
        <pt x="98" y="236" on="0"/>
        <pt x="51" y="236" on="1"/>
        <pt x="45" y="236" on="1"/>
        <pt x="37" y="236" on="0"/>
        <pt x="25" y="248" on="0"/>
        <pt x="25" y="256" on="1"/>
        <pt x="25" y="264" on="0"/>
        <pt x="37" y="274" on="0"/>
        <pt x="45" y="274" on="1"/>
        <pt x="51" y="274" on="1"/>
        <pt x="100" y="274" on="0"/>
        <pt x="152" y="320" on="0"/>
        <pt x="171" y="392" on="0"/>
        <pt x="171" y="431" on="1"/>
        <pt x="171" y="510" on="1"/>
        <pt x="171" y="562" on="0"/>
        <pt x="201" y="629" on="0"/>
        <pt x="253" y="670" on="0"/>
        <pt x="321" y="697" on="0"/>
        <pt x="360" y="708" on="1"/>
        <pt x="377" y="713" on="0"/>
        <pt x="386" y="699" on="0"/>
        <pt x="386" y="694" on="1"/>
        <pt x="386" y="688" on="0"/>
        <pt x="378" y="678" on="0"/>
        <pt x="370" y="676" on="1"/>
        <pt x="303" y="656" on="0"/>
        <pt x="235" y="614" on="0"/>
        <pt x="211" y="553" on="0"/>
        <pt x="211" y="504" on="1"/>
        <pt x="211" y="429" on="1"/>
        <pt x="211" y="365" on="0"/>
        <pt x="165" y="266" on="0"/>
        <pt x="121" y="255" on="1"/>
        <pt x="119" y="256" on="1"/>
        <pt x="166" y="244" on="0"/>
        <pt x="211" y="146" on="0"/>
        <pt x="211" y="81" on="1"/>
        <pt x="211" y="6" on="1"/>
        <pt x="211" y="-42" on="0"/>
        <pt x="234" y="-105" on="0"/>
        <pt x="303" y="-147" on="0"/>
        <pt x="370" y="-166" on="1"/>
        <pt x="388" y="-171" on="0"/>
        <pt x="385" y="-189" on="1"/>
        <pt x="384" y="-193" on="0"/>
        <pt x="375" y="-200" on="0"/>
      </contour>
    </TTGlyph>
    <TTGlyph name="braceleft.case" xMin="25" yMin="-150" xMax="388" yMax="763">
      <component glyphName="braceleft" x="0" y="50" flags="0x4"/>
    </TTGlyph>
    <TTGlyph name="braceright" xMin="48" yMin="-200" xMax="411" yMax="710">
      <contour>
        <pt x="68" y="-200" on="1"/>
        <pt x="58" y="-200" on="0"/>
        <pt x="50" y="-189" on="0"/>
        <pt x="50" y="-184" on="1"/>
        <pt x="50" y="-178" on="0"/>
        <pt x="59" y="-168" on="0"/>
        <pt x="66" y="-166" on="1"/>
        <pt x="133" y="-146" on="0"/>
        <pt x="201" y="-104" on="0"/>
        <pt x="225" y="-42" on="0"/>
        <pt x="225" y="6" on="1"/>
        <pt x="225" y="81" on="1"/>
        <pt x="225" y="145" on="0"/>
        <pt x="272" y="245" on="0"/>
        <pt x="315" y="255" on="1"/>
        <pt x="317" y="254" on="1"/>
        <pt x="271" y="266" on="0"/>
        <pt x="225" y="365" on="0"/>
        <pt x="225" y="429" on="1"/>
        <pt x="225" y="504" on="1"/>
        <pt x="225" y="553" on="0"/>
        <pt x="202" y="615" on="0"/>
        <pt x="134" y="658" on="0"/>
        <pt x="66" y="676" on="1"/>
        <pt x="48" y="681" on="0"/>
        <pt x="51" y="699" on="1"/>
        <pt x="53" y="704" on="0"/>
        <pt x="61" y="710" on="0"/>
        <pt x="67" y="710" on="1"/>
        <pt x="69" y="710" on="0"/>
        <pt x="73" y="709" on="0"/>
        <pt x="74" y="709" on="1"/>
        <pt x="155" y="692" on="0"/>
        <pt x="237" y="637" on="0"/>
        <pt x="265" y="560" on="0"/>
        <pt x="265" y="510" on="1"/>
        <pt x="265" y="431" on="1"/>
        <pt x="265" y="392" on="0"/>
        <pt x="286" y="320" on="0"/>
        <pt x="338" y="274" on="0"/>
        <pt x="385" y="274" on="1"/>
        <pt x="391" y="274" on="1"/>
        <pt x="399" y="274" on="0"/>
        <pt x="411" y="262" on="0"/>
        <pt x="411" y="254" on="1"/>
        <pt x="411" y="247" on="0"/>
        <pt x="399" y="236" on="0"/>
        <pt x="391" y="236" on="1"/>
        <pt x="385" y="236" on="1"/>
        <pt x="336" y="236" on="0"/>
        <pt x="284" y="190" on="0"/>
        <pt x="265" y="118" on="0"/>
        <pt x="265" y="79" on="1"/>
        <pt x="265" y="0" on="1"/>
        <pt x="265" y="-37" on="0"/>
        <pt x="246" y="-89" on="0"/>
        <pt x="203" y="-130" on="0"/>
        <pt x="129" y="-171" on="0"/>
        <pt x="74" y="-199" on="1"/>
        <pt x="73" y="-200" on="0"/>
        <pt x="70" y="-200" on="0"/>
      </contour>
    </TTGlyph>
    <TTGlyph name="braceright.case" xMin="48" yMin="-150" xMax="411" yMax="760">
      <component glyphName="braceright" x="0" y="50" flags="0x4"/>
    </TTGlyph>
    <TTGlyph name="bracketleft" xMin="80" yMin="-190" xMax="353" yMax="700">
      <contour>
        <pt x="100" y="-190" on="1"/>
        <pt x="92" y="-190" on="0"/>
        <pt x="80" y="-178" on="0"/>
        <pt x="80" y="-170" on="1"/>
        <pt x="80" y="680" on="1"/>
        <pt x="80" y="688" on="0"/>
        <pt x="92" y="700" on="0"/>
        <pt x="100" y="700" on="1"/>
        <pt x="333" y="700" on="1"/>
        <pt x="341" y="700" on="0"/>
        <pt x="353" y="689" on="0"/>
        <pt x="353" y="681" on="1"/>
        <pt x="353" y="673" on="0"/>
        <pt x="341" y="662" on="0"/>
        <pt x="333" y="662" on="1"/>
        <pt x="110" y="662" on="1"/>
        <pt x="120" y="669" on="1"/>
        <pt x="120" y="-163" on="1"/>
        <pt x="114" y="-150" on="1"/>
        <pt x="333" y="-150" on="1"/>
        <pt x="341" y="-150" on="0"/>
        <pt x="353" y="-163" on="0"/>
        <pt x="353" y="-171" on="1"/>
        <pt x="353" y="-178" on="0"/>
        <pt x="341" y="-190" on="0"/>
        <pt x="333" y="-190" on="1"/>
      </contour>
    </TTGlyph>
    <TTGlyph name="bracketleft.case" xMin="80" yMin="-150" xMax="353" yMax="740">
      <component glyphName="bracketleft" x="0" y="40" flags="0x4"/>
    </TTGlyph>
    <TTGlyph name="bracketright" xMin="40" yMin="-190" xMax="313" yMax="700">
      <contour>
        <pt x="293" y="700" on="1"/>
        <pt x="301" y="700" on="0"/>
        <pt x="313" y="688" on="0"/>
        <pt x="313" y="680" on="1"/>
        <pt x="313" y="-170" on="1"/>
        <pt x="313" y="-178" on="0"/>
        <pt x="301" y="-190" on="0"/>
        <pt x="293" y="-190" on="1"/>
        <pt x="60" y="-190" on="1"/>
        <pt x="52" y="-190" on="0"/>
        <pt x="40" y="-179" on="0"/>
        <pt x="40" y="-171" on="1"/>
        <pt x="40" y="-163" on="0"/>
        <pt x="52" y="-152" on="0"/>
        <pt x="60" y="-152" on="1"/>
        <pt x="283" y="-152" on="1"/>
        <pt x="273" y="-159" on="1"/>
        <pt x="273" y="673" on="1"/>
        <pt x="279" y="660" on="1"/>
        <pt x="60" y="660" on="1"/>
        <pt x="52" y="660" on="0"/>
        <pt x="40" y="673" on="0"/>
        <pt x="40" y="681" on="1"/>
        <pt x="40" y="689" on="0"/>
        <pt x="52" y="700" on="0"/>
        <pt x="60" y="700" on="1"/>
      </contour>
    </TTGlyph>
    <TTGlyph name="bracketright.case" xMin="40" yMin="-150" xMax="313" yMax="740">
      <component glyphName="bracketright" x="0" y="40" flags="0x4"/>
    </TTGlyph>
    <TTGlyph name="breve" xMin="50" yMin="530" xMax="292" yMax="678">
      <component glyphName="uni0306" x="0" y="0" flags="0x4"/>
    </TTGlyph>
    <TTGlyph name="brokenbar" xMin="75" yMin="-200" xMax="116" yMax="780">
      <contour>
        <pt x="116" y="390" on="1"/>
        <pt x="116" y="382" on="0"/>
        <pt x="105" y="370" on="0"/>
        <pt x="96" y="370" on="1"/>
        <pt x="87" y="370" on="0"/>
        <pt x="76" y="382" on="0"/>
        <pt x="76" y="390" on="1"/>
        <pt x="76" y="760" on="1"/>
        <pt x="76" y="768" on="0"/>
        <pt x="87" y="780" on="0"/>
        <pt x="96" y="780" on="1"/>
        <pt x="105" y="780" on="0"/>
        <pt x="116" y="768" on="0"/>
        <pt x="116" y="760" on="1"/>
      </contour>
      <contour>
        <pt x="115" y="-180" on="1"/>
        <pt x="115" y="-188" on="0"/>
        <pt x="104" y="-200" on="0"/>
        <pt x="95" y="-200" on="1"/>
        <pt x="86" y="-200" on="0"/>
        <pt x="75" y="-188" on="0"/>
        <pt x="75" y="-180" on="1"/>
        <pt x="75" y="190" on="1"/>
        <pt x="75" y="198" on="0"/>
        <pt x="86" y="210" on="0"/>
        <pt x="95" y="210" on="1"/>
        <pt x="104" y="210" on="0"/>
        <pt x="115" y="198" on="0"/>
        <pt x="115" y="190" on="1"/>
      </contour>
    </TTGlyph>
    <TTGlyph name="bullet" xMin="46" yMin="228" xMax="294" yMax="476">
      <contour>
        <pt x="170" y="228" on="1"/>
        <pt x="136" y="228" on="0"/>
        <pt x="80" y="262" on="0"/>
        <pt x="46" y="318" on="0"/>
        <pt x="46" y="352" on="1"/>
        <pt x="46" y="386" on="0"/>
        <pt x="80" y="442" on="0"/>
        <pt x="136" y="476" on="0"/>
        <pt x="170" y="476" on="1"/>
        <pt x="204" y="476" on="0"/>
        <pt x="260" y="442" on="0"/>
        <pt x="294" y="386" on="0"/>
        <pt x="294" y="352" on="1"/>
        <pt x="294" y="318" on="0"/>
        <pt x="260" y="262" on="0"/>
        <pt x="204" y="228" on="0"/>
      </contour>
    </TTGlyph>
    <TTGlyph name="bullet.case" xMin="46" yMin="238" xMax="294" yMax="486">
      <component glyphName="bullet" x="0" y="10" flags="0x204"/>
    </TTGlyph>
    <TTGlyph name="c" xMin="52" yMin="-10" xMax="477" yMax="515">
      <contour>
        <pt x="304" y="515" on="1"/>
        <pt x="349" y="515" on="0"/>
        <pt x="428" y="495" on="0"/>
        <pt x="477" y="462" on="0"/>
        <pt x="477" y="444" on="1"/>
        <pt x="477" y="437" on="0"/>
        <pt x="466" y="424" on="0"/>
        <pt x="458" y="424" on="1"/>
        <pt x="447" y="424" on="0"/>
        <pt x="434" y="436" on="0"/>
        <pt x="420" y="453" on="0"/>
        <pt x="405" y="460" on="1"/>
        <pt x="391" y="467" on="0"/>
        <pt x="340" y="477" on="0"/>
        <pt x="303" y="477" on="1"/>
        <pt x="245" y="477" on="0"/>
        <pt x="149" y="417" on="0"/>
        <pt x="92" y="316" on="0"/>
        <pt x="92" y="253" on="1"/>
        <pt x="92" y="189" on="0"/>
        <pt x="145" y="87" on="0"/>
        <pt x="240" y="28" on="0"/>
        <pt x="303" y="28" on="1"/>
        <pt x="348" y="28" on="0"/>
        <pt x="395" y="45" on="0"/>
        <pt x="412" y="55" on="1"/>
        <pt x="433" y="67" on="0"/>
        <pt x="449" y="89" on="0"/>
        <pt x="460" y="89" on="1"/>
        <pt x="468" y="89" on="0"/>
        <pt x="477" y="79" on="0"/>
        <pt x="477" y="71" on="1"/>
        <pt x="477" y="59" on="0"/>
        <pt x="433" y="20" on="0"/>
        <pt x="354" y="-10" on="0"/>
        <pt x="300" y="-10" on="1"/>
        <pt x="227" y="-10" on="0"/>
        <pt x="115" y="59" on="0"/>
        <pt x="52" y="178" on="0"/>
        <pt x="52" y="253" on="1"/>
        <pt x="52" y="323" on="0"/>
        <pt x="115" y="442" on="0"/>
        <pt x="228" y="515" on="0"/>
      </contour>
    </TTGlyph>
    <TTGlyph name="cacute" xMin="52" yMin="-10" xMax="477" yMax="680">
      <component glyphName="c" x="0" y="0" flags="0x204"/>
      <component glyphName="acutecomb" x="187" y="0" flags="0x4"/>
    </TTGlyph>
    <TTGlyph name="caron" xMin="40" yMin="558" xMax="272" yMax="680">
      <component glyphName="uni030C" x="0" y="0" flags="0x4"/>
    </TTGlyph>
    <TTGlyph name="ccaron" xMin="52" yMin="-10" xMax="477" yMax="680">
      <component glyphName="c" x="0" y="0" flags="0x204"/>
      <component glyphName="uni030C" x="144" y="0" flags="0x4"/>
    </TTGlyph>
    <TTGlyph name="ccedilla" xMin="52" yMin="-141" xMax="477" yMax="515">
      <component glyphName="c" x="0" y="0" flags="0x204"/>
      <component glyphName="uni0327" x="150" y="0" flags="0x4"/>
    </TTGlyph>
    <TTGlyph name="ccircumflex" xMin="52" yMin="-10" xMax="477" yMax="689">
      <component glyphName="c" x="0" y="0" flags="0x204"/>
      <component glyphName="uni0302" x="137" y="-11" flags="0x4"/>
    </TTGlyph>
    <TTGlyph name="cdotaccent" xMin="52" yMin="-10" xMax="477" yMax="655">
      <component glyphName="c" x="0" y="0" flags="0x204"/>
      <component glyphName="uni0307" x="216" y="-1" flags="0x4"/>
    </TTGlyph>
    <TTGlyph name="cedilla" xMin="31" yMin="-141" xMax="154" yMax="10">
      <contour>
        <pt x="66" y="-141" on="1"/>
        <pt x="61" y="-141" on="0"/>
        <pt x="44" y="-134" on="0"/>
        <pt x="31" y="-121" on="0"/>
        <pt x="31" y="-114" on="1"/>
        <pt x="31" y="-105" on="0"/>
        <pt x="36" y="-100" on="1"/>
        <pt x="126" y="10" on="1"/>
        <pt x="154" y="10" on="1"/>
        <pt x="87" y="-126" on="1"/>
        <pt x="80" y="-141" on="0"/>
      </contour>
    </TTGlyph>
    <TTGlyph name="cent" xMin="48" yMin="0" xMax="473" yMax="685">
      <contour>
        <pt x="307" y="20" on="1"/>
        <pt x="307" y="12" on="0"/>
        <pt x="296" y="0" on="0"/>
        <pt x="287" y="0" on="1"/>
        <pt x="278" y="0" on="0"/>
        <pt x="267" y="12" on="0"/>
        <pt x="267" y="20" on="1"/>
        <pt x="267" y="96" on="1"/>
        <pt x="267" y="115" on="1"/>
        <pt x="267" y="578" on="1"/>
        <pt x="267" y="592" on="1"/>
        <pt x="267" y="665" on="1"/>
        <pt x="267" y="673" on="0"/>
        <pt x="278" y="685" on="0"/>
        <pt x="287" y="685" on="1"/>
        <pt x="296" y="685" on="0"/>
        <pt x="307" y="673" on="0"/>
        <pt x="307" y="665" on="1"/>
        <pt x="307" y="596" on="1"/>
        <pt x="307" y="582" on="1"/>
        <pt x="307" y="103" on="1"/>
        <pt x="307" y="92" on="1"/>
      </contour>
      <contour>
        <pt x="296" y="80" on="1"/>
        <pt x="223" y="80" on="0"/>
        <pt x="111" y="149" on="0"/>
        <pt x="48" y="268" on="0"/>
        <pt x="48" y="343" on="1"/>
        <pt x="48" y="413" on="0"/>
        <pt x="111" y="532" on="0"/>
        <pt x="224" y="605" on="0"/>
        <pt x="300" y="605" on="1"/>
        <pt x="345" y="605" on="0"/>
        <pt x="424" y="585" on="0"/>
        <pt x="473" y="552" on="0"/>
        <pt x="473" y="534" on="1"/>
        <pt x="473" y="527" on="0"/>
        <pt x="462" y="514" on="0"/>
        <pt x="454" y="514" on="1"/>
        <pt x="443" y="514" on="0"/>
        <pt x="430" y="526" on="0"/>
        <pt x="416" y="543" on="0"/>
        <pt x="401" y="550" on="1"/>
        <pt x="387" y="557" on="0"/>
        <pt x="336" y="567" on="0"/>
        <pt x="299" y="567" on="1"/>
        <pt x="241" y="567" on="0"/>
        <pt x="145" y="507" on="0"/>
        <pt x="88" y="406" on="0"/>
        <pt x="88" y="343" on="1"/>
        <pt x="88" y="279" on="0"/>
        <pt x="141" y="177" on="0"/>
        <pt x="236" y="118" on="0"/>
        <pt x="299" y="118" on="1"/>
        <pt x="344" y="118" on="0"/>
        <pt x="391" y="135" on="0"/>
        <pt x="408" y="145" on="1"/>
        <pt x="429" y="157" on="0"/>
        <pt x="445" y="179" on="0"/>
        <pt x="456" y="179" on="1"/>
        <pt x="464" y="179" on="0"/>
        <pt x="473" y="169" on="0"/>
        <pt x="473" y="161" on="1"/>
        <pt x="473" y="149" on="0"/>
        <pt x="429" y="110" on="0"/>
        <pt x="350" y="80" on="0"/>
      </contour>
    </TTGlyph>
    <TTGlyph name="circumflex" xMin="50" yMin="578" xMax="282" yMax="700">
      <component glyphName="uni0302" x="0" y="0" flags="0x4"/>
    </TTGlyph>
    <TTGlyph name="colon" xMin="50" yMin="0" xMax="108" yMax="510">
      <contour>
        <pt x="77" y="425" on="1"/>
        <pt x="64" y="425" on="0"/>
        <pt x="50" y="443" on="0"/>
        <pt x="50" y="456" on="1"/>
        <pt x="50" y="479" on="1"/>
        <pt x="50" y="493" on="0"/>
        <pt x="64" y="510" on="0"/>
        <pt x="77" y="510" on="1"/>
        <pt x="81" y="510" on="1"/>
        <pt x="95" y="510" on="0"/>
        <pt x="108" y="493" on="0"/>
        <pt x="108" y="479" on="1"/>
        <pt x="108" y="456" on="1"/>
        <pt x="108" y="443" on="0"/>
        <pt x="95" y="425" on="0"/>
        <pt x="81" y="425" on="1"/>
      </contour>
      <contour>
        <pt x="77" y="0" on="1"/>
        <pt x="64" y="0" on="0"/>
        <pt x="50" y="18" on="0"/>
        <pt x="50" y="31" on="1"/>
        <pt x="50" y="54" on="1"/>
        <pt x="50" y="68" on="0"/>
        <pt x="64" y="85" on="0"/>
        <pt x="77" y="85" on="1"/>
        <pt x="81" y="85" on="1"/>
        <pt x="95" y="85" on="0"/>
        <pt x="108" y="68" on="0"/>
        <pt x="108" y="54" on="1"/>
        <pt x="108" y="31" on="1"/>
        <pt x="108" y="18" on="0"/>
        <pt x="95" y="0" on="0"/>
        <pt x="81" y="0" on="1"/>
      </contour>
    </TTGlyph>
    <TTGlyph name="colonmonetary" xMin="46" yMin="-150" xMax="691" yMax="798">
      <contour>
        <pt x="66" y="-111" on="1"/>
        <pt x="55" y="-111" on="0"/>
        <pt x="46" y="-97" on="0"/>
        <pt x="46" y="-89" on="1"/>
        <pt x="46" y="-82" on="0"/>
        <pt x="49" y="-78" on="1"/>
        <pt x="485" y="776" on="1"/>
        <pt x="492" y="790" on="0"/>
        <pt x="504" y="798" on="0"/>
        <pt x="514" y="798" on="1"/>
        <pt x="521" y="798" on="0"/>
        <pt x="532" y="788" on="0"/>
        <pt x="532" y="779" on="1"/>
        <pt x="532" y="771" on="0"/>
        <pt x="528" y="763" on="1"/>
        <pt x="92" y="-92" on="1"/>
        <pt x="86" y="-103" on="0"/>
        <pt x="74" y="-111" on="0"/>
      </contour>
      <contour>
        <pt x="216" y="-150" on="1"/>
        <pt x="206" y="-150" on="0"/>
        <pt x="196" y="-136" on="0"/>
        <pt x="196" y="-129" on="1"/>
        <pt x="196" y="-121" on="0"/>
        <pt x="199" y="-117" on="1"/>
        <pt x="644" y="754" on="1"/>
        <pt x="651" y="768" on="0"/>
        <pt x="663" y="776" on="0"/>
        <pt x="673" y="776" on="1"/>
        <pt x="680" y="776" on="0"/>
        <pt x="691" y="767" on="0"/>
        <pt x="691" y="758" on="1"/>
        <pt x="691" y="749" on="0"/>
        <pt x="687" y="741" on="1"/>
        <pt x="242" y="-131" on="1"/>
        <pt x="236" y="-142" on="0"/>
        <pt x="224" y="-150" on="0"/>
      </contour>
      <contour>
        <pt x="618" y="642" on="1"/>
        <pt x="626" y="636" on="0"/>
        <pt x="628" y="621" on="0"/>
        <pt x="623" y="613" on="1"/>
        <pt x="618" y="606" on="0"/>
        <pt x="603" y="605" on="0"/>
        <pt x="596" y="609" on="1"/>
        <pt x="554" y="638" on="0"/>
        <pt x="455" y="672" on="0"/>
        <pt x="399" y="672" on="1"/>
        <pt x="335" y="672" on="0"/>
        <pt x="224" y="625" on="0"/>
        <pt x="140" y="539" on="0"/>
        <pt x="92" y="421" on="0"/>
        <pt x="92" y="350" on="1"/>
        <pt x="92" y="279" on="0"/>
        <pt x="140" y="161" on="0"/>
        <pt x="224" y="75" on="0"/>
        <pt x="335" y="28" on="0"/>
        <pt x="399" y="28" on="1"/>
        <pt x="455" y="28" on="0"/>
        <pt x="553" y="62" on="0"/>
        <pt x="595" y="90" on="1"/>
        <pt x="602" y="95" on="0"/>
        <pt x="618" y="93" on="0"/>
        <pt x="623" y="86" on="1"/>
        <pt x="628" y="79" on="0"/>
        <pt x="626" y="63" on="0"/>
        <pt x="619" y="58" on="1"/>
        <pt x="595" y="41" on="0"/>
        <pt x="522" y="9" on="0"/>
        <pt x="440" y="-10" on="0"/>
        <pt x="399" y="-10" on="1"/>
        <pt x="327" y="-10" on="0"/>
        <pt x="201" y="44" on="0"/>
        <pt x="105" y="141" on="0"/>
        <pt x="50" y="272" on="0"/>
        <pt x="50" y="350" on="1"/>
        <pt x="50" y="428" on="0"/>
        <pt x="105" y="559" on="0"/>
        <pt x="201" y="656" on="0"/>
        <pt x="327" y="710" on="0"/>
        <pt x="399" y="710" on="1"/>
        <pt x="460" y="710" on="0"/>
        <pt x="573" y="674" on="0"/>
      </contour>
    </TTGlyph>
    <TTGlyph name="comma" xMin="31" yMin="-113" xMax="139" yMax="48">
      <contour>
        <pt x="139" y="-13" on="1"/>
        <pt x="139" y="-38" on="0"/>
        <pt x="109" y="-84" on="0"/>
        <pt x="68" y="-113" on="0"/>
        <pt x="49" y="-113" on="1"/>
        <pt x="42" y="-113" on="0"/>
        <pt x="31" y="-106" on="0"/>
        <pt x="31" y="-95" on="1"/>
        <pt x="31" y="-84" on="0"/>
        <pt x="46" y="-82" on="0"/>
        <pt x="62" y="-74" on="1"/>
        <pt x="80" y="-65" on="0"/>
        <pt x="99" y="-39" on="0"/>
        <pt x="99" y="-23" on="1"/>
        <pt x="99" y="-9" on="0"/>
        <pt x="86" y="4" on="0"/>
        <pt x="78" y="4" on="1"/>
        <pt x="71" y="4" on="0"/>
        <pt x="57" y="-1" on="0"/>
        <pt x="52" y="-5" on="1"/>
        <pt x="48" y="0" on="0"/>
        <pt x="43" y="12" on="0"/>
        <pt x="44" y="18" on="1"/>
        <pt x="46" y="30" on="0"/>
        <pt x="72" y="48" on="0"/>
        <pt x="88" y="48" on="1"/>
        <pt x="110" y="48" on="0"/>
        <pt x="139" y="9" on="0"/>
      </contour>
    </TTGlyph>
    <TTGlyph name="copyright" xMin="50" yMin="0" xMax="750" yMax="700">
      <contour>
        <pt x="400" y="0" on="1"/>
        <pt x="328" y="0" on="0"/>
        <pt x="201" y="52" on="0"/>
        <pt x="104" y="145" on="0"/>
        <pt x="50" y="274" on="0"/>
        <pt x="50" y="350" on="1"/>
        <pt x="50" y="427" on="0"/>
        <pt x="104" y="555" on="0"/>
        <pt x="201" y="648" on="0"/>
        <pt x="328" y="700" on="0"/>
        <pt x="400" y="700" on="1"/>
        <pt x="472" y="700" on="0"/>
        <pt x="599" y="648" on="0"/>
        <pt x="695" y="555" on="0"/>
        <pt x="750" y="427" on="0"/>
        <pt x="750" y="350" on="1"/>
        <pt x="750" y="274" on="0"/>
        <pt x="695" y="145" on="0"/>
        <pt x="599" y="52" on="0"/>
        <pt x="472" y="0" on="0"/>
      </contour>
      <contour>
        <pt x="400" y="38" on="1"/>
        <pt x="464" y="38" on="0"/>
        <pt x="576" y="84" on="0"/>
        <pt x="662" y="167" on="0"/>
        <pt x="710" y="281" on="0"/>
        <pt x="710" y="350" on="1"/>
        <pt x="710" y="418" on="0"/>
        <pt x="662" y="532" on="0"/>
        <pt x="576" y="616" on="0"/>
        <pt x="464" y="662" on="0"/>
        <pt x="400" y="662" on="1"/>
        <pt x="336" y="662" on="0"/>
        <pt x="224" y="616" on="0"/>
        <pt x="138" y="532" on="0"/>
        <pt x="90" y="418" on="0"/>
        <pt x="90" y="350" on="1"/>
        <pt x="90" y="281" on="0"/>
        <pt x="138" y="167" on="0"/>
        <pt x="224" y="84" on="0"/>
        <pt x="336" y="38" on="0"/>
      </contour>
      <contour>
        <pt x="419" y="158" on="1"/>
        <pt x="357" y="158" on="0"/>
        <pt x="269" y="210" on="0"/>
        <pt x="222" y="297" on="0"/>
        <pt x="222" y="350" on="1"/>
        <pt x="222" y="403" on="0"/>
        <pt x="269" y="490" on="0"/>
        <pt x="357" y="541" on="0"/>
        <pt x="419" y="541" on="1"/>
        <pt x="486" y="541" on="0"/>
        <pt x="538" y="505" on="1"/>
        <pt x="544" y="501" on="0"/>
        <pt x="547" y="484" on="0"/>
        <pt x="542" y="477" on="1"/>
        <pt x="538" y="470" on="0"/>
        <pt x="522" y="469" on="0"/>
        <pt x="515" y="473" on="1"/>
        <pt x="494" y="487" on="0"/>
        <pt x="446" y="503" on="0"/>
        <pt x="419" y="503" on="1"/>
        <pt x="369" y="503" on="0"/>
        <pt x="298" y="463" on="0"/>
        <pt x="262" y="394" on="0"/>
        <pt x="262" y="350" on="1"/>
        <pt x="262" y="306" on="0"/>
        <pt x="298" y="236" on="0"/>
        <pt x="368" y="196" on="0"/>
        <pt x="419" y="196" on="1"/>
        <pt x="446" y="196" on="0"/>
        <pt x="494" y="213" on="0"/>
        <pt x="516" y="226" on="1"/>
        <pt x="522" y="230" on="0"/>
        <pt x="538" y="228" on="0"/>
        <pt x="542" y="221" on="1"/>
        <pt x="547" y="216" on="0"/>
        <pt x="545" y="199" on="0"/>
        <pt x="538" y="193" on="1"/>
        <pt x="513" y="177" on="0"/>
        <pt x="451" y="158" on="0"/>
      </contour>
    </TTGlyph>
    <TTGlyph name="currency" xMin="50" yMin="131" xMax="414" yMax="467">
      <contour>
        <pt x="68" y="467" on="1"/>
        <pt x="75" y="467" on="0"/>
        <pt x="81" y="461" on="1"/>
        <pt x="141" y="408" on="1"/>
        <pt x="141" y="408" on="0"/>
        <pt x="129" y="394" on="0"/>
        <pt x="117" y="380" on="0"/>
        <pt x="117" y="380" on="1"/>
        <pt x="57" y="435" on="1"/>
        <pt x="50" y="442" on="0"/>
        <pt x="50" y="448" on="1"/>
        <pt x="50" y="453" on="0"/>
        <pt x="55" y="461" on="0"/>
        <pt x="64" y="467" on="0"/>
      </contour>
      <contour>
        <pt x="396" y="467" on="1"/>
        <pt x="400" y="467" on="0"/>
        <pt x="408" y="461" on="0"/>
        <pt x="414" y="453" on="0"/>
        <pt x="414" y="448" on="1"/>
        <pt x="414" y="442" on="0"/>
        <pt x="407" y="435" on="1"/>
        <pt x="348" y="382" on="1"/>
        <pt x="348" y="382" on="0"/>
        <pt x="337" y="396" on="0"/>
        <pt x="326" y="409" on="0"/>
        <pt x="326" y="409" on="1"/>
        <pt x="383" y="461" on="1"/>
        <pt x="389" y="467" on="0"/>
      </contour>
      <contour>
        <pt x="396" y="131" on="1"/>
        <pt x="389" y="131" on="0"/>
        <pt x="383" y="137" on="1"/>
        <pt x="326" y="189" on="1"/>
        <pt x="326" y="189" on="0"/>
        <pt x="338" y="203" on="0"/>
        <pt x="350" y="216" on="0"/>
        <pt x="350" y="216" on="1"/>
        <pt x="407" y="163" on="1"/>
        <pt x="414" y="156" on="0"/>
        <pt x="414" y="150" on="1"/>
        <pt x="414" y="146" on="0"/>
        <pt x="409" y="137" on="0"/>
        <pt x="401" y="131" on="0"/>
      </contour>
      <contour>
        <pt x="68" y="131" on="1"/>
        <pt x="64" y="131" on="0"/>
        <pt x="56" y="137" on="0"/>
        <pt x="50" y="146" on="0"/>
        <pt x="50" y="150" on="1"/>
        <pt x="50" y="156" on="0"/>
        <pt x="57" y="163" on="1"/>
        <pt x="118" y="220" on="1"/>
        <pt x="118" y="220" on="0"/>
        <pt x="131" y="207" on="0"/>
        <pt x="143" y="193" on="0"/>
        <pt x="143" y="193" on="1"/>
        <pt x="81" y="137" on="1"/>
        <pt x="75" y="131" on="0"/>
      </contour>
      <contour>
        <pt x="232" y="144" on="1"/>
        <pt x="191" y="144" on="0"/>
        <pt x="123" y="186" on="0"/>
        <pt x="83" y="256" on="0"/>
        <pt x="83" y="299" on="1"/>
        <pt x="83" y="342" on="0"/>
        <pt x="123" y="412" on="0"/>
        <pt x="191" y="454" on="0"/>
        <pt x="232" y="454" on="1"/>
        <pt x="274" y="454" on="0"/>
        <pt x="342" y="412" on="0"/>
        <pt x="382" y="342" on="0"/>
        <pt x="382" y="299" on="1"/>
        <pt x="382" y="256" on="0"/>
        <pt x="342" y="186" on="0"/>
        <pt x="274" y="144" on="0"/>
      </contour>
      <contour>
        <pt x="232" y="174" on="1"/>
        <pt x="264" y="174" on="0"/>
        <pt x="316" y="207" on="0"/>
        <pt x="347" y="264" on="0"/>
        <pt x="347" y="298" on="1"/>
        <pt x="347" y="333" on="0"/>
        <pt x="316" y="389" on="0"/>
        <pt x="264" y="423" on="0"/>
        <pt x="232" y="423" on="1"/>
        <pt x="201" y="423" on="0"/>
        <pt x="149" y="389" on="0"/>
        <pt x="118" y="333" on="0"/>
        <pt x="118" y="298" on="1"/>
        <pt x="118" y="264" on="0"/>
        <pt x="149" y="207" on="0"/>
        <pt x="201" y="174" on="0"/>
      </contour>
    </TTGlyph>
    <TTGlyph name="d" xMin="52" yMin="-10" xMax="516" yMax="740">
      <contour>
        <pt x="496" y="740" on="1"/>
        <pt x="505" y="740" on="0"/>
        <pt x="516" y="728" on="0"/>
        <pt x="516" y="720" on="1"/>
        <pt x="516" y="20" on="1"/>
        <pt x="516" y="12" on="0"/>
        <pt x="504" y="0" on="0"/>
        <pt x="496" y="0" on="1"/>
        <pt x="487" y="0" on="0"/>
        <pt x="476" y="12" on="0"/>
        <pt x="476" y="20" on="1"/>
        <pt x="476" y="162" on="1"/>
        <pt x="492" y="184" on="1"/>
        <pt x="492" y="150" on="0"/>
        <pt x="461" y="81" on="0"/>
        <pt x="404" y="24" on="0"/>
        <pt x="328" y="-10" on="0"/>
        <pt x="284" y="-10" on="1"/>
        <pt x="218" y="-10" on="0"/>
        <pt x="113" y="59" on="0"/>
        <pt x="52" y="178" on="0"/>
        <pt x="52" y="253" on="1"/>
        <pt x="52" y="328" on="0"/>
        <pt x="113" y="447" on="0"/>
        <pt x="218" y="515" on="0"/>
        <pt x="284" y="515" on="1"/>
        <pt x="325" y="515" on="0"/>
        <pt x="400" y="484" on="0"/>
        <pt x="458" y="428" on="0"/>
        <pt x="492" y="353" on="0"/>
        <pt x="492" y="309" on="1"/>
        <pt x="476" y="334" on="1"/>
        <pt x="476" y="720" on="1"/>
        <pt x="476" y="728" on="0"/>
        <pt x="487" y="740" on="0"/>
      </contour>
      <contour>
        <pt x="286" y="28" on="1"/>
        <pt x="343" y="28" on="0"/>
        <pt x="430" y="86" on="0"/>
        <pt x="480" y="188" on="0"/>
        <pt x="480" y="253" on="1"/>
        <pt x="480" y="318" on="0"/>
        <pt x="430" y="419" on="0"/>
        <pt x="342" y="477" on="0"/>
        <pt x="286" y="477" on="1"/>
        <pt x="231" y="477" on="0"/>
        <pt x="143" y="419" on="0"/>
        <pt x="92" y="318" on="0"/>
        <pt x="92" y="253" on="1"/>
        <pt x="92" y="189" on="0"/>
        <pt x="143" y="87" on="0"/>
        <pt x="231" y="28" on="0"/>
      </contour>
    </TTGlyph>
    <TTGlyph name="dagger" xMin="50" yMin="180" xMax="334" yMax="700">
      <contour>
        <pt x="172" y="682" on="1"/>
        <pt x="172" y="690" on="0"/>
        <pt x="182" y="700" on="0"/>
        <pt x="192" y="700" on="1"/>
        <pt x="202" y="700" on="0"/>
        <pt x="212" y="690" on="0"/>
        <pt x="212" y="682" on="1"/>
        <pt x="212" y="198" on="1"/>
        <pt x="213" y="190" on="0"/>
        <pt x="202" y="180" on="0"/>
        <pt x="192" y="180" on="1"/>
        <pt x="182" y="180" on="0"/>
        <pt x="171" y="190" on="0"/>
        <pt x="172" y="198" on="1"/>
      </contour>
      <contour>
        <pt x="70" y="505" on="1"/>
        <pt x="61" y="505" on="0"/>
        <pt x="50" y="516" on="0"/>
        <pt x="50" y="525" on="1"/>
        <pt x="50" y="535" on="0"/>
        <pt x="61" y="545" on="0"/>
        <pt x="70" y="545" on="1"/>
        <pt x="314" y="545" on="1"/>
        <pt x="323" y="545" on="0"/>
        <pt x="334" y="534" on="0"/>
        <pt x="334" y="525" on="1"/>
        <pt x="334" y="515" on="0"/>
        <pt x="323" y="505" on="0"/>
        <pt x="314" y="505" on="1"/>
      </contour>
    </TTGlyph>
    <TTGlyph name="daggerdbl" xMin="50" yMin="180" xMax="334" yMax="700">
      <contour>
        <pt x="172" y="682" on="1"/>
        <pt x="172" y="690" on="0"/>
        <pt x="182" y="700" on="0"/>
        <pt x="192" y="700" on="1"/>
        <pt x="202" y="700" on="0"/>
        <pt x="212" y="690" on="0"/>
        <pt x="212" y="682" on="1"/>
        <pt x="212" y="198" on="1"/>
        <pt x="213" y="190" on="0"/>
        <pt x="202" y="180" on="0"/>
        <pt x="192" y="180" on="1"/>
        <pt x="182" y="180" on="0"/>
        <pt x="171" y="190" on="0"/>
        <pt x="172" y="198" on="1"/>
      </contour>
      <contour>
        <pt x="70" y="505" on="1"/>
        <pt x="61" y="505" on="0"/>
        <pt x="50" y="516" on="0"/>
        <pt x="50" y="525" on="1"/>
        <pt x="50" y="535" on="0"/>
        <pt x="61" y="545" on="0"/>
        <pt x="70" y="545" on="1"/>
        <pt x="314" y="545" on="1"/>
        <pt x="323" y="545" on="0"/>
        <pt x="334" y="534" on="0"/>
        <pt x="334" y="525" on="1"/>
        <pt x="334" y="515" on="0"/>
        <pt x="323" y="505" on="0"/>
        <pt x="314" y="505" on="1"/>
      </contour>
      <contour>
        <pt x="70" y="355" on="1"/>
        <pt x="61" y="355" on="0"/>
        <pt x="50" y="366" on="0"/>
        <pt x="50" y="375" on="1"/>
        <pt x="50" y="385" on="0"/>
        <pt x="61" y="395" on="0"/>
        <pt x="70" y="395" on="1"/>
        <pt x="314" y="395" on="1"/>
        <pt x="323" y="395" on="0"/>
        <pt x="334" y="384" on="0"/>
        <pt x="334" y="375" on="1"/>
        <pt x="334" y="365" on="0"/>
        <pt x="323" y="355" on="0"/>
        <pt x="314" y="355" on="1"/>
      </contour>
    </TTGlyph>
    <TTGlyph name="dcaron" xMin="52" yMin="-10" xMax="657" yMax="746">
      <component glyphName="d" x="0" y="0" flags="0x204"/>
      <component glyphName="uni030C.alt" x="518" y="0" flags="0x4"/>
    </TTGlyph>
    <TTGlyph name="dcroat" xMin="52" yMin="-10" xMax="572" yMax="740">
      <component glyphName="d" x="0" y="0" flags="0x204"/>
      <component glyphName="uni0335" x="322" y="351" flags="0x4"/>
    </TTGlyph>
    <TTGlyph name="degree" xMin="25" yMin="432" xMax="287" yMax="706">
      <contour>
        <pt x="156" y="432" on="1"/>
        <pt x="119" y="432" on="0"/>
        <pt x="60" y="470" on="0"/>
        <pt x="25" y="532" on="0"/>
        <pt x="25" y="568" on="1"/>
        <pt x="25" y="606" on="0"/>
        <pt x="60" y="668" on="0"/>
        <pt x="119" y="706" on="0"/>
        <pt x="156" y="706" on="1"/>
        <pt x="194" y="706" on="0"/>
        <pt x="253" y="668" on="0"/>
        <pt x="287" y="607" on="0"/>
        <pt x="287" y="570" on="1"/>
        <pt x="287" y="533" on="0"/>
        <pt x="252" y="470" on="0"/>
        <pt x="193" y="432" on="0"/>
      </contour>
      <contour>
        <pt x="156" y="470" on="1"/>
        <pt x="195" y="470" on="0"/>
        <pt x="247" y="530" on="0"/>
        <pt x="247" y="570" on="1"/>
        <pt x="247" y="608" on="0"/>
        <pt x="195" y="668" on="0"/>
        <pt x="156" y="668" on="1"/>
        <pt x="117" y="668" on="0"/>
        <pt x="65" y="608" on="0"/>
        <pt x="65" y="568" on="1"/>
        <pt x="65" y="530" on="0"/>
        <pt x="117" y="470" on="0"/>
      </contour>
    </TTGlyph>
    <TTGlyph name="dieresis" xMin="80" yMin="600" xMax="312" yMax="680">
      <component glyphName="uni0308" x="0" y="0" flags="0x4"/>
    </TTGlyph>
    <TTGlyph name="divide" xMin="50" yMin="126" xMax="494" yMax="537">
      <contour>
        <pt x="233" y="501" on="1"/>
        <pt x="233" y="516" on="0"/>
        <pt x="253" y="537" on="0"/>
        <pt x="267" y="537" on="1"/>
        <pt x="281" y="537" on="0"/>
        <pt x="302" y="516" on="0"/>
        <pt x="302" y="501" on="1"/>
        <pt x="302" y="487" on="0"/>
        <pt x="281" y="467" on="0"/>
        <pt x="267" y="467" on="1"/>
        <pt x="253" y="467" on="0"/>
        <pt x="233" y="487" on="0"/>
      </contour>
      <contour>
        <pt x="233" y="160" on="1"/>
        <pt x="233" y="174" on="0"/>
        <pt x="253" y="195" on="0"/>
        <pt x="267" y="195" on="1"/>
        <pt x="281" y="195" on="0"/>
        <pt x="302" y="174" on="0"/>
        <pt x="302" y="160" on="1"/>
        <pt x="302" y="146" on="0"/>
        <pt x="281" y="126" on="0"/>
        <pt x="267" y="126" on="1"/>
        <pt x="253" y="126" on="0"/>
        <pt x="233" y="146" on="0"/>
      </contour>
      <contour>
        <pt x="71" y="313" on="1"/>
        <pt x="62" y="313" on="0"/>
        <pt x="50" y="325" on="0"/>
        <pt x="50" y="334" on="1"/>
        <pt x="50" y="342" on="0"/>
        <pt x="62" y="353" on="0"/>
        <pt x="71" y="353" on="1"/>
        <pt x="473" y="353" on="1"/>
        <pt x="482" y="353" on="0"/>
        <pt x="494" y="341" on="0"/>
        <pt x="494" y="332" on="1"/>
        <pt x="494" y="325" on="0"/>
        <pt x="482" y="313" on="0"/>
        <pt x="473" y="313" on="1"/>
      </contour>
    </TTGlyph>
    <TTGlyph name="dollar" xMin="35" yMin="-160" xMax="499" yMax="820">
      <component glyphName="S" x="0" y="0" flags="0x204"/>
      <component glyphName="bar" x="185" y="40" flags="0x4"/>
    </TTGlyph>
    <TTGlyph name="dong" xMin="40" yMin="-1" xMax="437" yMax="700">
      <contour>
        <pt x="202" y="111" on="1"/>
        <pt x="156" y="111" on="0"/>
        <pt x="83" y="160" on="0"/>
        <pt x="40" y="243" on="0"/>
        <pt x="40" y="294" on="1"/>
        <pt x="40" y="346" on="0"/>
        <pt x="83" y="428" on="0"/>
        <pt x="156" y="476" on="0"/>
        <pt x="202" y="476" on="1"/>
        <pt x="240" y="476" on="0"/>
        <pt x="302" y="443" on="0"/>
        <pt x="340" y="390" on="0"/>
        <pt x="340" y="360" on="1"/>
        <pt x="324" y="388" on="1"/>
        <pt x="324" y="680" on="1"/>
        <pt x="324" y="688" on="0"/>
        <pt x="335" y="700" on="0"/>
        <pt x="344" y="700" on="1"/>
        <pt x="353" y="700" on="0"/>
        <pt x="364" y="688" on="0"/>
        <pt x="364" y="680" on="1"/>
        <pt x="364" y="141" on="1"/>
        <pt x="364" y="132" on="0"/>
        <pt x="352" y="121" on="0"/>
        <pt x="344" y="121" on="1"/>
        <pt x="335" y="121" on="0"/>
        <pt x="324" y="133" on="0"/>
        <pt x="324" y="141" on="1"/>
        <pt x="324" y="233" on="1"/>
        <pt x="340" y="241" on="1"/>
        <pt x="340" y="208" on="0"/>
        <pt x="303" y="148" on="0"/>
        <pt x="240" y="111" on="0"/>
      </contour>
      <contour>
        <pt x="204" y="149" on="1"/>
        <pt x="240" y="149" on="0"/>
        <pt x="296" y="187" on="0"/>
        <pt x="328" y="253" on="0"/>
        <pt x="328" y="294" on="1"/>
        <pt x="328" y="335" on="0"/>
        <pt x="295" y="400" on="0"/>
        <pt x="239" y="438" on="0"/>
        <pt x="204" y="438" on="1"/>
        <pt x="169" y="438" on="0"/>
        <pt x="112" y="400" on="0"/>
        <pt x="80" y="335" on="0"/>
        <pt x="80" y="294" on="1"/>
        <pt x="80" y="254" on="0"/>
        <pt x="112" y="188" on="0"/>
        <pt x="169" y="149" on="0"/>
      </contour>
      <contour>
        <pt x="64" y="-1" on="1"/>
        <pt x="54" y="-1" on="0"/>
        <pt x="42" y="10" on="0"/>
        <pt x="42" y="18" on="1"/>
        <pt x="42" y="26" on="0"/>
        <pt x="54" y="37" on="0"/>
        <pt x="64" y="37" on="1"/>
        <pt x="381" y="37" on="1"/>
        <pt x="391" y="37" on="0"/>
        <pt x="403" y="28" on="0"/>
        <pt x="403" y="18" on="1"/>
        <pt x="403" y="10" on="0"/>
        <pt x="391" y="-1" on="0"/>
        <pt x="381" y="-1" on="1"/>
      </contour>
      <contour>
        <pt x="248" y="570" on="1"/>
        <pt x="240" y="570" on="0"/>
        <pt x="229" y="583" on="0"/>
        <pt x="229" y="591" on="1"/>
        <pt x="229" y="599" on="0"/>
        <pt x="240" y="610" on="0"/>
        <pt x="248" y="610" on="1"/>
        <pt x="418" y="610" on="1"/>
        <pt x="426" y="610" on="0"/>
        <pt x="437" y="598" on="0"/>
        <pt x="437" y="589" on="1"/>
        <pt x="437" y="581" on="0"/>
        <pt x="426" y="570" on="0"/>
        <pt x="418" y="570" on="1"/>
      </contour>
    </TTGlyph>
    <TTGlyph name="dotaccent" xMin="50" yMin="584" xMax="119" yMax="656">
      <component glyphName="uni0307" x="0" y="0" flags="0x4"/>
    </TTGlyph>
    <TTGlyph name="dotbelowcomb" xMin="50" yMin="-156" xMax="119" yMax="-84">
      <contour>
        <pt x="85" y="-156" on="1"/>
        <pt x="69" y="-156" on="0"/>
        <pt x="50" y="-138" on="0"/>
        <pt x="50" y="-124" on="1"/>
        <pt x="50" y="-116" on="1"/>
        <pt x="50" y="-102" on="0"/>
        <pt x="70" y="-84" on="0"/>
        <pt x="86" y="-84" on="1"/>
        <pt x="100" y="-84" on="0"/>
        <pt x="119" y="-102" on="0"/>
        <pt x="119" y="-116" on="1"/>
        <pt x="119" y="-124" on="1"/>
        <pt x="119" y="-138" on="0"/>
        <pt x="100" y="-156" on="0"/>
      </contour>
    </TTGlyph>
    <TTGlyph name="dotbelowcomb.case" xMin="50" yMin="-137" xMax="119" yMax="-57">
      <contour>
        <pt x="85" y="-137" on="1"/>
        <pt x="69" y="-137" on="0"/>
        <pt x="50" y="-117" on="0"/>
        <pt x="50" y="-101" on="1"/>
        <pt x="50" y="-93" on="1"/>
        <pt x="50" y="-77" on="0"/>
        <pt x="70" y="-57" on="0"/>
        <pt x="86" y="-57" on="1"/>
        <pt x="100" y="-57" on="0"/>
        <pt x="119" y="-77" on="0"/>
        <pt x="119" y="-93" on="1"/>
        <pt x="119" y="-101" on="1"/>
        <pt x="119" y="-117" on="0"/>
        <pt x="100" y="-137" on="0"/>
      </contour>
    </TTGlyph>
    <TTGlyph name="dotlessi" xMin="83" yMin="0" xMax="123" yMax="515">
      <contour>
        <pt x="123" y="20" on="1"/>
        <pt x="123" y="12" on="0"/>
        <pt x="111" y="0" on="0"/>
        <pt x="103" y="0" on="1"/>
        <pt x="94" y="0" on="0"/>
        <pt x="83" y="12" on="0"/>
        <pt x="83" y="20" on="1"/>
        <pt x="83" y="495" on="1"/>
        <pt x="83" y="503" on="0"/>
        <pt x="95" y="515" on="0"/>
        <pt x="103" y="515" on="1"/>
        <pt x="112" y="515" on="0"/>
        <pt x="123" y="503" on="0"/>
        <pt x="123" y="495" on="1"/>
      </contour>
    </TTGlyph>
    <TTGlyph name="e" xMin="52" yMin="-10" xMax="504" yMax="515">
      <contour>
        <pt x="308" y="-10" on="1"/>
        <pt x="233" y="-10" on="0"/>
        <pt x="118" y="54" on="0"/>
        <pt x="52" y="171" on="0"/>
        <pt x="52" y="250" on="1"/>
        <pt x="52" y="334" on="0"/>
        <pt x="117" y="452" on="0"/>
        <pt x="220" y="515" on="0"/>
        <pt x="278" y="515" on="1"/>
        <pt x="320" y="515" on="0"/>
        <pt x="400" y="488" on="0"/>
        <pt x="463" y="431" on="0"/>
        <pt x="502" y="346" on="0"/>
        <pt x="504" y="287" on="1"/>
        <pt x="504" y="279" on="0"/>
        <pt x="492" y="266" on="0"/>
        <pt x="484" y="266" on="1"/>
        <pt x="76" y="266" on="1"/>
        <pt x="70" y="304" on="1"/>
        <pt x="473" y="304" on="1"/>
        <pt x="463" y="295" on="1"/>
        <pt x="463" y="313" on="1"/>
        <pt x="458" y="366" on="0"/>
        <pt x="401" y="438" on="0"/>
        <pt x="321" y="475" on="0"/>
        <pt x="278" y="475" on="1"/>
        <pt x="248" y="475" on="0"/>
        <pt x="182" y="448" on="0"/>
        <pt x="126" y="393" on="0"/>
        <pt x="91" y="309" on="0"/>
        <pt x="91" y="253" on="1"/>
        <pt x="91" y="192" on="0"/>
        <pt x="140" y="90" on="0"/>
        <pt x="237" y="28" on="0"/>
        <pt x="308" y="28" on="1"/>
        <pt x="342" y="28" on="0"/>
        <pt x="402" y="51" on="0"/>
        <pt x="450" y="89" on="0"/>
        <pt x="465" y="111" on="1"/>
        <pt x="473" y="120" on="0"/>
        <pt x="482" y="120" on="1"/>
        <pt x="489" y="120" on="0"/>
        <pt x="499" y="109" on="0"/>
        <pt x="499" y="102" on="1"/>
        <pt x="499" y="95" on="0"/>
        <pt x="495" y="90" on="1"/>
        <pt x="464" y="50" on="0"/>
        <pt x="367" y="-10" on="0"/>
      </contour>
    </TTGlyph>
    <TTGlyph name="eacute" xMin="52" yMin="-10" xMax="504" yMax="680">
      <component glyphName="e" x="0" y="0" flags="0x204"/>
      <component glyphName="acutecomb" x="171" y="0" flags="0x4"/>
    </TTGlyph>
    <TTGlyph name="ebreve" xMin="52" yMin="-10" xMax="504" yMax="721">
      <component glyphName="e" x="0" y="0" flags="0x204"/>
      <component glyphName="uni0306" x="104" y="43" flags="0x4"/>
    </TTGlyph>
    <TTGlyph name="ecaron" xMin="52" yMin="-10" xMax="504" yMax="680">
      <component glyphName="e" x="0" y="0" flags="0x204"/>
      <component glyphName="uni030C" x="128" y="0" flags="0x4"/>
    </TTGlyph>
    <TTGlyph name="ecircumflex" xMin="52" yMin="-10" xMax="504" yMax="689">
      <component glyphName="e" x="0" y="0" flags="0x204"/>
      <component glyphName="uni0302" x="121" y="-11" flags="0x4"/>
    </TTGlyph>
    <TTGlyph name="edieresis" xMin="52" yMin="-10" xMax="504" yMax="679">
      <component glyphName="e" x="0" y="0" flags="0x204"/>
      <component glyphName="uni0308" x="89" y="-1" flags="0x4"/>
    </TTGlyph>
    <TTGlyph name="edotaccent" xMin="52" yMin="-10" xMax="504" yMax="655">
      <component glyphName="e" x="0" y="0" flags="0x204"/>
      <component glyphName="uni0307" x="200" y="-1" flags="0x4"/>
    </TTGlyph>
    <TTGlyph name="egrave" xMin="52" yMin="-10" xMax="504" yMax="688">
      <component glyphName="e" x="0" y="0" flags="0x204"/>
      <component glyphName="gravecomb" x="132" y="0" flags="0x4"/>
    </TTGlyph>
    <TTGlyph name="eight" xMin="60" yMin="-10" xMax="477" yMax="700">
      <contour>
        <pt x="356" y="351" on="1"/>
        <pt x="353" y="355" on="1"/>
        <pt x="386" y="343" on="0"/>
        <pt x="442" y="293" on="0"/>
        <pt x="477" y="223" on="0"/>
        <pt x="477" y="179" on="1"/>
        <pt x="477" y="127" on="0"/>
        <pt x="422" y="41" on="0"/>
        <pt x="327" y="-10" on="0"/>
        <pt x="268" y="-10" on="1"/>
        <pt x="209" y="-10" on="0"/>
        <pt x="115" y="41" on="0"/>
        <pt x="60" y="127" on="0"/>
        <pt x="60" y="179" on="1"/>
        <pt x="60" y="223" on="0"/>
        <pt x="94" y="292" on="0"/>
        <pt x="150" y="341" on="0"/>
        <pt x="182" y="354" on="1"/>
        <pt x="180" y="350" on="1"/>
        <pt x="153" y="363" on="0"/>
        <pt x="106" y="411" on="0"/>
        <pt x="76" y="476" on="0"/>
        <pt x="76" y="514" on="1"/>
        <pt x="76" y="567" on="0"/>
        <pt x="127" y="651" on="0"/>
        <pt x="215" y="700" on="0"/>
        <pt x="268" y="700" on="1"/>
        <pt x="321" y="700" on="0"/>
        <pt x="408" y="651" on="0"/>
        <pt x="459" y="567" on="0"/>
        <pt x="459" y="514" on="1"/>
        <pt x="459" y="476" on="0"/>
        <pt x="430" y="412" on="0"/>
        <pt x="383" y="364" on="0"/>
      </contour>
      <contour>
        <pt x="118" y="514" on="1"/>
        <pt x="118" y="470" on="0"/>
        <pt x="160" y="404" on="0"/>
        <pt x="229" y="367" on="0"/>
        <pt x="268" y="367" on="1"/>
        <pt x="307" y="367" on="0"/>
        <pt x="375" y="404" on="0"/>
        <pt x="417" y="470" on="0"/>
        <pt x="417" y="514" on="1"/>
        <pt x="417" y="579" on="0"/>
        <pt x="334" y="660" on="0"/>
        <pt x="268" y="660" on="1"/>
        <pt x="201" y="660" on="0"/>
        <pt x="118" y="579" on="0"/>
      </contour>
      <contour>
        <pt x="268" y="30" on="1"/>
        <pt x="343" y="30" on="0"/>
        <pt x="435" y="114" on="0"/>
        <pt x="435" y="179" on="1"/>
        <pt x="435" y="223" on="0"/>
        <pt x="389" y="292" on="0"/>
        <pt x="313" y="331" on="0"/>
        <pt x="268" y="331" on="1"/>
        <pt x="224" y="331" on="0"/>
        <pt x="148" y="292" on="0"/>
        <pt x="102" y="223" on="0"/>
        <pt x="102" y="179" on="1"/>
        <pt x="102" y="114" on="0"/>
        <pt x="193" y="30" on="0"/>
      </contour>
    </TTGlyph>
    <TTGlyph name="eight.dnom" xMin="30" yMin="-10" xMax="243" yMax="307">
      <contour>
        <pt x="136" y="-10" on="1"/>
        <pt x="106" y="-10" on="0"/>
        <pt x="58" y="14" on="0"/>
        <pt x="30" y="53" on="0"/>
        <pt x="30" y="77" on="1"/>
        <pt x="30" y="97" on="0"/>
        <pt x="48" y="128" on="0"/>
        <pt x="76" y="150" on="0"/>
        <pt x="91" y="156" on="1"/>
        <pt x="91" y="154" on="1"/>
        <pt x="71" y="162" on="0"/>
        <pt x="38" y="202" on="0"/>
        <pt x="38" y="227" on="1"/>
        <pt x="38" y="250" on="0"/>
        <pt x="64" y="286" on="0"/>
        <pt x="109" y="307" on="0"/>
        <pt x="136" y="307" on="1"/>
        <pt x="164" y="307" on="0"/>
        <pt x="208" y="286" on="0"/>
        <pt x="234" y="250" on="0"/>
        <pt x="234" y="227" on="1"/>
        <pt x="234" y="202" on="0"/>
        <pt x="201" y="164" on="0"/>
        <pt x="181" y="155" on="1"/>
        <pt x="180" y="157" on="1"/>
        <pt x="204" y="148" on="0"/>
        <pt x="243" y="106" on="0"/>
        <pt x="243" y="77" on="1"/>
        <pt x="243" y="53" on="0"/>
        <pt x="215" y="14" on="0"/>
        <pt x="167" y="-10" on="0"/>
      </contour>
      <contour>
        <pt x="136" y="170" on="1"/>
        <pt x="158" y="170" on="0"/>
        <pt x="194" y="196" on="0"/>
        <pt x="194" y="220" on="1"/>
        <pt x="194" y="243" on="0"/>
        <pt x="161" y="271" on="0"/>
        <pt x="136" y="271" on="1"/>
        <pt x="111" y="271" on="0"/>
        <pt x="78" y="243" on="0"/>
        <pt x="78" y="220" on="1"/>
        <pt x="78" y="196" on="0"/>
        <pt x="114" y="170" on="0"/>
      </contour>
      <contour>
        <pt x="136" y="26" on="1"/>
        <pt x="164" y="26" on="0"/>
        <pt x="200" y="58" on="0"/>
        <pt x="200" y="83" on="1"/>
        <pt x="200" y="107" on="0"/>
        <pt x="160" y="134" on="0"/>
        <pt x="136" y="134" on="1"/>
        <pt x="112" y="134" on="0"/>
        <pt x="73" y="107" on="0"/>
        <pt x="73" y="83" on="1"/>
        <pt x="73" y="58" on="0"/>
        <pt x="108" y="26" on="0"/>
      </contour>
    </TTGlyph>
    <TTGlyph name="eight.numr" xMin="30" yMin="395" xMax="243" yMax="712">
      <component glyphName="eight.dnom" x="0" y="405" flags="0x204"/>
    </TTGlyph>
    <TTGlyph name="ellipsis" xMin="50" yMin="0" xMax="487" yMax="85">
      <component glyphName="period" x="0" y="0" flags="0x4"/>
      <component glyphName="period" x="184" y="0" flags="0x4"/>
      <component glyphName="period" x="379" y="0" flags="0x4"/>
    </TTGlyph>
    <TTGlyph name="emacron" xMin="52" yMin="-10" xMax="504" yMax="646">
      <component glyphName="e" x="0" y="0" flags="0x204"/>
      <component glyphName="uni0304" x="92" y="39" flags="0x4"/>
    </TTGlyph>
    <TTGlyph name="emdash" xMin="60" yMin="228" xMax="762" yMax="271">
      <contour>
        <pt x="81" y="228" on="1"/>
        <pt x="72" y="228" on="0"/>
        <pt x="60" y="240" on="0"/>
        <pt x="60" y="249" on="1"/>
        <pt x="60" y="259" on="0"/>
        <pt x="72" y="271" on="0"/>
        <pt x="81" y="271" on="1"/>
        <pt x="741" y="271" on="1"/>
        <pt x="750" y="271" on="0"/>
        <pt x="762" y="259" on="0"/>
        <pt x="762" y="249" on="1"/>
        <pt x="762" y="240" on="0"/>
        <pt x="750" y="228" on="0"/>
        <pt x="741" y="228" on="1"/>
      </contour>
    </TTGlyph>
    <TTGlyph name="emdash.case" xMin="60" yMin="288" xMax="762" yMax="331">
      <component glyphName="emdash" x="0" y="60" flags="0x204"/>
    </TTGlyph>
    <TTGlyph name="emptyset" xMin="25" yMin="-10" xMax="563" yMax="519">
      <contour>
        <pt x="45" y="-4" on="1"/>
        <pt x="38" y="-4" on="0"/>
        <pt x="25" y="9" on="0"/>
        <pt x="25" y="17" on="1"/>
        <pt x="25" y="25" on="0"/>
        <pt x="32" y="32" on="1"/>
        <pt x="528" y="513" on="1"/>
        <pt x="536" y="519" on="0"/>
        <pt x="543" y="519" on="1"/>
        <pt x="551" y="519" on="0"/>
        <pt x="563" y="507" on="0"/>
        <pt x="563" y="499" on="1"/>
        <pt x="563" y="491" on="0"/>
        <pt x="556" y="484" on="1"/>
        <pt x="60" y="3" on="1"/>
        <pt x="54" y="-4" on="0"/>
      </contour>
      <contour>
        <pt x="295" y="-10" on="1"/>
        <pt x="242" y="-10" on="0"/>
        <pt x="152" y="30" on="0"/>
        <pt x="85" y="101" on="0"/>
        <pt x="48" y="196" on="0"/>
        <pt x="48" y="252" on="1"/>
        <pt x="48" y="308" on="0"/>
        <pt x="85" y="404" on="0"/>
        <pt x="152" y="475" on="0"/>
        <pt x="242" y="515" on="0"/>
        <pt x="295" y="515" on="1"/>
        <pt x="348" y="515" on="0"/>
        <pt x="438" y="475" on="0"/>
        <pt x="504" y="404" on="0"/>
        <pt x="541" y="308" on="0"/>
        <pt x="541" y="252" on="1"/>
        <pt x="541" y="196" on="0"/>
        <pt x="504" y="101" on="0"/>
        <pt x="438" y="30" on="0"/>
        <pt x="348" y="-10" on="0"/>
      </contour>
      <contour>
        <pt x="295" y="28" on="1"/>
        <pt x="355" y="28" on="0"/>
        <pt x="448" y="87" on="0"/>
        <pt x="501" y="188" on="0"/>
        <pt x="501" y="252" on="1"/>
        <pt x="501" y="317" on="0"/>
        <pt x="448" y="418" on="0"/>
        <pt x="355" y="477" on="0"/>
        <pt x="295" y="477" on="1"/>
        <pt x="236" y="477" on="0"/>
        <pt x="142" y="418" on="0"/>
        <pt x="88" y="317" on="0"/>
        <pt x="88" y="252" on="1"/>
        <pt x="88" y="188" on="0"/>
        <pt x="142" y="87" on="0"/>
        <pt x="236" y="28" on="0"/>
      </contour>
    </TTGlyph>
    <TTGlyph name="endash" xMin="60" yMin="228" xMax="448" yMax="266">
      <contour>
        <pt x="81" y="228" on="1"/>
        <pt x="72" y="228" on="0"/>
        <pt x="60" y="238" on="0"/>
        <pt x="60" y="247" on="1"/>
        <pt x="60" y="257" on="0"/>
        <pt x="72" y="266" on="0"/>
        <pt x="81" y="266" on="1"/>
        <pt x="427" y="266" on="1"/>
        <pt x="436" y="266" on="0"/>
        <pt x="448" y="257" on="0"/>
        <pt x="448" y="247" on="1"/>
        <pt x="448" y="238" on="0"/>
        <pt x="436" y="228" on="0"/>
        <pt x="427" y="228" on="1"/>
      </contour>
    </TTGlyph>
    <TTGlyph name="endash.case" xMin="60" yMin="278" xMax="448" yMax="316">
      <component glyphName="endash" x="0" y="50" flags="0x204"/>
    </TTGlyph>
    <TTGlyph name="eng" xMin="83" yMin="-200" xMax="490" yMax="515">
      <contour>
        <pt x="311" y="-200" on="1"/>
        <pt x="301" y="-200" on="0"/>
        <pt x="289" y="-189" on="0"/>
        <pt x="289" y="-180" on="1"/>
        <pt x="289" y="-171" on="0"/>
        <pt x="301" y="-160" on="0"/>
        <pt x="310" y="-160" on="1"/>
        <pt x="368" y="-160" on="0"/>
        <pt x="427" y="-130" on="0"/>
        <pt x="449" y="-77" on="0"/>
        <pt x="449" y="-44" on="1"/>
        <pt x="449" y="322" on="1"/>
        <pt x="449" y="365" on="0"/>
        <pt x="420" y="435" on="0"/>
        <pt x="357" y="477" on="0"/>
        <pt x="306" y="477" on="1"/>
        <pt x="262" y="477" on="0"/>
        <pt x="178" y="435" on="0"/>
        <pt x="123" y="365" on="0"/>
        <pt x="123" y="322" on="1"/>
        <pt x="123" y="20" on="1"/>
        <pt x="123" y="12" on="0"/>
        <pt x="111" y="0" on="0"/>
        <pt x="103" y="0" on="1"/>
        <pt x="94" y="0" on="0"/>
        <pt x="83" y="12" on="0"/>
        <pt x="83" y="20" on="1"/>
        <pt x="83" y="479" on="1"/>
        <pt x="83" y="487" on="0"/>
        <pt x="95" y="499" on="0"/>
        <pt x="103" y="499" on="1"/>
        <pt x="112" y="499" on="0"/>
        <pt x="123" y="487" on="0"/>
        <pt x="123" y="479" on="1"/>
        <pt x="123" y="381" on="1"/>
        <pt x="98" y="333" on="1"/>
        <pt x="98" y="369" on="0"/>
        <pt x="136" y="435" on="0"/>
        <pt x="198" y="486" on="0"/>
        <pt x="273" y="515" on="0"/>
        <pt x="310" y="515" on="1"/>
        <pt x="373" y="515" on="0"/>
        <pt x="452" y="465" on="0"/>
        <pt x="489" y="379" on="0"/>
        <pt x="489" y="326" on="1"/>
        <pt x="489" y="-44" on="1"/>
        <pt x="490" y="-83" on="0"/>
        <pt x="459" y="-155" on="0"/>
        <pt x="382" y="-200" on="0"/>
      </contour>
    </TTGlyph>
    <TTGlyph name="eogonek" xMin="52" yMin="-185" xMax="504" yMax="515">
      <contour>
        <pt x="424" y="-185" on="1"/>
        <pt x="402" y="-185" on="0"/>
        <pt x="360" y="-162" on="0"/>
        <pt x="332" y="-121" on="0"/>
        <pt x="332" y="-93" on="1"/>
        <pt x="332" y="-75" on="0"/>
        <pt x="342" y="-43" on="0"/>
        <pt x="360" y="-15" on="0"/>
        <pt x="385" y="10" on="0"/>
        <pt x="401" y="20" on="1"/>
        <pt x="405" y="14" on="1"/>
        <pt x="384" y="3" on="0"/>
        <pt x="334" y="-10" on="0"/>
        <pt x="308" y="-10" on="1"/>
        <pt x="233" y="-10" on="0"/>
        <pt x="118" y="54" on="0"/>
        <pt x="52" y="171" on="0"/>
        <pt x="52" y="250" on="1"/>
        <pt x="52" y="334" on="0"/>
        <pt x="117" y="452" on="0"/>
        <pt x="220" y="515" on="0"/>
        <pt x="278" y="515" on="1"/>
        <pt x="320" y="515" on="0"/>
        <pt x="400" y="488" on="0"/>
        <pt x="463" y="431" on="0"/>
        <pt x="502" y="346" on="0"/>
        <pt x="504" y="287" on="1"/>
        <pt x="504" y="279" on="0"/>
        <pt x="492" y="266" on="0"/>
        <pt x="484" y="266" on="1"/>
        <pt x="74" y="266" on="1"/>
        <pt x="77" y="304" on="1"/>
        <pt x="474" y="304" on="1"/>
        <pt x="463" y="292" on="1"/>
        <pt x="463" y="313" on="1"/>
        <pt x="458" y="366" on="0"/>
        <pt x="401" y="438" on="0"/>
        <pt x="321" y="475" on="0"/>
        <pt x="278" y="475" on="1"/>
        <pt x="230" y="475" on="0"/>
        <pt x="145" y="423" on="0"/>
        <pt x="91" y="324" on="0"/>
        <pt x="91" y="253" on="1"/>
        <pt x="91" y="192" on="0"/>
        <pt x="140" y="90" on="0"/>
        <pt x="237" y="28" on="0"/>
        <pt x="308" y="28" on="1"/>
        <pt x="342" y="28" on="0"/>
        <pt x="402" y="51" on="0"/>
        <pt x="450" y="89" on="0"/>
        <pt x="465" y="111" on="1"/>
        <pt x="473" y="120" on="0"/>
        <pt x="482" y="120" on="1"/>
        <pt x="489" y="120" on="0"/>
        <pt x="499" y="109" on="0"/>
        <pt x="499" y="102" on="1"/>
        <pt x="499" y="99" on="0"/>
        <pt x="497" y="93" on="0"/>
        <pt x="495" y="90" on="1"/>
        <pt x="467" y="53" on="0"/>
        <pt x="409" y="0" on="0"/>
        <pt x="370" y="-52" on="0"/>
        <pt x="370" y="-87" on="1"/>
        <pt x="370" y="-113" on="0"/>
        <pt x="403" y="-148" on="0"/>
        <pt x="429" y="-148" on="1"/>
        <pt x="453" y="-148" on="0"/>
        <pt x="461" y="-137" on="1"/>
        <pt x="466" y="-130" on="0"/>
        <pt x="475" y="-122" on="0"/>
        <pt x="482" y="-122" on="1"/>
        <pt x="490" y="-122" on="0"/>
        <pt x="497" y="-129" on="0"/>
        <pt x="497" y="-136" on="1"/>
        <pt x="497" y="-146" on="0"/>
        <pt x="474" y="-169" on="0"/>
        <pt x="440" y="-185" on="0"/>
      </contour>
    </TTGlyph>
    <TTGlyph name="equal" xMin="50" yMin="218" xMax="436" yMax="437">
      <contour>
        <pt x="71" y="397" on="1"/>
        <pt x="62" y="397" on="0"/>
        <pt x="50" y="409" on="0"/>
        <pt x="50" y="418" on="1"/>
        <pt x="50" y="426" on="0"/>
        <pt x="62" y="437" on="0"/>
        <pt x="71" y="437" on="1"/>
        <pt x="415" y="437" on="1"/>
        <pt x="424" y="437" on="0"/>
        <pt x="436" y="425" on="0"/>
        <pt x="436" y="416" on="1"/>
        <pt x="436" y="409" on="0"/>
        <pt x="424" y="397" on="0"/>
        <pt x="415" y="397" on="1"/>
      </contour>
      <contour>
        <pt x="71" y="218" on="1"/>
        <pt x="62" y="218" on="0"/>
        <pt x="50" y="230" on="0"/>
        <pt x="50" y="239" on="1"/>
        <pt x="50" y="247" on="0"/>
        <pt x="62" y="258" on="0"/>
        <pt x="71" y="258" on="1"/>
        <pt x="415" y="258" on="1"/>
        <pt x="424" y="258" on="0"/>
        <pt x="436" y="246" on="0"/>
        <pt x="436" y="237" on="1"/>
        <pt x="436" y="230" on="0"/>
        <pt x="424" y="218" on="0"/>
        <pt x="415" y="218" on="1"/>
      </contour>
    </TTGlyph>
    <TTGlyph name="estimated" xMin="52" yMin="-12" xMax="584" yMax="558">
      <contour>
        <pt x="318" y="-12" on="1"/>
        <pt x="237" y="-12" on="0"/>
        <pt x="118" y="64" on="0"/>
        <pt x="52" y="194" on="0"/>
        <pt x="52" y="273" on="1"/>
        <pt x="52" y="353" on="0"/>
        <pt x="118" y="482" on="0"/>
        <pt x="237" y="558" on="0"/>
        <pt x="318" y="558" on="1"/>
        <pt x="394" y="558" on="0"/>
        <pt x="511" y="491" on="0"/>
        <pt x="580" y="372" on="0"/>
        <pt x="584" y="294" on="1"/>
        <pt x="584" y="290" on="0"/>
        <pt x="577" y="273" on="0"/>
        <pt x="564" y="273" on="1"/>
        <pt x="140" y="273" on="1"/>
        <pt x="148" y="278" on="1"/>
        <pt x="148" y="100" on="1"/>
        <pt x="148" y="99" on="0"/>
        <pt x="149" y="98" on="0"/>
        <pt x="149" y="98" on="1"/>
        <pt x="180" y="61" on="0"/>
        <pt x="273" y="25" on="0"/>
        <pt x="318" y="25" on="1"/>
        <pt x="379" y="25" on="0"/>
        <pt x="481" y="76" on="0"/>
        <pt x="517" y="140" on="1"/>
        <pt x="522" y="148" on="0"/>
        <pt x="530" y="148" on="1"/>
        <pt x="541" y="148" on="0"/>
        <pt x="550" y="137" on="0"/>
        <pt x="550" y="130" on="1"/>
        <pt x="550" y="122" on="0"/>
        <pt x="544" y="114" on="1"/>
        <pt x="499" y="47" on="0"/>
        <pt x="395" y="-12" on="0"/>
      </contour>
      <contour>
        <pt x="500" y="311" on="1"/>
        <pt x="489" y="305" on="1"/>
        <pt x="489" y="448" on="1"/>
        <pt x="489" y="449" on="0"/>
        <pt x="488" y="451" on="0"/>
        <pt x="488" y="451" on="1"/>
        <pt x="455" y="489" on="0"/>
        <pt x="361" y="520" on="0"/>
        <pt x="317" y="520" on="1"/>
        <pt x="273" y="520" on="0"/>
        <pt x="180" y="488" on="0"/>
        <pt x="149" y="451" on="1"/>
        <pt x="148" y="450" on="0"/>
        <pt x="148" y="449" on="1"/>
        <pt x="148" y="298" on="1"/>
        <pt x="140" y="311" on="1"/>
      </contour>
    </TTGlyph>
    <TTGlyph name="eth" xMin="52" yMin="-1" xMax="517" yMax="740">
      <contour>
        <pt x="284" y="-1" on="1"/>
        <pt x="220" y="-1" on="0"/>
        <pt x="114" y="71" on="0"/>
        <pt x="52" y="190" on="0"/>
        <pt x="52" y="261" on="1"/>
        <pt x="52" y="314" on="0"/>
        <pt x="88" y="405" on="0"/>
        <pt x="151" y="474" on="0"/>
        <pt x="236" y="513" on="0"/>
        <pt x="284" y="513" on="1"/>
        <pt x="337" y="513" on="0"/>
        <pt x="415" y="468" on="0"/>
        <pt x="467" y="399" on="0"/>
        <pt x="481" y="362" on="1"/>
        <pt x="464" y="368" on="1"/>
        <pt x="454" y="423" on="0"/>
        <pt x="412" y="531" on="0"/>
        <pt x="346" y="623" on="0"/>
        <pt x="251" y="688" on="0"/>
        <pt x="187" y="700" on="1"/>
        <pt x="180" y="702" on="0"/>
        <pt x="171" y="711" on="0"/>
        <pt x="171" y="718" on="1"/>
        <pt x="171" y="729" on="0"/>
        <pt x="180" y="740" on="0"/>
        <pt x="189" y="740" on="1"/>
        <pt x="194" y="740" on="0"/>
        <pt x="196" y="739" on="1"/>
        <pt x="270" y="724" on="0"/>
        <pt x="379" y="646" on="0"/>
        <pt x="453" y="540" on="0"/>
        <pt x="497" y="427" on="0"/>
        <pt x="517" y="322" on="0"/>
        <pt x="517" y="285" on="1"/>
        <pt x="517" y="202" on="0"/>
        <pt x="454" y="72" on="0"/>
        <pt x="349" y="-1" on="0"/>
      </contour>
      <contour>
        <pt x="284" y="37" on="1"/>
        <pt x="337" y="37" on="0"/>
        <pt x="424" y="99" on="0"/>
        <pt x="476" y="201" on="0"/>
        <pt x="476" y="261" on="1"/>
        <pt x="476" y="316" on="0"/>
        <pt x="425" y="414" on="0"/>
        <pt x="338" y="475" on="0"/>
        <pt x="284" y="475" on="1"/>
        <pt x="231" y="475" on="0"/>
        <pt x="143" y="418" on="0"/>
        <pt x="92" y="321" on="0"/>
        <pt x="92" y="261" on="1"/>
        <pt x="92" y="201" on="0"/>
        <pt x="144" y="99" on="0"/>
        <pt x="232" y="37" on="0"/>
      </contour>
      <contour>
        <pt x="235" y="553" on="1"/>
        <pt x="227" y="550" on="0"/>
        <pt x="212" y="556" on="0"/>
        <pt x="209" y="564" on="1"/>
        <pt x="206" y="572" on="0"/>
        <pt x="213" y="587" on="0"/>
        <pt x="221" y="590" on="1"/>
        <pt x="327" y="631" on="1"/>
        <pt x="362" y="644" on="1"/>
        <pt x="458" y="682" on="1"/>
        <pt x="466" y="686" on="0"/>
        <pt x="481" y="679" on="0"/>
        <pt x="484" y="671" on="1"/>
        <pt x="487" y="663" on="0"/>
        <pt x="480" y="648" on="0"/>
        <pt x="472" y="645" on="1"/>
        <pt x="390" y="613" on="1"/>
        <pt x="358" y="601" on="1"/>
      </contour>
    </TTGlyph>
    <TTGlyph name="exclam" xMin="50" yMin="0" xMax="108" yMax="700">
      <contour>
        <pt x="79" y="187" on="1"/>
        <pt x="65" y="187" on="0"/>
        <pt x="64" y="203" on="1"/>
        <pt x="59" y="669" on="1"/>
        <pt x="59" y="683" on="0"/>
        <pt x="66" y="700" on="0"/>
        <pt x="79" y="700" on="1"/>
        <pt x="92" y="700" on="0"/>
        <pt x="99" y="683" on="0"/>
        <pt x="99" y="669" on="1"/>
        <pt x="94" y="203" on="1"/>
        <pt x="93" y="187" on="0"/>
      </contour>
      <contour>
        <pt x="77" y="0" on="1"/>
        <pt x="64" y="0" on="0"/>
        <pt x="50" y="18" on="0"/>
        <pt x="50" y="31" on="1"/>
        <pt x="50" y="54" on="1"/>
        <pt x="50" y="68" on="0"/>
        <pt x="64" y="85" on="0"/>
        <pt x="77" y="85" on="1"/>
        <pt x="81" y="85" on="1"/>
        <pt x="95" y="85" on="0"/>
        <pt x="108" y="68" on="0"/>
        <pt x="108" y="54" on="1"/>
        <pt x="108" y="31" on="1"/>
        <pt x="108" y="18" on="0"/>
        <pt x="95" y="0" on="0"/>
        <pt x="81" y="0" on="1"/>
      </contour>
    </TTGlyph>
    <TTGlyph name="exclamdown" xMin="50" yMin="-199" xMax="108" yMax="501">
      <contour>
        <pt x="79" y="314" on="1"/>
        <pt x="93" y="314" on="0"/>
        <pt x="94" y="298" on="1"/>
        <pt x="99" y="-168" on="1"/>
        <pt x="99" y="-181" on="0"/>
        <pt x="92" y="-199" on="0"/>
        <pt x="79" y="-199" on="1"/>
        <pt x="66" y="-199" on="0"/>
        <pt x="59" y="-181" on="0"/>
        <pt x="59" y="-168" on="1"/>
        <pt x="64" y="298" on="1"/>
        <pt x="65" y="314" on="0"/>
      </contour>
      <contour>
        <pt x="81" y="501" on="1"/>
        <pt x="95" y="501" on="0"/>
        <pt x="108" y="484" on="0"/>
        <pt x="108" y="470" on="1"/>
        <pt x="108" y="447" on="1"/>
        <pt x="108" y="434" on="0"/>
        <pt x="95" y="416" on="0"/>
        <pt x="81" y="416" on="1"/>
        <pt x="77" y="416" on="1"/>
        <pt x="64" y="416" on="0"/>
        <pt x="50" y="434" on="0"/>
        <pt x="50" y="447" on="1"/>
        <pt x="50" y="470" on="1"/>
        <pt x="50" y="484" on="0"/>
        <pt x="64" y="501" on="0"/>
        <pt x="77" y="501" on="1"/>
      </contour>
    </TTGlyph>
    <TTGlyph name="f" xMin="28" yMin="0" xMax="309" yMax="735">
      <contour>
        <pt x="239" y="735" on="1"/>
        <pt x="251" y="735" on="0"/>
        <pt x="284" y="731" on="0"/>
        <pt x="309" y="719" on="0"/>
        <pt x="309" y="707" on="1"/>
        <pt x="309" y="700" on="0"/>
        <pt x="298" y="687" on="0"/>
        <pt x="290" y="687" on="1"/>
        <pt x="280" y="687" on="0"/>
        <pt x="252" y="699" on="0"/>
        <pt x="235" y="699" on="1"/>
        <pt x="215" y="699" on="0"/>
        <pt x="184" y="681" on="0"/>
        <pt x="167" y="644" on="0"/>
        <pt x="167" y="615" on="1"/>
        <pt x="167" y="20" on="1"/>
        <pt x="167" y="12" on="0"/>
        <pt x="155" y="0" on="0"/>
        <pt x="147" y="0" on="1"/>
        <pt x="138" y="0" on="0"/>
        <pt x="127" y="12" on="0"/>
        <pt x="127" y="20" on="1"/>
        <pt x="127" y="615" on="1"/>
        <pt x="127" y="677" on="0"/>
        <pt x="193" y="735" on="0"/>
      </contour>
      <contour>
        <pt x="285" y="493" on="1"/>
        <pt x="293" y="493" on="0"/>
        <pt x="304" y="482" on="0"/>
        <pt x="304" y="474" on="1"/>
        <pt x="304" y="466" on="0"/>
        <pt x="293" y="455" on="0"/>
        <pt x="285" y="455" on="1"/>
        <pt x="47" y="455" on="1"/>
        <pt x="40" y="455" on="0"/>
        <pt x="28" y="467" on="0"/>
        <pt x="28" y="474" on="1"/>
        <pt x="28" y="483" on="0"/>
        <pt x="40" y="493" on="0"/>
        <pt x="47" y="493" on="1"/>
      </contour>
    </TTGlyph>
    <TTGlyph name="f_f" xMin="28" yMin="0" xMax="643" yMax="735">
      <component glyphName="f" x="0" y="0" flags="0x4"/>
      <component glyphName="f" x="334" y="0" flags="0x4"/>
    </TTGlyph>
    <TTGlyph name="f_f_i" xMin="28" yMin="0" xMax="805" yMax="735">
      <component glyphName="f" x="0" y="0" flags="0x4"/>
      <component glyphName="f" x="334" y="0" flags="0x4"/>
      <component glyphName="dotlessi" x="668" y="0" flags="0x4"/>
      <component glyphName="uni0307" x="686" y="-1" flags="0x4"/>
    </TTGlyph>
    <TTGlyph name="f_f_ij" xMin="28" yMin="-198" xMax="1024" yMax="735">
      <component glyphName="f" x="0" y="0" flags="0x4"/>
      <component glyphName="f" x="334" y="0" flags="0x4"/>
      <component glyphName="dotlessi" x="668" y="0" flags="0x4"/>
      <component glyphName="uni0307" x="686" y="-1" flags="0x4"/>
      <component glyphName="uni0237" x="874" y="0" flags="0x4"/>
      <component glyphName="uni0307" x="905" y="0" flags="0x4"/>
    </TTGlyph>
    <TTGlyph name="f_f_l" xMin="28" yMin="0" xMax="796" yMax="740">
      <component glyphName="f" x="0" y="0" flags="0x4"/>
      <component glyphName="f" x="334" y="0" flags="0x4"/>
      <component glyphName="l" x="668" y="0" flags="0x4"/>
    </TTGlyph>
    <TTGlyph name="f_ij" xMin="28" yMin="-198" xMax="690" yMax="735">
      <component glyphName="f" x="0" y="0" flags="0x4"/>
      <component glyphName="dotlessi" x="334" y="0" flags="0x4"/>
      <component glyphName="uni0307" x="352" y="-1" flags="0x4"/>
      <component glyphName="uni0237" x="540" y="0" flags="0x4"/>
      <component glyphName="uni0307" x="571" y="0" flags="0x4"/>
    </TTGlyph>
    <TTGlyph name="fi" xMin="28" yMin="0" xMax="471" yMax="735">
      <component glyphName="f" x="0" y="0" flags="0x4"/>
      <component glyphName="dotlessi" x="334" y="0" flags="0x4"/>
      <component glyphName="uni0307" x="352" y="-1" flags="0x4"/>
    </TTGlyph>
    <TTGlyph name="figuredash" xMin="60" yMin="228" xMax="448" yMax="266">
      <component glyphName="endash" x="0" y="0" flags="0x204"/>
    </TTGlyph>
</ttFont>
